<svg width="98" height="98" viewBox="0 0 98 98" fill="none" xmlns="http://www.w3.org/2000/svg">
<mask id="mask0_1_164" style="mask-type:alpha" maskUnits="userSpaceOnUse" x="0" y="0" width="98" height="98">
<circle opacity="0.98" cx="49" cy="49" r="49" fill="#D9D9D9"/>
</mask>
<g mask="url(#mask0_1_164)">
<circle cx="49" cy="49" r="50" fill="#FAF3FF"/>
<ellipse cx="44.1017" cy="44.6543" rx="16.1056" ry="14.6497" fill="white"/>
<ellipse cx="3.0833" cy="3.18386" rx="3.0833" ry="3.18386" transform="matrix(0.995475 0.0950258 -0.0890687 0.996026 34.4199 34.6223)" fill="black"/>
<ellipse cx="51.0305" cy="44.6543" rx="3.3069" ry="3.34395" fill="black"/>
<path fill-rule="evenodd" clip-rule="evenodd" d="M42.8668 26.1334C42.8668 26.1334 36.3029 16.6499 34.2428 17.8481C33.8121 18.1263 33.5977 19.7296 33.283 22.0831C32.7604 25.9905 31.9613 31.9656 29.4368 37.3769C29.1847 37.9174 28.9301 38.4613 28.674 39.0084L28.6734 39.0097C28.506 39.3674 28.3359 39.7303 28.1636 40.0979C24.1702 48.6175 18.9766 59.6976 18.0556 68.3007C16.2613 85.0615 22.7377 97.801 29.7108 111.518C30.3008 112.678 30.8944 113.846 31.4869 115.024C32.3401 116.72 34.3245 117.743 36.1747 117.743H36.838C39.2497 117.743 37.9285 114.608 37.5068 113.608L37.5066 113.607C37.4614 113.5 37.4266 113.417 37.4078 113.366C35.6366 108.495 35.1461 104.34 34.5753 99.5041C34.431 98.282 34.2816 97.0164 34.1051 95.6848C34.9362 96.6734 35.8166 97.6185 36.743 98.5156C37.97 104.307 39.7254 109.93 41.7853 115.319C42.3486 116.793 43.7368 117.743 45.2705 117.743L46.031 117.743C47.4179 117.743 48.4061 116.35 48.0485 114.966C47.2226 111.768 46.632 108.504 46.2434 105.186C49.8326 106.932 53.7574 108.105 57.9208 108.581C72.8466 110.287 86.6771 102.55 93.8292 89.9916C94.0049 89.6963 94.1717 89.3943 94.3289 89.0858L94.3645 89.0192C94.4013 88.9499 94.4341 88.8823 94.4631 88.8163C95.2545 87.1884 95.7842 85.39 95.9894 83.4732C96.131 82.1506 96.1099 80.8481 95.9426 79.587C95.5341 76.5077 104.448 71.0857 113.112 65.8162C124.115 59.1234 134.714 52.6763 125.296 51.5868C123.964 51.4327 122.633 51.2551 121.302 51.0774C112.252 49.8696 103.194 48.6607 93.8292 54.8453C92.9316 56.7636 92.0405 58.4423 91.1625 59.9115C90.7386 67.3884 84.7357 73.3167 77.3926 73.3167C69.7745 73.3167 63.5988 66.936 63.5988 59.0651C63.5988 56.5378 64.2355 54.1642 65.3522 52.1061C66.8132 48.3656 68.9849 44.3772 70.8342 40.9809C73.1247 36.7741 74.9208 33.4756 74.2595 32.6809C72.8596 30.9986 66.681 32.1849 62.8035 32.9294C62.0871 33.067 61.4493 33.1894 60.9347 33.276C58.0004 29.2895 53.5511 26.5051 48.3528 25.9111C46.4742 25.6964 44.6304 25.7829 42.8668 26.1334ZM35.5429 43.917C38.5013 45.2669 41.7774 44.3076 42.8602 41.7744C43.943 39.2412 42.4225 36.0933 39.4641 34.7434C37.6834 33.9309 35.7877 33.955 34.3244 34.6553C33.3566 35.1185 32.5779 35.8775 32.1468 36.886C31.064 39.4192 32.5845 42.5671 35.5429 43.917ZM57.2738 48.6076C56.1274 51.2705 52.6938 52.2785 49.6047 50.8589C46.5155 49.4392 44.9407 46.1296 46.0871 43.4666C46.5435 42.4065 47.3624 41.6086 48.3778 41.1219C49.9128 40.3859 51.897 40.3609 53.7563 41.2153C56.8454 42.635 58.4202 45.9446 57.2738 48.6076Z" fill="#B895F7"/>
<path fill-rule="evenodd" clip-rule="evenodd" d="M39.8821 46.6499L39.8253 47.3641C39.8821 46.6499 39.8823 46.6499 39.8824 46.6499L39.8832 46.65L39.8846 46.6501L39.8881 46.6504L39.8982 46.6514L39.9308 46.6548C39.9577 46.6577 39.9951 46.6621 40.0416 46.6685C40.1345 46.6811 40.2645 46.7015 40.4214 46.7331C40.7335 46.796 41.1607 46.9053 41.6171 47.092C42.0832 47.2827 42.5136 47.5437 42.8191 47.7487C42.974 47.8526 43.1017 47.9455 43.1916 48.0132C43.2367 48.0471 43.2725 48.0748 43.2977 48.0947L43.3276 48.1184L43.3363 48.1254L43.3391 48.1277L43.3401 48.1285L43.3407 48.1289C43.3407 48.129 43.3408 48.129 42.9365 48.6581L43.3408 48.129C43.6414 48.3743 43.6928 48.8248 43.4554 49.1355C43.2182 49.4459 42.7825 49.499 42.4819 49.2543L42.4814 49.254L42.4813 49.2539L42.4776 49.2509L42.4579 49.2353C42.4398 49.221 42.4117 49.1992 42.375 49.1716C42.3015 49.1163 42.1943 49.0383 42.0635 48.9505C41.9756 48.8915 41.8791 48.8296 41.7768 48.7679C41.4728 49.4175 41.4472 49.8781 41.5098 50.1722C41.5778 50.4916 41.7677 50.7072 42.0174 50.8305C42.2804 50.9605 42.5949 50.9781 42.8534 50.8872C43.0957 50.8019 43.2795 50.6283 43.3591 50.3462C43.4664 49.9663 43.8514 49.7481 44.2191 49.8589C44.5868 49.9697 44.798 50.3675 44.6907 50.7475C44.4717 51.5235 43.9253 52.024 43.3005 52.2438C42.6919 52.458 42.0024 52.4116 41.419 52.1234C40.88 51.8571 40.4209 51.3771 40.213 50.703C39.8136 50.9119 39.3895 50.9793 38.9814 50.9273C38.4026 50.8536 37.8911 50.5451 37.5388 50.1363C37.19 49.7316 36.9444 49.1614 37.0296 48.5466C37.084 48.1549 37.4354 47.8828 37.8145 47.9389C38.1937 47.995 38.457 48.3581 38.4027 48.7499C38.3898 48.8432 38.4223 49.0064 38.5748 49.1833C38.7237 49.3561 38.9363 49.4776 39.1512 49.505C39.3466 49.5299 39.5768 49.483 39.8176 49.2565C40.0151 49.0706 40.2373 48.745 40.4245 48.201C40.3274 48.1763 40.237 48.1561 40.1557 48.1397C40.0301 48.1144 39.9285 48.0986 39.8604 48.0893C39.8263 48.0847 39.8008 48.0817 39.7851 48.0799L39.7689 48.0783L39.7667 48.0781C39.3858 48.0448 39.1027 47.6991 39.134 47.3053C39.1655 46.9109 39.5004 46.6175 39.8821 46.6499Z" fill="black"/>
</g>
</svg>
