<svg width="97" height="115" viewBox="0 0 97 115" fill="none" xmlns="http://www.w3.org/2000/svg">
<path d="M48.26 114.477C74.8225 114.477 96.356 111.129 96.356 106.999C96.356 102.869 74.8225 99.521 48.26 99.521C21.6976 99.521 0.164429 102.869 0.164429 106.999C0.164429 111.129 21.6976 114.477 48.26 114.477Z" fill="#232323"/>
<path d="M35.6957 49.0233C35.6957 49.0233 35.1335 52.7105 38.9227 52.3434C43.1037 51.9764 54.672 51.9899 54.672 51.9899C54.672 51.9899 56.06 52.9958 55.363 48.6691C54.667 44.3425 48.0035 44.049 48.0035 44.049" fill="black"/>
<path d="M35.9134 49.0905C35.9032 49.1582 35.9173 49.0394 35.9144 49.0796C35.9109 49.1265 35.9051 49.1732 35.9018 49.2201C35.8908 49.3823 35.889 49.545 35.8965 49.7074C35.8987 49.7564 35.9018 49.8053 35.9057 49.8542C35.9078 49.8812 35.9104 49.9083 35.9129 49.9353C35.9141 49.9475 35.9155 49.9598 35.9167 49.972C35.9231 50.0361 35.9089 49.9151 35.9175 49.9797C35.9327 50.0942 35.9517 50.2079 35.9768 50.3203C36.0034 50.4402 36.0368 50.5581 36.0766 50.6733C36.0813 50.6868 36.0861 50.7003 36.0909 50.7138C36.1145 50.7791 36.0793 50.6849 36.095 50.7244C36.1071 50.7548 36.1194 50.785 36.1325 50.815C36.1589 50.8759 36.1876 50.9355 36.2184 50.994C36.337 51.2196 36.493 51.4181 36.6781 51.5787C36.9218 51.7808 37.2 51.9249 37.4956 52.0023C38.1962 52.2008 38.9181 52.0855 39.6287 52.0377C41.0575 51.9418 42.4893 51.8975 43.9202 51.8599C45.5656 51.8166 47.2114 51.7871 48.8573 51.7714C50.2222 51.7559 51.5872 51.7458 52.9522 51.7412C53.3692 51.7397 53.7862 51.7387 54.2032 51.7382C54.3582 51.7381 54.5172 51.7267 54.6722 51.7381C54.7182 51.743 54.7622 51.7585 54.8032 51.7838C54.8342 51.8006 54.9072 51.8208 54.8192 51.796C54.8532 51.8057 54.8882 51.8217 54.9232 51.8331C54.9732 51.8497 54.9582 51.8349 54.9252 51.8359C54.9472 51.8352 54.9722 51.8375 54.9952 51.8392C55.0612 51.8442 54.9632 51.8576 55.0072 51.8389C55.0292 51.8297 55.0552 51.8223 55.0782 51.8152C54.9982 51.8401 55.0742 51.8109 55.1012 51.794C55.1432 51.7685 55.0752 51.822 55.0932 51.8009C55.1052 51.7874 55.1182 51.7742 55.1302 51.7615C55.1412 51.7505 55.1492 51.7369 55.1592 51.7248C55.1112 51.7846 55.1512 51.7374 55.1612 51.7172C55.1812 51.6781 55.2012 51.6399 55.2182 51.5995C55.2332 51.5671 55.1982 51.6598 55.2162 51.6062C55.2202 51.5953 55.2242 51.5846 55.2272 51.5735C55.2342 51.5502 55.2412 51.527 55.2482 51.5035C55.2642 51.4438 55.2782 51.3832 55.2892 51.322C55.3002 51.2638 55.3082 51.205 55.3132 51.1457C55.3212 51.0593 55.3272 50.9728 55.3302 50.886C55.3362 50.6704 55.3332 50.4545 55.3202 50.2392C55.2912 49.6797 55.2232 49.1235 55.1172 48.5757C54.9742 47.8817 54.6582 47.247 54.2062 46.7447C53.2952 45.7104 52.0142 45.1522 50.7752 44.792C50.2322 44.6354 49.6826 44.5133 49.1277 44.4261C49.0982 44.4214 49.0687 44.4168 49.0391 44.4122C49.0294 44.4107 48.9944 44.4056 49.0414 44.4125C49.0288 44.4107 49.0162 44.4088 49.0036 44.407C48.9493 44.3992 48.8949 44.3914 48.8405 44.3842C48.744 44.3712 48.6474 44.3593 48.5507 44.3485C48.4157 44.3334 48.2804 44.3203 48.145 44.3102C48.0979 44.3067 48.0508 44.3033 48.0036 44.3011C47.7143 44.2882 47.7128 43.7842 48.0036 43.7971C48.5221 43.8271 49.0384 43.892 49.5498 43.9914C50.6242 44.1715 51.6712 44.5094 52.6662 44.9964C53.6982 45.5187 54.6942 46.3059 55.2272 47.4533C55.5732 48.1988 55.6702 49.0437 55.7442 49.8695C55.7982 50.4689 55.8512 51.164 55.6512 51.7403C55.5432 52.0513 55.3412 52.3116 55.0292 52.3407C54.8712 52.3526 54.7132 52.3108 54.5772 52.2206C54.5712 52.2162 54.5642 52.2124 54.5582 52.2079L54.6722 52.2423C53.8932 52.2414 53.1142 52.2433 52.3352 52.2479C50.5662 52.2563 48.7968 52.2737 47.0276 52.3002C45.1193 52.3302 43.2106 52.3698 41.3034 52.4522C40.5594 52.4844 39.8151 52.522 39.0724 52.5832C38.1972 52.6552 37.246 52.6413 36.4982 52.0529C35.6589 51.3924 35.3442 50.1898 35.4625 49.0857C35.4671 49.0426 35.4718 48.9995 35.4783 48.9567C35.5265 48.6376 35.9614 48.7727 35.9134 49.0905Z" fill="black"/>
<path d="M38.7268 94.1099V100.789L45.6517 102.331L45.8477 92.2009" fill="#FC7272"/>
<path d="M38.9526 94.1099V100.789L38.787 100.546L41.1323 101.068L44.8543 101.897L45.712 102.088L45.4264 102.331L45.4927 98.9079L45.5982 93.4519L45.6224 92.2009C45.6287 91.8769 46.0799 91.8759 46.0736 92.2009L46.0074 95.6239L45.9019 101.08L45.8776 102.331C45.877 102.369 45.8685 102.407 45.8529 102.442C45.8373 102.476 45.8149 102.506 45.7875 102.529C45.76 102.553 45.7282 102.569 45.6944 102.577C45.6605 102.584 45.6256 102.583 45.5921 102.574L43.2468 102.052L39.5248 101.223L38.6672 101.032C38.6197 101.017 38.5779 100.986 38.548 100.942C38.5182 100.898 38.5019 100.844 38.5015 100.789V94.1099C38.5015 93.7849 38.9526 93.7849 38.9526 94.1099Z" fill="black"/>
<path d="M46.0471 100.146L46.0194 107.542H31.4038C31.4038 107.542 31.1545 102.879 36.6122 102.388C37.1047 102.34 37.5627 102.085 37.894 101.675C38.2253 101.265 38.4054 100.73 38.3981 100.178C38.3952 99.8539 38.392 99.5909 38.3889 99.3789C38.387 99.2659 38.4051 99.1539 38.4423 99.0499C38.4795 98.9449 38.5349 98.8499 38.6055 98.7689C38.676 98.6889 38.7602 98.6249 38.8531 98.5809C38.946 98.5369 39.0458 98.5139 39.1466 98.5139H39.7722L41.4363 99.6679C41.8576 99.9599 42.3443 100.114 42.8404 100.111C43.3364 100.108 43.8217 99.9489 44.2405 99.6519L44.7144 99.3159C44.8464 99.2229 44.9985 99.1719 45.1546 99.1669C45.3106 99.1619 45.465 99.2039 45.6014 99.2889C45.7377 99.3739 45.8511 99.4989 45.9296 99.6499C46.008 99.7999 46.0486 99.9719 46.0471 100.146Z" fill="#389B48"/>
<path d="M46.2725 100.146L46.2631 102.651L46.2482 106.625L46.2447 107.543C46.2438 107.609 46.2198 107.673 46.1777 107.72C46.1355 107.767 46.0787 107.794 46.0191 107.795H33.208C32.6162 107.795 32.0194 107.82 31.4279 107.795C31.4198 107.794 31.4116 107.795 31.4034 107.795C31.344 107.793 31.2873 107.766 31.2452 107.719C31.2032 107.672 31.179 107.609 31.1778 107.543C31.163 106.894 31.2724 106.25 31.4987 105.653C32.002 104.25 33.019 103.25 34.2659 102.7C34.6987 102.512 35.1469 102.372 35.6041 102.282C35.8775 102.226 36.1535 102.184 36.4301 102.154C36.676 102.141 36.9184 102.082 37.147 101.98C37.358 101.874 37.548 101.721 37.7056 101.532C37.8633 101.342 37.9857 101.12 38.0655 100.877C38.1447 100.614 38.1805 100.337 38.1711 100.059C38.1682 99.7599 38.1317 99.4339 38.1842 99.1379C38.2343 98.8849 38.3615 98.6599 38.5441 98.4999C38.7266 98.3399 38.9532 98.2559 39.1851 98.2619C39.3426 98.2609 39.5001 98.2619 39.6577 98.2619C39.745 98.2529 39.8329 98.2709 39.9115 98.3139C40.4176 98.6349 40.9038 99.0019 41.3981 99.3449C41.6874 99.5599 42.0086 99.7159 42.3469 99.8049C42.9119 99.9339 43.4993 99.8309 44.0025 99.5169C44.2665 99.3519 44.5059 99.1209 44.788 98.9949C45.0081 98.9019 45.2491 98.8909 45.4754 98.9629C45.7017 99.0349 45.9014 99.1859 46.045 99.3939C46.1921 99.6099 46.272 99.8749 46.2725 100.146C46.2772 100.471 45.826 100.471 45.8213 100.146C45.8207 100.016 45.7885 99.8879 45.7282 99.7759C45.6679 99.6639 45.5817 99.5719 45.4786 99.5099C45.3755 99.4489 45.2594 99.4189 45.1425 99.4249C45.0257 99.4309 44.9124 99.4719 44.8146 99.5429C44.3833 99.8399 43.9798 100.15 43.4753 100.28C42.7388 100.467 41.966 100.325 41.3216 99.8849C41.0677 99.7119 40.8161 99.5339 40.5634 99.3589L39.658 98.7319L39.7719 98.7659C39.417 98.7659 38.9029 98.6529 38.6889 99.0589C38.6264 99.1959 38.6011 99.3509 38.616 99.5039C38.6188 99.7089 38.6214 99.9129 38.6229 100.118C38.6291 100.509 38.557 100.896 38.412 101.252C38.2733 101.582 38.07 101.873 37.817 102.103C37.5639 102.334 37.2677 102.497 36.9503 102.583C36.6035 102.672 36.2386 102.672 35.8871 102.736C35.5651 102.794 35.2467 102.874 34.9336 102.976C34.0252 103.275 33.185 103.796 32.5711 104.605C32.1601 105.153 31.8726 105.803 31.7325 106.5C31.7015 106.648 31.6778 106.797 31.6577 106.947C31.6505 107 31.6645 106.884 31.659 106.936C31.6571 106.954 31.6549 106.973 31.653 106.991C31.6503 107.017 31.6478 107.043 31.6455 107.069C31.6407 107.123 31.6368 107.177 31.6338 107.231C31.6267 107.334 31.6252 107.439 31.6292 107.543L31.4036 107.291H45.4225C45.6131 107.28 45.8041 107.28 45.9947 107.291C46.0028 107.291 46.011 107.291 46.0192 107.291L45.7936 107.543L45.8029 105.038L45.8178 101.064L45.8213 100.146C45.8225 99.8219 46.2737 99.8219 46.2725 100.146Z" fill="black"/>
<path d="M50.9862 45.4138C50.9862 45.4138 54.1422 46.0958 54.5062 48.1417C54.8702 50.1876 50.2582 50.6649 50.2582 50.6649" fill="black"/>
<path d="M51.046 45.1708C51.568 45.2917 52.078 45.4741 52.566 45.7148C53.368 46.099 54.222 46.6836 54.589 47.6114C54.739 47.9924 54.816 48.4226 54.678 48.8228C54.538 49.1856 54.303 49.4927 54.004 49.7039C53.368 50.199 52.571 50.447 51.823 50.633C51.307 50.7642 50.785 50.859 50.258 50.9169C50.198 50.9164 50.141 50.8897 50.099 50.8425C50.057 50.7954 50.033 50.7316 50.032 50.6649C50.034 50.5985 50.058 50.5352 50.1 50.4882C50.142 50.4413 50.199 50.4143 50.258 50.4129C50.372 50.401 50.487 50.3846 50.6 50.3677C50.53 50.3781 50.619 50.3648 50.635 50.3623C50.663 50.3578 50.692 50.3532 50.72 50.3485C50.789 50.3371 50.859 50.3252 50.928 50.3126C51.082 50.2848 51.235 50.2541 51.388 50.2206C52.102 50.064 52.837 49.8574 53.468 49.4787C53.539 49.4357 53.61 49.3902 53.678 49.3415C53.74 49.2976 53.831 49.226 53.859 49.2013C53.916 49.1506 53.97 49.0963 54.022 49.0386C54.046 49.0108 54.07 48.9822 54.093 48.9527C54.106 48.9354 54.119 48.9178 54.132 48.8997C54.104 48.9392 54.14 48.8869 54.145 48.8782C54.184 48.8151 54.218 48.7482 54.247 48.6783C54.263 48.6398 54.23 48.7338 54.25 48.6688C54.257 48.6484 54.263 48.6283 54.269 48.6076C54.279 48.5697 54.287 48.5313 54.294 48.4924C54.296 48.4787 54.301 48.4302 54.296 48.484C54.298 48.4621 54.3 48.4401 54.301 48.4181C54.302 48.3805 54.302 48.3428 54.3 48.3053C54.299 48.2899 54.298 48.2745 54.297 48.2592C54.291 48.1832 54.306 48.3089 54.293 48.2324C54.283 48.1706 54.27 48.1095 54.254 48.049C54.029 47.1737 53.247 46.6204 52.549 46.2555C52.032 45.9834 51.487 45.7823 50.926 45.6567C50.642 45.5949 50.762 45.1091 51.046 45.1708Z" fill="black"/>
<path d="M57.4402 90.4329L60.6252 96.0729L67.2072 93.2059L62.5422 84.5349" fill="#FC7272"/>
<path d="M57.6341 90.306L58.7101 92.21L60.4251 95.247L60.8201 95.946L60.5651 95.83L62.7941 94.859L66.3321 93.318L67.1471 92.963L67.0121 93.333L65.4361 90.403L62.9241 85.733L62.3471 84.662C62.1981 84.383 62.5881 84.13 62.7371 84.408L64.3131 87.338L66.8261 92.008L67.4021 93.079C67.4191 93.112 67.4281 93.149 67.4311 93.188C67.4331 93.226 67.4271 93.264 67.4141 93.3C67.4011 93.335 67.3811 93.367 67.3561 93.393C67.3301 93.419 67.3001 93.438 67.2671 93.449L65.0381 94.42L61.5001 95.961L60.6851 96.316C60.6371 96.33 60.5861 96.327 60.5401 96.306C60.4941 96.285 60.4551 96.248 60.4301 96.2L59.3551 94.296L57.6401 91.259L57.2451 90.56C57.0891 90.285 57.4801 90.032 57.6341 90.306Z" fill="black"/>
<path d="M66.499 91.1239L70.003 97.3859L57.662 106.184C57.662 106.184 55.228 102.397 59.601 98.6959C59.994 98.3599 60.259 97.8699 60.343 97.3249C60.428 96.7799 60.325 96.2199 60.056 95.7549C59.899 95.4829 59.771 95.2629 59.667 95.0859C59.612 94.9919 59.574 94.8859 59.555 94.7749C59.537 94.6639 59.538 94.5499 59.559 94.4399C59.58 94.3299 59.621 94.2249 59.678 94.1319C59.736 94.0389 59.809 93.9599 59.894 93.8989L60.422 93.5229L62.378 93.4949C62.874 93.4879 63.359 93.3239 63.776 93.0229C64.194 92.7219 64.527 92.2959 64.738 91.7939L64.978 91.2249C65.044 91.0669 65.147 90.9319 65.276 90.8339C65.405 90.7359 65.556 90.6789 65.711 90.6689C65.867 90.6579 66.023 90.6949 66.161 90.7749C66.3 90.8549 66.417 90.9759 66.499 91.1239Z" fill="#389B48"/>
<path d="M66.694 90.996L67.879 93.114L69.766 96.487L70.197 97.258C70.227 97.316 70.234 97.384 70.219 97.449C70.204 97.513 70.167 97.568 70.116 97.603L68.886 98.48L65.931 100.586L62.384 103.115L59.296 105.317C58.798 105.672 58.309 106.059 57.796 106.386C57.789 106.391 57.782 106.396 57.776 106.401C57.724 106.433 57.662 106.442 57.605 106.425C57.547 106.408 57.498 106.367 57.467 106.311C57.051 105.661 56.84 104.799 56.777 104.016C56.623 102.085 57.563 100.349 58.811 99.098C59.209 98.699 59.699 98.39 59.953 97.846C60.155 97.408 60.2 96.901 60.082 96.427C60.004 96.158 59.889 95.905 59.741 95.675C59.608 95.445 59.439 95.214 59.363 94.951C59.298 94.713 59.306 94.458 59.386 94.225C59.465 93.992 59.612 93.796 59.802 93.666C59.917 93.582 60.034 93.501 60.15 93.418C60.23 93.343 60.326 93.292 60.429 93.27C60.63 93.255 60.834 93.265 61.034 93.262C61.549 93.255 62.076 93.284 62.59 93.23C63.057 93.178 63.501 92.974 63.864 92.642C64.172 92.352 64.417 91.988 64.581 91.577C64.708 91.276 64.814 90.931 65.049 90.711C65.169 90.595 65.31 90.51 65.462 90.461C65.614 90.413 65.774 90.402 65.931 90.429C66.087 90.456 66.237 90.521 66.368 90.619C66.5 90.717 66.611 90.846 66.694 90.996C66.853 91.269 66.463 91.522 66.304 91.251C66.014 90.753 65.393 90.853 65.17 91.359C64.946 91.867 64.758 92.365 64.396 92.78C63.905 93.339 63.248 93.679 62.548 93.738C62.215 93.767 61.877 93.754 61.543 93.759L60.422 93.775L60.536 93.74L60.156 94.011C60.012 94.114 59.872 94.206 59.805 94.394C59.695 94.703 59.853 94.943 59.998 95.192C60.19 95.487 60.349 95.806 60.474 96.142C60.664 96.758 60.63 97.433 60.378 98.021C60.091 98.703 59.494 99.074 59.016 99.57C58.212 100.405 57.543 101.438 57.303 102.652C57.152 103.428 57.188 104.235 57.408 104.99C57.478 105.257 57.575 105.514 57.695 105.757C57.743 105.86 57.797 105.96 57.857 106.056L57.548 105.966L58.779 105.089L61.733 102.982L65.28 100.453L68.369 98.251L69.386 97.526C69.544 97.413 69.701 97.276 69.868 97.182C69.875 97.178 69.882 97.172 69.889 97.167L69.808 97.512L68.623 95.395L66.736 92.022L66.304 91.251C66.15 90.975 66.54 90.722 66.694 90.996Z" fill="black"/>
<path d="M60.3211 97.178C60.4321 97.173 60.5421 97.183 60.6501 97.208C60.8691 97.251 61.0751 97.35 61.2531 97.498C61.3981 97.62 61.5231 97.77 61.6211 97.942C61.6501 98 61.6581 98.068 61.6431 98.133C61.6281 98.197 61.5911 98.252 61.5401 98.286C61.4881 98.319 61.4271 98.327 61.3691 98.311C61.3121 98.294 61.2621 98.253 61.2311 98.196C61.2191 98.175 61.2061 98.154 61.1931 98.133C61.1871 98.123 61.1801 98.113 61.1741 98.103C61.1921 98.129 61.1941 98.132 61.1791 98.111C61.1521 98.075 61.1251 98.04 61.0951 98.007C61.0671 97.976 61.0381 97.947 61.0081 97.918C60.9891 97.902 60.9931 97.905 61.0201 97.928C61.0121 97.922 61.0051 97.916 60.9971 97.91C60.9861 97.901 60.9751 97.892 60.9631 97.883C60.9051 97.841 60.8441 97.803 60.7811 97.771C60.7441 97.753 60.8351 97.795 60.7791 97.771C60.7641 97.765 60.7491 97.759 60.7341 97.753C60.7081 97.743 60.6811 97.734 60.6541 97.725C60.6041 97.71 60.5541 97.699 60.5031 97.689C60.4501 97.679 60.5561 97.695 60.5191 97.691C60.5091 97.69 60.4981 97.688 60.4871 97.687C60.4691 97.685 60.4511 97.684 60.4331 97.683C60.3961 97.68 60.3591 97.679 60.3221 97.682C60.2621 97.682 60.2051 97.655 60.1621 97.608C60.1201 97.561 60.0961 97.497 60.0961 97.43C60.0971 97.364 60.1221 97.301 60.1641 97.254C60.2061 97.207 60.2611 97.18 60.3211 97.178Z" fill="black"/>
<path d="M59.7862 98.2519C59.8962 98.2459 60.0062 98.2559 60.1142 98.2819C60.3332 98.3239 60.5392 98.4229 60.7172 98.5709C60.8622 98.6939 60.9872 98.8439 61.0852 99.0149C61.1142 99.0729 61.1232 99.1419 61.1072 99.2059C61.0922 99.2709 61.0552 99.3259 61.0042 99.3599C60.9522 99.3919 60.8912 99.4009 60.8332 99.3839C60.7762 99.3669 60.7262 99.3259 60.6952 99.2699C60.6832 99.2479 60.6702 99.2269 60.6572 99.2059C60.6512 99.1959 60.6442 99.1859 60.6382 99.1759C60.6562 99.2029 60.6582 99.2059 60.6432 99.1839C60.6162 99.1489 60.5892 99.1139 60.5592 99.0809C60.5312 99.0489 60.5022 99.0209 60.4722 98.9919C60.4532 98.9749 60.4572 98.9789 60.4842 99.0019C60.4762 98.9959 60.4692 98.9889 60.4612 98.9829C60.4502 98.9739 60.4392 98.9649 60.4272 98.9569C60.3692 98.9139 60.3082 98.8769 60.2452 98.8449C60.2082 98.8259 60.2992 98.8689 60.2432 98.8449C60.2282 98.8379 60.2132 98.8319 60.1992 98.8269C60.1722 98.8159 60.1452 98.8069 60.1182 98.7989C60.0682 98.7839 60.0182 98.7719 59.9672 98.7629C59.9142 98.7529 60.0202 98.7689 59.9842 98.7649C59.9732 98.7639 59.9622 98.7619 59.9512 98.7609C59.9332 98.7589 59.9152 98.7569 59.8972 98.7559C59.8602 98.7529 59.8232 98.7529 59.7862 98.7559C59.7262 98.7549 59.6692 98.7289 59.6262 98.6819C59.5842 98.6339 59.5602 98.5699 59.5602 98.5039C59.5612 98.4369 59.5862 98.3739 59.6282 98.3269C59.6702 98.2799 59.7262 98.2529 59.7862 98.2519Z" fill="black"/>
<path d="M58.965 99.133C59.075 99.127 59.185 99.138 59.293 99.163C59.512 99.205 59.718 99.305 59.896 99.453C60.042 99.575 60.166 99.725 60.264 99.896C60.293 99.954 60.302 100.023 60.286 100.087C60.271 100.152 60.234 100.207 60.183 100.241C60.131 100.274 60.07 100.282 60.012 100.265C59.955 100.248 59.905 100.207 59.874 100.151C59.862 100.129 59.849 100.108 59.836 100.088C59.83 100.077 59.823 100.067 59.817 100.057C59.836 100.084 59.837 100.087 59.822 100.065C59.795 100.03 59.768 99.9949 59.738 99.9619C59.711 99.9299 59.681 99.902 59.651 99.873C59.632 99.856 59.636 99.86 59.663 99.883C59.655 99.877 59.648 99.8709 59.64 99.8639C59.629 99.8549 59.618 99.8469 59.606 99.8379C59.548 99.7959 59.487 99.7579 59.424 99.7259C59.387 99.7069 59.478 99.7499 59.422 99.7259C59.407 99.7189 59.392 99.7129 59.378 99.7079C59.351 99.6979 59.324 99.6879 59.297 99.6799C59.247 99.6649 59.197 99.6529 59.146 99.6439C59.093 99.6339 59.199 99.65 59.163 99.646C59.152 99.645 59.141 99.6429 59.13 99.6419C59.112 99.6399 59.094 99.639 59.076 99.637C59.039 99.634 59.002 99.634 58.965 99.637C58.905 99.637 58.848 99.61 58.805 99.563C58.763 99.516 58.739 99.452 58.739 99.385C58.741 99.319 58.765 99.2549 58.807 99.2089C58.849 99.1619 58.905 99.135 58.965 99.133Z" fill="black"/>
<path d="M57.07 104.533C57.17 105.121 57.371 105.681 57.662 106.184L70.003 97.3849L69.455 96.3819L69.462 96.3769L68.483 94.6439C68.483 94.6439 66.476 95.2059 65.385 98.0699C64.376 99.5709 63.185 98.4209 61.911 99.5899C60.637 100.759 61.388 100.945 60.546 101.533C60.546 101.533 59.576 102.298 58.529 102.089C57.482 101.879 56.819 102.812 57.07 104.533Z" fill="white"/>
<path d="M57.287 104.466C57.378 105.034 57.572 105.575 57.856 106.057L57.548 105.966L58.778 105.089L61.733 102.983L65.28 100.454L68.369 98.2519L69.386 97.5259C69.544 97.4139 69.701 97.2769 69.868 97.1829C69.875 97.1789 69.882 97.1729 69.889 97.1679L69.808 97.5129L69.26 96.5089C69.231 96.4509 69.223 96.3829 69.238 96.3189C69.253 96.2539 69.29 96.1989 69.341 96.1639L69.348 96.1599L69.267 96.5039L68.288 94.7709L68.543 94.8869C68.502 94.8979 68.461 94.9139 68.421 94.9289C68.375 94.9469 68.33 94.9659 68.285 94.9859C68.271 94.9919 68.258 94.9979 68.244 95.0039C68.195 95.0269 68.291 94.9809 68.24 95.0059C68.203 95.0249 68.166 95.0429 68.129 95.0629C67.763 95.2559 67.423 95.5019 67.116 95.7959C66.642 96.2509 66.242 96.7939 65.933 97.4009C65.841 97.5789 65.757 97.7619 65.679 97.9489C65.643 98.0509 65.599 98.1489 65.548 98.2429C65.489 98.3339 65.424 98.4199 65.353 98.4999C65.114 98.7769 64.814 98.9779 64.483 99.0849C63.879 99.2769 63.234 99.1609 62.639 99.4029C62.295 99.5619 61.986 99.8009 61.732 100.105C61.634 100.209 61.545 100.323 61.465 100.445C61.434 100.493 61.406 100.543 61.38 100.595C61.369 100.617 61.358 100.64 61.348 100.663C61.344 100.672 61.309 100.761 61.327 100.71C61.268 100.871 61.238 101.043 61.167 101.199C61.07 101.39 60.933 101.552 60.767 101.671C60.388 101.971 59.96 102.184 59.507 102.299C59.296 102.353 59.079 102.379 58.863 102.377C58.686 102.373 58.514 102.327 58.339 102.315C58.108 102.289 57.876 102.357 57.687 102.506C57.181 102.94 57.198 103.834 57.287 104.466C57.301 104.53 57.293 104.598 57.264 104.656C57.234 104.713 57.186 104.756 57.13 104.776C57.072 104.793 57.011 104.784 56.959 104.751C56.907 104.718 56.869 104.664 56.852 104.6C56.754 103.905 56.735 103.097 57.101 102.486C57.247 102.245 57.451 102.054 57.689 101.937C57.927 101.82 58.191 101.78 58.448 101.823C58.809 101.888 59.177 101.871 59.531 101.773C59.796 101.691 60.05 101.571 60.287 101.416C60.412 101.34 60.53 101.249 60.638 101.146C60.663 101.12 60.72 101.052 60.72 101.051C60.706 101.072 60.736 101.027 60.74 101.018C60.75 100.999 60.76 100.98 60.77 100.961C60.778 100.945 60.785 100.928 60.791 100.912C60.775 100.95 60.785 100.931 60.793 100.905C60.804 100.868 60.815 100.831 60.826 100.794C60.994 100.197 61.356 99.7609 61.791 99.3759C62.088 99.1089 62.436 98.9189 62.808 98.8229C63.13 98.7549 63.456 98.7139 63.783 98.6999C64.071 98.6919 64.354 98.6209 64.617 98.4899C64.773 98.4019 64.913 98.2839 65.034 98.1429C65.104 98.0699 65.163 97.9859 65.209 97.8919C65.255 97.7869 65.294 97.6789 65.34 97.5749C65.639 96.8829 66.042 96.2539 66.529 95.7129C66.875 95.3309 67.267 95.0049 67.693 94.7449C67.913 94.6039 68.148 94.4909 68.391 94.4109C68.402 94.4079 68.412 94.4039 68.423 94.4009C68.471 94.3869 68.522 94.3909 68.567 94.4119C68.613 94.4329 68.652 94.4699 68.678 94.5169L69.657 96.2499C69.686 96.3079 69.694 96.3759 69.679 96.4409C69.664 96.5049 69.627 96.5599 69.576 96.5949L69.569 96.5999L69.65 96.2549L70.197 97.2579C70.226 97.3159 70.234 97.3849 70.219 97.4489C70.204 97.5129 70.167 97.5689 70.116 97.6029L68.886 98.4809L65.931 100.587L62.384 103.116L59.295 105.318C58.798 105.673 58.309 106.059 57.796 106.387C57.789 106.391 57.782 106.397 57.775 106.401C57.723 106.434 57.662 106.442 57.605 106.426C57.547 106.409 57.498 106.368 57.467 106.311C57.16 105.793 56.951 105.211 56.852 104.6C56.794 104.283 57.229 104.148 57.287 104.466Z" fill="black"/>
<path d="M47.0236 44.049L37.8121 45.4436L34.419 93.3589C34.3879 93.7749 34.4481 94.193 34.5943 94.577C34.7405 94.9609 34.9684 95.299 35.2581 95.563C35.5478 95.826 35.8907 96.0069 36.2571 96.0889C36.6234 96.1709 37.0021 96.1519 37.3605 96.0339L38.8435 95.5379L39.8793 96.1059C40.4629 96.4259 41.1124 96.5659 41.7608 96.5119C42.4091 96.4579 43.0327 96.2109 43.5673 95.7979L44.1133 95.3759L45.3375 95.9319C45.8781 96.1779 46.4636 96.2749 47.0447 96.216C47.6259 96.157 48.1859 95.943 48.6778 95.5919L49.0944 95.2949L49.1341 95.3149C49.8528 95.6839 50.659 95.7829 51.432 95.5959C52.205 95.4099 52.903 94.9479 53.422 94.2809L54.148 93.3479L56.007 93.271C56.632 93.2439 57.24 93.0399 57.774 92.6759C58.308 92.313 58.75 91.8039 59.058 91.1959L59.778 89.7799H61.994C63.263 89.7789 64.486 89.2449 65.419 88.2829C65.498 88.2009 65.551 88.0909 65.567 87.9719C65.584 87.8519 65.565 87.7299 65.512 87.6239L55.591 67.8795C55.591 67.8795 58.004 52.2294 50.986 45.4139" fill="#FFC41F"/>
<path d="M47.0837 44.2919L43.9734 44.7628L39.0136 45.5137L37.8723 45.6865L38.0379 45.4435L37.8569 48.0004L37.3912 54.576L36.7476 63.6648L36.0433 73.6107L35.3824 82.9429L34.8824 90.0039C34.8048 91.0999 34.7243 92.1959 34.6496 93.2919C34.6075 93.7429 34.6787 94.1979 34.855 94.6069C35.0758 95.0919 35.441 95.4749 35.8877 95.6909C36.3345 95.9069 36.8348 95.9419 37.3023 95.7899C37.5646 95.7069 37.8252 95.6159 38.0865 95.5279C38.314 95.4339 38.5469 95.3559 38.7836 95.2949C38.8874 95.2879 38.9901 95.3199 39.0759 95.3859L39.5569 95.6489C39.8599 95.8319 40.176 95.9849 40.5018 96.1089C41.5988 96.4759 42.6779 96.1789 43.6009 95.4659C43.8032 95.3099 44.005 95.0569 44.2602 95.1719L45.1648 95.5829C45.5312 95.7659 45.9186 95.8919 46.3158 95.9559C46.9434 96.0369 47.5786 95.9229 48.1522 95.6279C48.34 95.5249 48.5217 95.4089 48.6959 95.2799C48.8048 95.2029 48.9557 95.0429 49.0944 95.0429C49.1978 95.0649 49.2971 95.1059 49.3882 95.1649C49.5171 95.2209 49.6491 95.2699 49.7832 95.3089C50.071 95.3949 50.3671 95.4379 50.6641 95.4369C51.1671 95.4309 51.6621 95.3039 52.1171 95.0659C52.5721 94.8269 52.9761 94.4819 53.3001 94.0529C53.5061 93.7899 53.712 93.5259 53.917 93.2619C54.057 93.0809 54.204 93.0939 54.404 93.0859C55.005 93.0609 55.615 93.0679 56.214 93.0039C56.761 92.9379 57.2871 92.7289 57.7471 92.3929C58.2081 92.0559 58.59 91.6029 58.863 91.0689C59.107 90.5989 59.344 90.1239 59.584 89.6519C59.604 89.6139 59.632 89.5829 59.666 89.5609C59.7001 89.5389 59.739 89.5279 59.779 89.5269H61.8991C62.4891 89.5339 63.075 89.4249 63.631 89.2079C64.001 89.0579 64.354 88.8589 64.68 88.6139C64.903 88.4479 65.4561 88.1209 65.3171 87.7509C65.2391 87.5739 65.153 87.4019 65.058 87.2359L64.3591 85.8439L62.057 81.2639L59.2491 75.6729L56.7591 70.718L55.446 68.105C55.378 67.9567 55.3621 67.7853 55.4011 67.6244C55.4111 67.5527 55.42 67.481 55.4291 67.4092C55.4461 67.2771 55.45 67.2406 55.461 67.1538C55.492 66.8865 55.52 66.6189 55.546 66.3509C55.719 64.5541 55.7911 62.7467 55.7591 60.9398C55.7171 58.5025 55.4861 56.0576 54.9421 53.6929C54.3811 51.2515 53.4691 48.8546 51.9981 46.9182C51.6371 46.4443 51.246 46.001 50.827 45.592C50.608 45.3782 50.928 45.0229 51.146 45.2356C53.9051 47.9292 55.2361 51.9573 55.8141 55.9027C56.2961 59.1887 56.3251 62.5604 56.041 65.8711C55.982 66.564 55.915 67.2599 55.809 67.9464L55.7861 67.7522L57.198 70.5615L60.3711 76.8769L63.713 83.5299L65.6331 87.3509C65.7331 87.5139 65.7901 87.7039 65.7991 87.9009C65.7931 88.3819 65.3741 88.6779 65.0631 88.9289C64.6701 89.2429 64.2411 89.4959 63.7861 89.6789C62.6311 90.1519 61.3691 90.0309 60.1601 90.0309H59.779L59.973 89.9069C59.54 90.7599 59.1541 91.7139 58.4961 92.3839C57.9671 92.9249 57.316 93.2919 56.612 93.4449C56.203 93.5139 55.789 93.5489 55.375 93.5489L54.1481 93.5999L54.307 93.5269C53.765 94.2229 53.26 94.9609 52.5191 95.4099C51.9771 95.7349 51.3751 95.9129 50.7611 95.9299C50.1461 95.9479 49.5367 95.8049 48.9806 95.5129H49.2085C48.843 95.7959 48.4512 96.0339 48.0398 96.2219C47.4079 96.4779 46.7276 96.5469 46.0648 96.4219C45.3686 96.2949 44.703 95.9139 44.0536 95.6189L44.2273 95.5939C43.9092 95.8609 43.5742 96.1019 43.225 96.3159C42.5894 96.6709 41.879 96.8239 41.1708 96.7599C40.2782 96.6729 39.5173 96.1879 38.7297 95.7559L38.9036 95.7809C37.958 96.0969 36.9277 96.6239 35.937 96.2599C35.3967 96.0569 34.9323 95.6589 34.617 95.1289C34.3016 94.5989 34.1532 93.9669 34.1955 93.3319C34.2352 92.6999 34.285 92.0679 34.3298 91.4369L34.6391 87.0689L35.0743 80.9209L35.5885 73.6619L36.1302 66.0121L36.6498 58.6727L37.0966 52.3644L37.423 47.7559C37.4753 47.017 37.5237 46.2775 37.5799 45.539C37.5823 45.5072 37.5845 45.4753 37.5867 45.4435C37.5874 45.3886 37.6038 45.3353 37.6336 45.2915C37.6634 45.2478 37.7051 45.2159 37.7524 45.2005L40.8626 44.7296L45.8224 43.9787L46.9637 43.8059C47.2478 43.7629 47.3705 44.2484 47.0837 44.2919Z" fill="black"/>
<path d="M37.9377 101.535C38.0323 101.595 38.1199 101.668 38.1984 101.752C38.3732 101.932 38.5077 102.156 38.591 102.404C38.6488 102.581 38.678 102.768 38.6772 102.957C38.6772 103.023 38.6535 103.087 38.6112 103.135C38.5689 103.182 38.5115 103.209 38.4516 103.209C38.3918 103.209 38.3344 103.182 38.2921 103.135C38.2498 103.087 38.226 103.023 38.226 102.957C38.2258 102.921 38.2249 102.885 38.2225 102.849C38.2211 102.829 38.2189 102.809 38.2172 102.789C38.2149 102.76 38.2203 102.814 38.2203 102.814C38.2181 102.803 38.2165 102.792 38.2155 102.781C38.2053 102.715 38.1907 102.651 38.1718 102.588C38.1668 102.572 38.1615 102.555 38.1559 102.538C38.1536 102.532 38.1508 102.525 38.1486 102.518C38.1408 102.492 38.1587 102.544 38.1587 102.544C38.1445 102.518 38.1355 102.487 38.1229 102.46C38.0988 102.408 38.0717 102.358 38.0418 102.309C38.0353 102.299 38.0285 102.288 38.0218 102.278C37.9971 102.239 38.0386 102.301 38.0299 102.289C38.015 102.269 38.0005 102.248 37.9851 102.229C37.9569 102.193 37.9272 102.158 37.896 102.126C37.8693 102.097 37.8412 102.071 37.8129 102.045C37.7789 102.013 37.8629 102.086 37.8187 102.05C37.8078 102.041 37.7969 102.032 37.7858 102.023C37.7615 102.004 37.7362 101.986 37.71 101.97C37.6587 101.936 37.6215 101.881 37.6063 101.816C37.5912 101.752 37.5994 101.683 37.6291 101.625C37.6602 101.569 37.7096 101.528 37.7671 101.511C37.8247 101.494 37.8858 101.503 37.9377 101.535Z" fill="black"/>
<path d="M36.9727 102.119C37.0673 102.179 37.1549 102.251 37.2334 102.336C37.4082 102.516 37.5427 102.739 37.626 102.988C37.6838 103.165 37.713 103.352 37.7123 103.54C37.7123 103.607 37.6885 103.671 37.6462 103.719C37.6039 103.766 37.5465 103.792 37.4867 103.792C37.4268 103.792 37.3694 103.766 37.3271 103.719C37.2848 103.671 37.2611 103.607 37.2611 103.54C37.2609 103.504 37.2599 103.468 37.2575 103.433C37.2561 103.413 37.2539 103.392 37.2523 103.372C37.2499 103.344 37.2554 103.398 37.2553 103.397C37.2531 103.387 37.2515 103.376 37.2505 103.364C37.2403 103.299 37.2257 103.235 37.2069 103.172C37.2019 103.155 37.1966 103.139 37.1909 103.122C37.1886 103.115 37.1858 103.108 37.1837 103.101C37.1759 103.076 37.1945 103.129 37.1938 103.128C37.1796 103.102 37.1705 103.071 37.158 103.044C37.1338 102.992 37.1067 102.941 37.0768 102.893C37.0703 102.883 37.0635 102.872 37.0568 102.862C37.0322 102.823 37.0737 102.885 37.0649 102.873C37.05 102.853 37.0356 102.832 37.0202 102.813C36.9919 102.777 36.9622 102.742 36.931 102.709C36.9042 102.681 36.8763 102.655 36.8479 102.628C36.814 102.597 36.898 102.67 36.8537 102.633C36.8428 102.625 36.8319 102.616 36.8209 102.607C36.7965 102.588 36.7712 102.57 36.745 102.554C36.6937 102.52 36.6565 102.464 36.6414 102.4C36.6262 102.335 36.6344 102.267 36.6641 102.209C36.6952 102.152 36.7447 102.111 36.8022 102.095C36.8597 102.078 36.9207 102.086 36.9727 102.119Z" fill="black"/>
<path d="M35.8598 102.369C35.9544 102.429 36.042 102.502 36.1205 102.586C36.2953 102.766 36.4298 102.99 36.5132 103.239C36.5709 103.415 36.6001 103.602 36.5994 103.791C36.5994 103.857 36.5756 103.922 36.5333 103.969C36.491 104.016 36.4336 104.043 36.3738 104.043C36.3139 104.043 36.2566 104.016 36.2142 103.969C36.1719 103.922 36.1482 103.857 36.1482 103.791C36.148 103.755 36.147 103.719 36.1446 103.683C36.1433 103.663 36.1411 103.643 36.1394 103.623C36.137 103.594 36.1425 103.648 36.1424 103.648C36.1402 103.637 36.1386 103.626 36.1376 103.615C36.1274 103.55 36.1128 103.485 36.094 103.422C36.089 103.406 36.0837 103.389 36.0781 103.373C36.0757 103.366 36.0729 103.359 36.0708 103.352C36.063 103.326 36.0816 103.379 36.0809 103.378C36.0667 103.352 36.0577 103.321 36.0451 103.294C36.0209 103.242 35.9938 103.192 35.9639 103.143C35.9574 103.133 35.9506 103.123 35.9439 103.112C35.9193 103.073 35.9608 103.135 35.9521 103.123C35.9371 103.103 35.9227 103.083 35.9073 103.063C35.879 103.027 35.8493 102.993 35.8181 102.96C35.7914 102.932 35.7634 102.905 35.735 102.879C35.7011 102.848 35.7851 102.92 35.7408 102.884C35.7299 102.875 35.7191 102.866 35.708 102.857C35.6836 102.838 35.6583 102.82 35.6322 102.804C35.5809 102.77 35.5436 102.715 35.5285 102.65C35.5133 102.586 35.5215 102.517 35.5512 102.459C35.5823 102.403 35.6318 102.362 35.6893 102.345C35.7468 102.328 35.8078 102.337 35.8598 102.369Z" fill="black"/>
<path d="M27.3217 33.1189C26.924 32.2322 26.4863 31.3686 26.0102 30.5314L22.764 32.5022L21.8404 33.063L13.9837 17.0299L8.39258 20.6176L15.0117 37.2897C16.6707 40.6404 20.339 42.0782 23.5708 40.8469L25.6123 39.8874L28.9947 37.8684C28.5792 36.2272 28.0188 34.6363 27.3217 33.1189Z" fill="#A8542A"/>
<path d="M27.1271 33.2459C26.7288 32.3595 26.2911 31.4959 25.8155 30.6584L26.1242 30.7488L22.8771 32.7202L21.9544 33.2804C21.9025 33.3131 21.8413 33.3219 21.7836 33.3051C21.726 33.2882 21.6765 33.2469 21.6457 33.1899L20.8657 31.5982L18.9854 27.7611L16.7174 23.1327L14.7519 19.1218L14.1101 17.8121C14.0091 17.606 13.8852 17.3997 13.8021 17.1835C13.7986 17.1744 13.7934 17.1657 13.7891 17.157L14.0978 17.2474L12.2041 18.4625L9.19978 20.3903L8.50668 20.835L8.58758 20.4902L9.04998 21.6549L10.2139 24.5865L11.7445 28.4417L13.3069 32.3773L14.5665 35.5498C14.7737 36.0717 14.9749 36.5971 15.1883 37.1159C15.4517 37.7015 15.7994 38.2348 16.2174 38.6947C16.85 39.4255 17.6076 40.0069 18.4453 40.4044C19.2713 40.7952 20.1563 41.0069 21.0531 41.0284C21.8971 41.0648 22.7393 40.917 23.5327 40.5934C24.0205 40.3791 24.5002 40.1387 24.9833 39.9117C25.1677 39.825 25.352 39.7384 25.5364 39.6517C25.5768 39.6328 25.4561 39.6979 25.534 39.6484C25.5862 39.6153 25.6402 39.5851 25.6931 39.5535L28.6328 37.7987L28.881 37.6505L28.7773 37.9351C28.3698 36.3141 27.8169 34.743 27.1271 33.2459C26.9972 32.9568 27.3863 32.7012 27.5167 32.9915C28.2251 34.527 28.7932 36.1384 29.2124 37.8011C29.225 37.8547 29.2217 37.9114 29.203 37.9627C29.1843 38.014 29.1512 38.0572 29.1087 38.0857L26.4849 39.6519C26.2111 39.8154 25.94 40.0042 25.6535 40.139C25.1651 40.3688 24.6766 40.5983 24.188 40.8277C24.0063 40.9131 23.8259 41.0044 23.6421 41.0843C23.2623 41.2393 22.8692 41.3504 22.469 41.4159C21.5366 41.5891 20.5835 41.5678 19.658 41.3531C17.8101 40.9266 16.183 39.7142 15.1207 37.9722C14.8533 37.4916 14.6246 36.9855 14.4372 36.4598L13.3127 33.6275L11.7892 29.7902L10.2061 25.8024L8.90148 22.5166L8.22838 20.8212L8.19798 20.7447C8.16928 20.6866 8.16168 20.6184 8.17678 20.5542C8.19178 20.49 8.22838 20.4348 8.27898 20.3999L10.1726 19.1848L13.177 17.257L13.8701 16.8123C13.9219 16.7795 13.9832 16.7705 14.0409 16.7874C14.0985 16.8043 14.148 16.8457 14.1788 16.9027L14.9587 18.4944L16.839 22.3316L19.107 26.9599L21.0725 30.9708L21.7143 32.2805C21.8153 32.4866 21.9393 32.6929 22.0223 32.9091C22.0258 32.9182 22.031 32.9269 22.0353 32.9356L21.7266 32.8452L25.2647 30.6972L25.8964 30.3137C25.9484 30.2814 26.0095 30.2728 26.067 30.2896C26.1245 30.3065 26.174 30.3475 26.2051 30.4041C26.6806 31.2416 27.1185 32.1051 27.5167 32.9915C27.6472 33.2804 27.258 33.5359 27.1271 33.2459Z" fill="black"/>
<path d="M9.94104 13.2539C10.003 11.7921 9.69324 10.8872 9.69324 10.8872C9.10134 8.93538 8.25904 8.88928 6.73584 8.92778C5.21264 8.96638 4.81494 7.12179 6.12094 7.16639C6.12094 7.16639 10.1272 5.85958 11.6458 9.13578C11.7959 9.45238 11.9261 9.71709 12.0383 9.93809C12.4839 10.8164 12.8024 11.7678 12.9823 12.7571L13.1552 13.706" fill="#FC7272"/>
<path d="M9.71544 13.2542C9.74534 12.4873 9.70194 11.6874 9.47624 10.9559C9.25764 10.2479 8.92534 9.53063 8.26924 9.30323C7.95684 9.20793 7.63354 9.16423 7.30984 9.17363C6.90044 9.16853 6.48154 9.22414 6.08494 9.08024C5.53724 8.88164 4.94334 8.25304 5.14384 7.54514C5.19224 7.39184 5.27644 7.25574 5.38754 7.15084C5.49874 7.04594 5.63284 6.97604 5.77624 6.94834C5.86734 6.92204 5.96134 6.91054 6.05544 6.91414C6.07044 6.91584 6.07754 6.91734 6.08004 6.91874C6.10694 6.91264 6.13404 6.90184 6.16044 6.89444C6.54394 6.79014 6.93424 6.72034 7.32774 6.68584C8.64324 6.56184 10.0623 6.82944 11.0628 7.85954C11.3563 8.16494 11.6037 8.52124 11.7955 8.91464C12.0583 9.44934 12.3373 9.98094 12.5651 10.5354L12.05 10.4999L11.8032 9.98574C11.5817 9.54574 11.3944 9.07434 11.1189 8.67164C10.3101 7.48974 8.96494 7.11914 7.69704 7.16554C7.27434 7.17694 6.85374 7.23484 6.44124 7.33854C6.35694 7.35904 6.27384 7.38704 6.18964 7.40694C6.09814 7.42864 5.99174 7.41464 5.90944 7.43134C5.85504 7.44264 5.80184 7.46043 5.75084 7.48423C5.70534 7.50343 5.66514 7.53564 5.63444 7.57774C5.61424 7.60634 5.59644 7.63694 5.58124 7.66924C5.56874 7.70564 5.56154 7.74404 5.55984 7.78304C5.55644 7.88194 5.57624 7.98004 5.61734 8.06764C5.74724 8.32724 5.96404 8.51864 6.22014 8.59964C6.58184 8.72594 6.97024 8.66394 7.34334 8.67014C7.68284 8.66494 8.02154 8.71014 8.35044 8.80434C9.65924 9.22664 10.0768 10.9997 10.1589 12.3433C10.1767 12.6465 10.1792 12.9507 10.1666 13.2542C10.154 13.5773 9.70274 13.5791 9.71544 13.2542Z" fill="black"/>
<path d="M15.2273 19.5887L14.597 18.3089C14.1679 17.4373 13.8277 16.5148 13.5825 15.5586C13.3915 14.8144 13.1667 13.8383 12.9526 12.6639C12.4277 9.78488 11.4898 10.4701 7.21509 13.0456C8.74329 14.5379 8.70619 15.3181 8.70619 15.3181L8.83029 20.5429L10.2635 24.2269" fill="#FC7272"/>
<path d="M14.0292 17.6118C14.3277 18.3323 14.6901 19.0207 15.0325 19.716C15.1727 20.0006 15.5622 19.746 15.4221 19.4616C14.9731 18.5499 14.4994 17.6492 14.159 16.6778C13.6646 15.2663 13.425 13.7782 13.1139 12.3097L12.9 11.5L12.55 10.5H12.05L12.0979 10.6009L12.5044 11.7891C12.6447 12.2568 12.7527 12.7359 12.8274 13.222C13.117 14.7183 13.4518 16.2177 14.0292 17.6118Z" fill="black"/>
<path d="M12.3575 23.3475L9.62368 23.369C9.62368 23.369 8.24028 20.6597 7.38898 18.9323C7.11948 18.3825 7.02018 17.7487 7.10638 17.1294C7.21928 16.3529 7.13838 15.5567 6.87258 14.8282C6.87258 14.8282 5.41878 16.317 4.36558 14.6464C4.35698 14.6304 4.34838 14.6146 4.33988 14.5989C3.85348 13.6994 3.43638 12.2102 4.53988 11.8979L4.70748 11.6112C4.84918 11.3679 5.04308 11.168 5.27148 11.0294C5.49988 10.8909 5.75568 10.8183 6.01548 10.818H6.65788L6.74448 10.6342C7.03128 10.0254 7.59458 9.80264 8.20668 9.84354C9.01208 8.86894 10.309 9.53864 10.7971 10.5546" fill="#FC7272"/>
<path d="M12.3576 23.5994L9.96778 23.6182L9.62378 23.6209C9.58438 23.6209 9.54578 23.6094 9.51158 23.5875C9.47738 23.5656 9.44898 23.5341 9.42898 23.4961C9.01258 22.6806 8.59838 21.8636 8.18628 21.0453C7.86548 20.4086 7.54668 19.7707 7.22988 19.1315C7.03218 18.7406 6.90789 18.3089 6.86478 17.8626C6.82418 17.4203 6.91718 16.9926 6.92598 16.5521C6.93488 16.1546 6.89329 15.7577 6.80228 15.3732C6.77538 15.2602 6.74428 15.1482 6.70768 15.0386C6.70208 15.0216 6.69599 15.0048 6.69029 14.9879C6.66809 14.9215 6.69589 14.9785 6.69029 14.9879C6.69209 14.985 6.67998 14.9603 6.67788 14.9553L7.03219 15.0063C6.55639 15.4909 5.84779 15.8168 5.20499 15.6417C4.64989 15.4905 4.25368 14.9877 4.00288 14.4402C3.79028 13.9763 3.61498 13.4523 3.61548 12.9244C3.60528 12.6336 3.68598 12.3478 3.84378 12.1162C4.00148 11.8846 4.22648 11.7214 4.48008 11.6548L4.34528 11.7706C4.44888 11.5775 4.56558 11.3936 4.69438 11.2203C4.91868 10.9445 5.20748 10.7442 5.52828 10.6418C5.88948 10.526 6.28618 10.5659 6.65798 10.5659L6.46319 10.6907C6.59639 10.3641 6.80618 10.0837 7.07028 9.87943C7.41368 9.65523 7.81048 9.55462 8.20688 9.59142L8.04728 9.66522C8.96178 8.58932 10.4279 9.28083 10.9921 10.4274C11.1321 10.7118 10.7426 10.9664 10.6025 10.6818C10.2634 9.99273 9.43638 9.34843 8.71868 9.72553C8.63558 9.76903 8.55788 9.82453 8.48758 9.89063C8.37668 9.99533 8.32168 10.0911 8.16419 10.093C7.95329 10.0847 7.74258 10.115 7.54048 10.1827C7.19518 10.3137 7.01468 10.6014 6.85278 10.9451C6.83298 10.9832 6.80458 11.0147 6.77038 11.0366C6.73618 11.0586 6.69738 11.07 6.65798 11.0699C6.18898 11.0699 5.70988 11.0125 5.29448 11.307C5.04718 11.4823 4.91068 11.7373 4.75028 11.9985C4.66118 12.1437 4.52388 12.1475 4.39468 12.2253C4.29488 12.2825 4.21188 12.3706 4.15568 12.479C3.91028 12.963 4.16978 13.6905 4.37718 14.1524C4.64498 14.7486 5.09759 15.2779 5.74089 15.1751C5.99179 15.1294 6.23118 15.025 6.44338 14.8686C6.48678 14.8385 6.52949 14.807 6.57139 14.7741C6.58809 14.761 6.60438 14.7474 6.62098 14.7342C6.66618 14.6984 6.61588 14.7399 6.63398 14.7236C6.66078 14.6997 6.68779 14.6758 6.71319 14.6499C6.73779 14.6232 6.76748 14.6029 6.80008 14.5908C6.83268 14.5786 6.86729 14.5748 6.90139 14.5798C6.93538 14.5847 6.96808 14.5981 6.99688 14.6191C7.02558 14.6401 7.04978 14.6681 7.06748 14.7009C7.23368 15.1239 7.33308 15.5759 7.36108 16.0368C7.39818 16.4855 7.33858 16.9097 7.30928 17.3553C7.27899 17.7814 7.34219 18.2093 7.49328 18.602C7.62358 18.9345 7.80348 19.2493 7.96158 19.5663C8.12458 19.8931 8.28818 20.2196 8.45238 20.5458C8.74778 21.133 9.04438 21.7194 9.34198 22.3052C9.50058 22.6176 9.65948 22.9298 9.81858 23.2418L9.62378 23.117L12.0137 23.0982L12.3577 23.0955C12.6481 23.0932 12.6483 23.5971 12.3576 23.5994Z" fill="black"/>
<path d="M15.5791 19.867L14.2184 17.5081L8.64038 21.1199L9.63158 23.3474" fill="white"/>
<path d="M15.3838 19.9941L14.1961 17.9351L14.0231 17.6353L14.3318 17.7257L12.4426 18.949L9.44527 20.8897L8.75377 21.3375L8.83477 20.9927L9.82597 23.2202C9.95477 23.5097 9.56577 23.7653 9.43637 23.4745L8.44517 21.2471C8.41617 21.189 8.40847 21.1208 8.42357 21.0565C8.43867 20.9922 8.47537 20.937 8.52607 20.9023L10.4153 19.679L13.4126 17.7383L14.1041 17.2906C14.156 17.2582 14.2172 17.2495 14.2747 17.2663C14.3322 17.2832 14.3817 17.3243 14.4127 17.381L15.6005 19.44L15.7734 19.7397C15.9312 20.0132 15.5408 20.2661 15.3838 19.9941Z" fill="black"/>
<path d="M42.7525 24.7602L37.5808 24.7446C36.5974 24.7418 35.6276 25.0028 34.7532 25.5057L26.0101 30.5321L21.8359 33.0931L19.6548 26.4171C18.731 23.5867 17.1721 21.0685 15.1274 19.1038L14.8353 18.8234L9.19762 22.6518L8.41522 26.5386C8.16182 27.7969 8.34782 29.1159 8.93522 30.2262L14.622 40.965C15.6338 42.7119 17.1829 43.9849 18.9771 44.5438C20.7713 45.1028 22.6867 44.909 24.3618 43.9992L28.939 41.5099L39.8021 35.3207" fill="white"/>
<path d="M31.6919 105.792C31.4957 106.349 31.398 106.944 31.4041 107.542H46.0198L46.0361 106.366H46.0442V104.313C46.0442 104.313 44.0809 103.579 41.7944 105.34C40.2265 106.001 39.7692 104.313 38.1359 104.533C36.5027 104.753 37.0485 105.362 36.057 105.351C36.057 105.351 34.8728 105.414 34.0889 104.606C33.3049 103.799 32.3 104.188 31.6919 105.792Z" fill="white"/>
<path d="M31.9088 105.859C31.7142 106.393 31.619 106.966 31.6291 107.542L31.4035 107.29H45.4225C45.6132 107.279 45.8041 107.279 45.9948 107.29C46.0029 107.291 46.0111 107.291 46.0192 107.29L45.7936 107.542L45.8099 106.366C45.8108 106.299 45.8348 106.236 45.8769 106.189C45.9191 106.142 45.9759 106.115 46.0355 106.114H46.0436L45.818 106.366V104.313L45.9836 104.556C45.7869 104.487 45.5834 104.446 45.3777 104.432C44.8244 104.381 44.2673 104.437 43.7313 104.599C43.3757 104.704 43.0306 104.85 42.7013 105.033C42.3258 105.242 41.992 105.567 41.5816 105.678C41.0127 105.833 40.4885 105.68 39.9817 105.383C39.5302 105.118 39.0935 104.808 38.5703 104.77C38.2231 104.753 37.8758 104.801 37.5432 104.914C37.4405 104.944 37.3409 104.986 37.2458 105.038C37.2065 105.061 37.1682 105.086 37.1308 105.112C37.1118 105.126 37.0159 105.205 37.0543 105.171C36.9508 105.277 36.8391 105.372 36.7204 105.456C36.5338 105.558 36.328 105.608 36.1203 105.603C35.7148 105.614 35.3104 105.551 34.9234 105.415C34.5563 105.284 34.2176 105.069 33.9288 104.784C33.7425 104.581 33.4951 104.462 33.2346 104.451C32.5563 104.458 32.122 105.307 31.8861 105.919C31.8557 105.977 31.8062 106.018 31.7484 106.035C31.6906 106.052 31.6292 106.043 31.5775 106.01C31.527 105.975 31.4904 105.919 31.4754 105.855C31.4603 105.791 31.4679 105.723 31.4965 105.665C31.7577 104.987 32.1697 104.287 32.8201 104.028C33.0734 103.929 33.3482 103.92 33.6059 104.005C33.9047 104.103 34.1103 104.314 34.3478 104.525C34.781 104.91 35.363 105.078 35.9075 105.098C35.9551 105.1 36.0026 105.1 36.0504 105.099C36.0887 105.099 36.127 105.099 36.1653 105.098C36.2185 105.095 36.2774 105.09 36.2979 105.086C36.3388 105.078 36.3791 105.068 36.4189 105.055C36.4363 105.049 36.4536 105.042 36.4705 105.035C36.429 105.052 36.4685 105.036 36.4855 105.025C36.5127 105.007 36.5391 104.989 36.5656 104.97C36.5725 104.965 36.6118 104.932 36.5856 104.954C36.5598 104.977 36.6031 104.938 36.6104 104.931C36.7375 104.802 36.878 104.69 37.0288 104.597C37.6312 104.301 38.2974 104.206 38.947 104.324C39.2182 104.396 39.4798 104.508 39.725 104.656C40.1631 104.908 40.5902 105.245 41.1027 105.243C41.2432 105.241 41.3829 105.218 41.5181 105.176C41.7105 105.096 41.8922 104.987 42.0578 104.852C42.4239 104.608 42.8112 104.406 43.2137 104.249C43.8138 104.013 44.4466 103.898 45.0826 103.91C45.4128 103.91 45.7415 103.959 46.0602 104.055C46.0746 104.06 46.0892 104.064 46.1035 104.07C46.1506 104.085 46.192 104.117 46.2218 104.161C46.2515 104.205 46.2681 104.258 46.2692 104.313V106.366C46.2683 106.432 46.2443 106.496 46.2022 106.543C46.16 106.59 46.1031 106.617 46.0436 106.618H46.0354L46.2611 106.366L46.2448 107.543C46.2439 107.609 46.2198 107.673 46.1777 107.72C46.1356 107.767 46.0788 107.794 46.0192 107.795H33.2081C32.6163 107.795 32.0195 107.82 31.428 107.795C31.4199 107.794 31.4117 107.795 31.4035 107.795C31.3441 107.793 31.2874 107.766 31.2453 107.719C31.2033 107.672 31.1791 107.609 31.1779 107.543C31.1657 106.921 31.2663 106.302 31.4737 105.725C31.5748 105.424 32.0111 105.554 31.9088 105.859Z" fill="black"/>
<path d="M7.01547 15.2909C7.01547 15.2909 6.53357 13.533 5.85217 13.2546L7.01547 15.2909Z" fill="#FC7272"/>
<path d="M6.79773 15.3578C6.74323 15.1593 6.67563 14.9647 6.60423 14.7732C6.61973 14.8147 6.60603 14.7781 6.59853 14.7588C6.59113 14.7394 6.58363 14.7205 6.57613 14.7014C6.55783 14.6554 6.53913 14.6097 6.52003 14.5641C6.48143 14.4725 6.44063 14.3821 6.39763 14.2928C6.35393 14.2024 6.30773 14.1135 6.25803 14.027C6.23453 13.986 6.21013 13.9456 6.18503 13.9058C6.17353 13.8878 6.16193 13.8699 6.15013 13.8522C6.14633 13.8465 6.12093 13.8101 6.13813 13.8343C6.15373 13.8565 6.12833 13.8212 6.12563 13.8175C6.06713 13.7386 6.00333 13.6649 5.93483 13.597C5.89623 13.559 5.95043 13.6059 5.92003 13.5832C5.90173 13.5695 5.88403 13.555 5.86523 13.542C5.84703 13.5294 5.82823 13.5182 5.80933 13.5068C5.80243 13.5027 5.79513 13.4993 5.78813 13.4953C5.76103 13.48 5.83993 13.5178 5.79203 13.4974C5.73523 13.4781 5.68723 13.4352 5.65793 13.3775C5.62863 13.3199 5.62023 13.2518 5.63443 13.1875C5.65073 13.1233 5.68893 13.0688 5.74093 13.0359C5.79283 13.003 5.85433 12.9942 5.91193 13.0115C6.28063 13.168 6.52943 13.54 6.72213 13.9087C6.89703 14.2525 7.04373 14.6131 7.16053 14.9863C7.18593 15.0649 7.21083 15.1439 7.23283 15.2238C7.31823 15.5346 6.88283 15.6674 6.79773 15.3578Z" fill="black"/>
<path d="M25.1385 31.354L23.2728 32.5463L20.3117 34.4387L19.6267 34.8764C19.3743 35.0378 19.1467 34.6025 19.399 34.4412L21.2646 33.2489L24.2256 31.3566L24.9107 30.9188C25.1631 30.7574 25.3908 31.1927 25.1385 31.354Z" fill="black"/>
<path d="M46.7882 24.8907L46.6674 18.1664L41.5908 20.3624L41.4324 24.7771" fill="#FC7272"/>
<path d="M46.5628 24.8908L46.5218 22.6104L46.4568 18.9966L46.4419 18.1665L46.7274 18.4095L45.0127 19.1512L42.2791 20.3338L41.6508 20.6056L41.8165 20.3626L41.6775 24.2325L41.658 24.7772C41.6464 25.1005 41.1951 25.1021 41.2068 24.7772L41.3457 20.9073L41.3653 20.3626C41.3668 20.3079 41.3836 20.255 41.4133 20.2115C41.443 20.1679 41.4841 20.1358 41.5309 20.1196L43.2456 19.3778L45.9792 18.1952L46.6074 17.9235C46.6409 17.9136 46.676 17.9123 46.7099 17.9199C46.7439 17.9274 46.7759 17.9435 46.8034 17.9669C46.831 17.9904 46.8533 18.0205 46.8689 18.0551C46.8844 18.0897 46.8926 18.1278 46.893 18.1665L46.934 20.4469L46.999 24.0607L47.0139 24.8908C47.0197 25.2153 46.5686 25.2152 46.5628 24.8908Z" fill="black"/>
<path d="M42.4344 21.2579C41.9865 21.3656 41.5324 21.438 41.0755 21.4744C40.9351 21.4861 40.7939 21.4718 40.6576 21.4322C38.7167 20.8669 37.9396 18.8225 37.6884 16.652H37.5031C36.8922 16.7487 36.6603 16.5808 36.7308 16.1496C37.2841 15.4704 37.5171 15.0917 37.5778 14.6012L37.5927 14.2834C37.6248 13.0117 37.7549 11.7454 37.9814 10.4986L47.7262 10.1067C47.7262 10.1067 48.992 12.4499 48.8989 13.5291C48.7387 15.3875 47.1271 16.7184 46.682 19.1144" fill="#FC7272"/>
<path d="M42.4945 21.5002C42.1871 21.5741 41.877 21.6302 41.5649 21.6725C41.2417 21.7162 40.9182 21.763 40.5978 21.6744C40.1373 21.5455 39.7049 21.3142 39.3262 20.9945C38.5821 20.3649 38.1071 19.4487 37.8165 18.4711C37.6472 17.8784 37.5289 17.269 37.463 16.6512L37.6886 16.9032C37.3157 16.9032 36.7623 17.0526 36.5528 16.5843C36.5078 16.479 36.4877 16.3626 36.4943 16.2461C36.4929 16.1687 36.5072 16.092 36.5361 16.0217C36.6 15.9222 36.6721 15.8296 36.7516 15.7453C36.9366 15.5233 37.0968 15.277 37.2287 15.0118C37.2695 14.9231 37.3016 14.8298 37.3245 14.7334C37.3381 14.6789 37.3485 14.6235 37.3558 14.5675C37.3472 14.6391 37.3568 14.5042 37.3575 14.4886C37.372 14.1822 37.3786 13.8755 37.3955 13.5693C37.4346 12.8571 37.5054 12.1471 37.6018 11.4419C37.6481 11.1038 37.6978 10.7649 37.764 10.4309C37.7777 10.378 37.8062 10.3315 37.8454 10.2982C37.8846 10.2649 37.9323 10.2465 37.9815 10.2459L41.2734 10.1135L46.5209 9.9024L47.7264 9.854C47.7657 9.854 47.8045 9.86551 47.8386 9.88741C47.8728 9.90931 47.9012 9.94081 47.9212 9.97881C48.0872 10.2866 48.2395 10.6046 48.3847 10.9252C48.6676 11.511 48.8904 12.1305 49.0491 12.772C49.1167 13.0439 49.1396 13.3272 49.1169 13.6082C49.0776 13.9658 48.995 14.3159 48.8713 14.6487C48.6162 15.3426 48.2421 15.9668 47.8948 16.6053C47.4553 17.4136 47.0765 18.2491 46.8997 19.1806C46.8395 19.4977 46.4044 19.3635 46.4646 19.0466C46.6347 18.2264 46.9196 17.4413 47.3089 16.7203C47.6374 16.0846 48.016 15.4794 48.3091 14.8213C48.5404 14.3018 48.7459 13.6714 48.6522 13.1026C48.5517 12.4927 48.3163 11.9092 48.0736 11.3557C47.9063 10.9743 47.7278 10.597 47.5315 10.2331L47.7263 10.3579L44.4345 10.4903L39.187 10.7013L37.9815 10.7498L38.1991 10.5648C38.0901 11.1149 38.0166 11.6762 37.9561 12.2351C37.8926 12.8209 37.8484 13.4095 37.827 13.9991C37.8148 14.3334 37.8263 14.6773 37.7233 14.9966C37.5574 15.5107 37.2137 15.9289 36.8904 16.327L36.9485 16.2158C36.9433 16.2548 36.9425 16.2943 36.946 16.3334C36.9452 16.3248 36.9575 16.3618 36.9626 16.3717C36.9417 16.331 36.9869 16.3911 36.9563 16.3666C36.9686 16.377 36.9819 16.3859 36.9959 16.3931C36.9711 16.3816 37.0385 16.4074 37.0385 16.4074C37.0577 16.413 37.0772 16.4174 37.0968 16.4207C37.2943 16.428 37.492 16.4208 37.6886 16.3992C37.7479 16.4011 37.8042 16.4283 37.8462 16.4752C37.8881 16.522 37.9124 16.585 37.9142 16.6512C38.1288 18.4782 38.8014 20.5072 40.517 21.1233C40.6461 21.1758 40.7808 21.2096 40.9177 21.2239C41.0803 21.2265 41.2429 21.2148 41.404 21.1889C41.73 21.15 42.054 21.0917 42.3745 21.0142C42.6577 20.9462 42.7786 21.4319 42.4945 21.5002Z" fill="black"/>
<path d="M43.4809 16.7432C43.9538 16.3526 44.6583 14.8235 44.6817 13.9337C44.7169 12.5894 44.083 12.2518 43.2472 12.2241C42.4115 12.1964 41.4412 13.9397 41.4068 15.2499L41.3466 12.4089C41.3429 12.2022 41.3005 11.9987 41.2222 11.8114C41.1439 11.6242 41.0313 11.4573 40.8918 11.3215C40.7523 11.1857 40.5889 11.0841 40.4121 11.023C40.2353 10.962 40.049 10.943 39.8652 10.9673L38.0522 11.0023C37.8743 11.0047 37.6987 10.9561 37.5425 10.861C37.3862 10.7658 37.2544 10.6275 37.1598 10.4591C37.0652 10.2908 37.0109 10.0981 37.0021 9.89958C36.9933 9.70098 37.0304 9.50328 37.1097 9.32528L37.2589 8.98778C37.5389 8.35258 37.9676 7.81398 38.4994 7.42898C39.0313 7.04388 39.6466 6.82688 40.28 6.80088L45.1719 6.60688C45.8711 6.57988 46.565 6.75178 47.1884 7.10658C47.8118 7.46138 48.3442 7.98738 48.7356 8.63508L49.9011 10.5586C49.9011 10.5586 52.363 15.1819 46.6863 20.7928C46.253 20.7706 44.088 20.5956 43.395 19.5888C42.702 18.582 43.4809 16.7432 43.4809 16.7432Z" fill="#EA2F2F"/>
<path d="M43.3672 16.5262C43.4311 16.4615 43.4911 16.3922 43.547 16.3189C43.6281 16.2087 43.7025 16.0925 43.7697 15.9711C43.9297 15.6897 44.0681 15.3936 44.1835 15.0862C44.4004 14.5084 44.5541 13.8634 44.3928 13.2424C44.2693 12.7668 43.9249 12.5548 43.5041 12.4964C43.3118 12.4483 43.1106 12.4737 42.9327 12.5684C42.7078 12.7139 42.5126 12.9104 42.3597 13.1452C41.9317 13.7483 41.6782 14.4825 41.6326 15.2504C41.6306 15.3157 41.6059 15.3776 41.5638 15.4229C41.5217 15.4683 41.4655 15.4937 41.407 15.4937C41.3485 15.4937 41.2923 15.4683 41.2502 15.4229C41.2081 15.3776 41.1835 15.3157 41.1814 15.2504L41.1449 13.5253L41.1246 12.569C41.1362 12.2567 41.0561 11.9488 40.8965 11.6921C40.7649 11.4989 40.585 11.3537 40.3795 11.2748C40.208 11.2188 40.0284 11.2002 39.8506 11.22C39.602 11.2325 39.3519 11.2296 39.103 11.2344L38.1611 11.2526C37.8084 11.2781 37.4608 11.1488 37.1922 10.8922C37.0183 10.7146 36.8918 10.4868 36.8266 10.2339C36.7614 9.981 36.7601 9.7128 36.8228 9.4592C36.8795 9.2743 36.951 9.0954 37.0363 8.9248C37.1323 8.7031 37.2449 8.4909 37.373 8.2905C37.6869 7.8062 38.0895 7.4019 38.5539 7.1045C39.0184 6.807 39.5341 6.6232 40.0669 6.5652C40.4464 6.5241 40.8326 6.5275 41.2133 6.5124L43.271 6.4308L44.9523 6.3641C45.6608 6.3174 46.3696 6.4481 47.0271 6.7466C47.8424 7.151 48.5341 7.813 49.0169 8.651L50.0391 10.3371C50.3281 10.8151 50.472 11.4287 50.562 11.9886C50.809 13.5426 50.543 15.1238 49.9566 16.5472C49.4975 17.6222 48.8986 18.6155 48.1794 19.4948C47.9615 19.7683 47.7354 20.0332 47.5011 20.2896C47.3833 20.4191 47.2637 20.5465 47.1424 20.6719C47.0228 20.7955 46.8593 21.0373 46.6865 21.0453C46.4139 21.0425 46.142 21.0138 45.8738 20.9595C45.0517 20.8364 44.1423 20.6354 43.4798 20.041C42.746 19.3826 42.8089 18.2369 43.0505 17.3236C43.1129 17.0816 43.1917 16.8452 43.2863 16.6166C43.4099 16.3234 43.799 16.5789 43.6759 16.871C43.6678 16.8901 43.6602 16.9096 43.6527 16.929C43.6299 16.987 43.6688 16.8815 43.6431 16.9545C43.6292 16.9941 43.6148 17.0336 43.6014 17.0734C43.5364 17.2646 43.4814 17.4599 43.4365 17.6582C43.3273 18.1431 43.2617 18.7046 43.4403 19.1798C43.5982 19.6 43.9715 19.8488 44.3312 20.0196C44.758 20.2099 45.2032 20.3436 45.6579 20.4178C45.9983 20.4816 46.3418 20.5228 46.6865 20.5413L46.527 20.6151C47.895 19.2586 49.1524 17.6335 49.7898 15.69C50.0041 15.0505 50.1381 14.3813 50.1891 13.7011C50.2091 13.4165 50.2121 13.1308 50.1991 12.8457C50.1931 12.7194 50.1841 12.5933 50.1721 12.4676C50.1691 12.4404 50.1661 12.4133 50.1631 12.3863C50.1611 12.371 50.1601 12.3557 50.1581 12.3405C50.1591 12.3501 50.1641 12.3892 50.1581 12.3405C50.1501 12.2822 50.1421 12.2231 50.1331 12.165C50.0791 11.8001 49.9925 11.442 49.8757 11.0959C49.8655 11.0663 49.8551 11.0369 49.8446 11.0075C49.84 10.9947 49.8351 10.982 49.8305 10.9692C49.822 10.9453 49.8536 11.0271 49.832 10.9732C49.8137 10.9279 49.796 10.8823 49.7767 10.8374C49.7562 10.7896 49.7356 10.7408 49.7112 10.6952C49.5397 10.3756 49.335 10.0731 49.148 9.7646C48.8922 9.3424 48.6528 8.8931 48.3654 8.4958C47.7957 7.7067 47.0004 7.1601 46.113 6.9478C45.69 6.8639 45.2594 6.8387 44.8309 6.873L41.635 6.9997L40.4131 7.0482C39.8464 7.0573 39.2903 7.2211 38.7933 7.5252C38.4222 7.7604 38.095 8.073 37.8296 8.4461C37.6285 8.7489 37.4575 9.0751 37.3196 9.4192C37.2518 9.5623 37.2194 9.723 37.2259 9.8848C37.2324 10.0466 37.2774 10.2034 37.3565 10.3392C37.4355 10.4749 37.5456 10.5846 37.6753 10.6568C37.8051 10.729 37.9497 10.7612 38.0944 10.7499C38.5939 10.7418 39.0934 10.7306 39.593 10.721C39.7947 10.7049 39.9971 10.7039 40.199 10.7178C40.4088 10.7457 40.6114 10.821 40.7944 10.939C40.9774 11.0571 41.137 11.2154 41.2635 11.4044C41.5852 11.881 41.5728 12.4316 41.5847 12.9935L41.6244 14.8654L41.6326 15.2504H41.1814C41.224 14.4461 41.4689 13.6716 41.8882 13.016C42.2277 12.4736 42.7096 11.9359 43.3454 11.9775C43.8863 12.0128 44.4434 12.2118 44.7108 12.7825C45.0199 13.4422 44.9314 14.2505 44.7191 14.9268C44.5871 15.3489 44.416 15.7544 44.2086 16.1368C44.0518 16.452 43.8436 16.7317 43.5949 16.9615C43.5432 16.9948 43.4818 17.004 43.424 16.987C43.3662 16.9701 43.3167 16.9285 43.2863 16.8711C43.2574 16.813 43.2497 16.7447 43.2648 16.6805C43.2799 16.6162 43.3166 16.561 43.3672 16.5262Z" fill="black"/>
<path d="M42.0661 15.3308C42.1285 15.1006 42.2037 14.875 42.2913 14.6552C42.4236 14.3139 42.5915 13.9407 42.8564 13.7037C42.9349 13.625 43.0289 13.5682 43.1308 13.5379C43.2328 13.5076 43.3398 13.5046 43.4429 13.5291C43.5003 13.5474 43.549 13.5901 43.5785 13.6481C43.6079 13.7061 43.6159 13.7747 43.6005 13.8391C43.5835 13.9028 43.5452 13.9567 43.4934 13.9895C43.4417 14.0223 43.3806 14.0315 43.323 14.0151C43.3164 14.0134 43.3085 14.0122 43.3019 14.0099C43.271 13.9987 43.3266 14.0156 43.3305 14.0137C43.3167 14.015 43.3029 14.0143 43.2893 14.0117C43.2827 14.0118 43.2754 14.013 43.2688 14.0127C43.237 14.0111 43.2953 14.0099 43.2983 14.0077C43.2821 14.014 43.2654 14.0184 43.2483 14.0207C43.2419 14.0228 43.2351 14.0262 43.2286 14.0279C43.1975 14.0363 43.2505 14.019 43.253 14.0156C43.2466 14.0244 43.2236 14.0312 43.2144 14.0368C43.2015 14.0447 43.1888 14.0533 43.1764 14.0623C43.1701 14.0669 43.164 14.0718 43.1576 14.0765C43.1289 14.0975 43.1506 14.0998 43.1663 14.0683C43.1536 14.0939 43.1134 14.1196 43.0942 14.141C43.0684 14.1699 43.044 14.2002 43.0207 14.2316C43.0157 14.2383 43.0011 14.2523 42.9999 14.2604C43.0002 14.2584 43.0334 14.2096 43.0104 14.2453C42.9998 14.2619 42.9887 14.2782 42.9782 14.2949C42.9552 14.3313 42.9332 14.3685 42.9123 14.4064C42.8289 14.5588 42.7553 14.7176 42.692 14.8816C42.6834 14.8995 42.676 14.9183 42.6702 14.9376C42.6853 14.8692 42.6751 14.9246 42.6672 14.9459C42.6529 14.985 42.6389 15.0242 42.6253 15.0636C42.6032 15.1277 42.582 15.1922 42.5618 15.2571C42.5404 15.3259 42.5195 15.395 42.5012 15.4649C42.4934 15.497 42.4802 15.527 42.462 15.5532C42.4438 15.5795 42.4211 15.6015 42.3953 15.6179C42.3695 15.6344 42.3411 15.6449 42.3116 15.6491C42.2821 15.6532 42.2521 15.6508 42.2234 15.642C42.1948 15.6331 42.1681 15.6181 42.1446 15.5977C42.1212 15.5772 42.1016 15.5518 42.087 15.5229C42.0724 15.494 42.063 15.4622 42.0595 15.4293C42.0559 15.3963 42.0581 15.3628 42.0661 15.3308Z" fill="black"/>
<path d="M38.3046 12.9289C38.5008 12.7875 38.7191 12.6888 38.9481 12.638C39.4535 12.5168 39.9812 12.6086 40.4298 12.8956C40.6832 13.0539 40.456 13.4894 40.202 13.3308C39.845 13.1031 39.4245 13.0334 39.0237 13.1355C38.95 13.1555 38.8773 13.1803 38.8062 13.2098C38.7891 13.2169 38.7723 13.2248 38.7551 13.2318C38.7143 13.2487 38.7792 13.2194 38.7551 13.2318C38.7301 13.2447 38.7042 13.2575 38.6795 13.2711C38.6285 13.2981 38.5793 13.3292 38.5323 13.3641C38.4805 13.3972 38.4192 13.4063 38.3614 13.3894C38.3037 13.3725 38.2542 13.3309 38.2237 13.2737C38.1946 13.2157 38.1868 13.1474 38.2019 13.0831C38.217 13.0188 38.2538 12.9635 38.3046 12.9289Z" fill="black"/>
<path d="M39.0817 14.8115C38.8932 14.8115 38.7405 14.6399 38.7405 14.4282C38.7405 14.2164 38.8932 14.0448 39.0817 14.0448C39.2702 14.0448 39.4229 14.2164 39.4229 14.4282C39.4229 14.6399 39.2702 14.8115 39.0817 14.8115Z" fill="black"/>
<path d="M39.5353 14.4224C39.5355 14.527 39.5072 14.6293 39.4542 14.7155C39.4012 14.8018 39.3261 14.8681 39.2386 14.9057C39.1524 14.9414 39.0585 14.9469 38.9694 14.9215C38.8803 14.8961 38.8003 14.841 38.7399 14.7635C38.6913 14.7021 38.6568 14.6284 38.6392 14.5488C38.6216 14.4692 38.6216 14.386 38.639 14.3064C38.6565 14.2268 38.691 14.153 38.7395 14.0915C38.788 14.03 38.8492 13.9825 38.9177 13.9531C38.9862 13.9237 39.0601 13.9133 39.133 13.9227C39.2059 13.9322 39.2757 13.9612 39.3364 14.0073C39.3971 14.0534 39.4469 14.1153 39.4815 14.1876C39.5162 14.2598 39.5346 14.3404 39.5353 14.4224C39.5351 14.4557 39.5231 14.4876 39.502 14.5112C39.4809 14.5348 39.4524 14.5481 39.4225 14.5484C39.3928 14.5478 39.3644 14.5343 39.3434 14.5108C39.3224 14.4873 39.3103 14.4556 39.3097 14.4224C39.3094 14.4118 39.3083 14.4011 39.3081 14.3905C39.3086 14.4152 39.3097 14.3999 39.3083 14.3928C39.3049 14.3759 39.3018 14.3592 39.297 14.3428C39.2956 14.3378 39.2839 14.3069 39.2953 14.335C39.2928 14.3289 39.2903 14.3228 39.2875 14.3169C39.2792 14.2991 39.2698 14.282 39.2593 14.2657C39.2731 14.2877 39.2619 14.2692 39.2574 14.264C39.2523 14.258 39.2475 14.2517 39.2422 14.2458C39.2366 14.2396 39.2025 14.2095 39.2245 14.2268C39.2124 14.2171 39.1998 14.2082 39.1868 14.2001C39.1815 14.1969 39.1761 14.1941 39.1708 14.191C39.1519 14.1798 39.1875 14.1952 39.1602 14.1866C39.1454 14.182 39.1311 14.1769 39.1161 14.1736C39.1091 14.1721 39.089 14.1713 39.1139 14.1729C39.106 14.1724 39.0982 14.1716 39.0903 14.1714C39.0825 14.1711 39.0745 14.1712 39.0665 14.1716C39.0661 14.1716 39.0352 14.1741 39.0533 14.1721C39.0711 14.1702 39.0416 14.1747 39.0408 14.1749C39.0318 14.1771 39.0229 14.1796 39.0141 14.1825C39.0053 14.1854 38.9968 14.1889 38.9883 14.1924C38.9922 14.1908 39.0087 14.1811 38.9904 14.1918C38.9771 14.1996 38.964 14.2074 38.9514 14.2165C38.951 14.2169 38.9277 14.2363 38.9412 14.2242C38.9546 14.2122 38.9324 14.2332 38.9321 14.2335C38.919 14.247 38.9068 14.2616 38.8955 14.277C38.9103 14.2571 38.8999 14.2706 38.8972 14.2755C38.8926 14.2841 38.8874 14.2923 38.883 14.301C38.88 14.3068 38.8772 14.3126 38.8744 14.3186C38.8721 14.3238 38.8625 14.354 38.8712 14.3255C38.8661 14.3415 38.8616 14.3578 38.8579 14.3743C38.8565 14.381 38.8554 14.3878 38.8542 14.3945C38.8498 14.4194 38.8551 14.3744 38.8535 14.4079C38.8527 14.424 38.8538 14.4399 38.8538 14.456C38.854 14.4899 38.8484 14.4313 38.8545 14.4642C38.8557 14.471 38.8568 14.4778 38.8583 14.4845C38.862 14.5011 38.8665 14.5174 38.8718 14.5334C38.8627 14.5049 38.873 14.5352 38.8752 14.5402C38.8793 14.5492 38.8837 14.5579 38.8884 14.5665C38.8929 14.5732 38.897 14.5802 38.9008 14.5873C38.9076 14.6034 38.8839 14.5675 38.9023 14.5894C38.9126 14.6015 38.9223 14.6138 38.9334 14.625C38.9338 14.6254 38.9563 14.6458 38.9426 14.6341C38.9288 14.6225 38.9525 14.6414 38.9529 14.6417C38.968 14.6526 38.9837 14.6622 39.0001 14.6704C38.996 14.6684 38.9786 14.6621 38.9983 14.6689C39.007 14.6719 39.0155 14.6753 39.0243 14.6779C39.0302 14.6796 39.0362 14.6812 39.0422 14.6826C39.0432 14.6828 39.0724 14.6867 39.0546 14.6852C39.0363 14.6837 39.0673 14.6856 39.0677 14.6856C39.0756 14.686 39.0835 14.686 39.0915 14.6857C39.0994 14.6855 39.1072 14.6847 39.1151 14.6841C39.0883 14.6861 39.1155 14.6837 39.122 14.6822C39.1398 14.6778 39.1574 14.6719 39.1745 14.6647C39.1516 14.6741 39.1706 14.6667 39.1764 14.6631C39.1855 14.6574 39.1949 14.6522 39.2038 14.646C39.2088 14.6424 39.2137 14.6385 39.2187 14.635C39.2289 14.6267 39.2284 14.6273 39.2172 14.6366C39.2218 14.6324 39.2263 14.6281 39.2307 14.6237C39.2417 14.6124 39.2515 14.6001 39.2616 14.5879C39.2809 14.5643 39.2508 14.6091 39.2655 14.5817C39.2702 14.5731 39.2753 14.5649 39.2798 14.5562C39.2843 14.5475 39.2881 14.5385 39.2923 14.5295C39.303 14.5064 39.2878 14.5496 39.2946 14.5222C39.2996 14.5022 39.3047 14.483 39.3085 14.4627C39.3099 14.4551 39.3083 14.4409 39.3083 14.4651C39.3083 14.451 39.3098 14.4366 39.3097 14.4224C39.3096 14.4058 39.3124 14.3894 39.318 14.374C39.3236 14.3586 39.3319 14.3445 39.3424 14.3327C39.3528 14.3209 39.3653 14.3115 39.3791 14.3051C39.3929 14.2986 39.4076 14.2953 39.4225 14.2953C39.4374 14.2953 39.4522 14.2986 39.466 14.3051C39.4797 14.3115 39.4922 14.3209 39.5027 14.3327C39.5132 14.3445 39.5215 14.3586 39.5271 14.374C39.5327 14.3894 39.5355 14.4058 39.5353 14.4224Z" fill="black"/>
<path d="M45.1552 6.60303L36.2763 6.77513C36.2763 6.77513 34.235 11.3147 39.8894 12.0224C40.477 12.0954 41.0717 12.0127 41.6254 11.7808C42.179 11.5489 42.6759 11.1745 43.0756 10.6879L43.5356 10.1291" fill="#EA2F2F"/>
<path d="M45.1556 6.85439L42.141 6.91279L37.3728 7.00509L36.2767 7.02639L36.4715 6.90159C36.4637 6.91899 36.4554 6.93679 36.449 6.95499C36.4418 6.97549 36.4333 6.99589 36.4251 7.01599C36.4188 7.03139 36.4511 6.94279 36.432 6.99799C36.4264 7.01419 36.4203 7.03009 36.4146 7.04619C36.3527 7.22159 36.3006 7.40109 36.2586 7.58369C36.2313 7.70179 36.2082 7.82089 36.1894 7.94119C36.1849 7.96979 36.181 7.99839 36.1768 8.02709C36.1743 8.04459 36.1722 8.06209 36.17 8.07959C36.1792 8.00769 36.171 8.06979 36.1696 8.08369C36.1626 8.15399 36.1559 8.22409 36.1515 8.29469C36.1424 8.43939 36.1411 8.58459 36.1475 8.72959C36.1509 8.80329 36.157 8.87659 36.1642 8.94999C36.1706 9.01599 36.1591 8.91239 36.1644 8.95379C36.1666 8.97079 36.1687 8.98769 36.1712 9.00459C36.1779 9.04889 36.1847 9.09309 36.1927 9.13719C36.2429 9.44979 36.3493 9.74769 36.5055 10.0131C36.6896 10.3247 36.9256 10.5939 37.2006 10.8062C37.581 11.0912 37.9991 11.3078 38.4396 11.4482C39.0436 11.6636 39.6722 11.7806 40.3062 11.7958C41.0635 11.7932 41.8005 11.5216 42.4106 11.0203C42.7767 10.7207 43.0708 10.3216 43.3765 9.95019C43.5735 9.71099 43.8919 10.0681 43.6955 10.3066C43.429 10.658 43.1396 10.987 42.8297 11.2908C42.2664 11.8041 41.5888 12.1368 40.8693 12.253C40.1658 12.3626 39.4472 12.2427 38.7598 12.0646C38.2336 11.937 37.7264 11.7259 37.2537 11.4377C36.5906 11.0187 36.0542 10.379 35.8237 9.55799C35.6647 8.93919 35.6495 8.28539 35.7797 7.65819C35.8414 7.30819 35.9429 6.96839 36.0818 6.64719C36.1016 6.60909 36.13 6.57749 36.1642 6.55559C36.1984 6.53369 36.2372 6.52229 36.2766 6.52239L39.2912 6.46399L44.0594 6.37159L45.1556 6.35039C45.446 6.34479 45.4461 6.84879 45.1556 6.85439Z" fill="black"/>
<path d="M44.0645 16.3837C43.8712 16.7324 43.5896 17.0093 43.2554 17.1791C42.9211 17.3489 42.5493 17.4041 42.1869 17.3376C42.1294 17.3195 42.0806 17.2768 42.0511 17.2188C42.0216 17.1607 42.0138 17.092 42.0293 17.0276C42.0466 16.9642 42.085 16.9105 42.1367 16.8778C42.1883 16.8451 42.2492 16.8357 42.3068 16.8517C42.2781 16.8473 42.3594 16.8567 42.3682 16.8574C42.3994 16.86 42.4306 16.8615 42.4619 16.8621C42.5215 16.8633 42.5811 16.8607 42.6405 16.8544C42.6548 16.8528 42.669 16.8511 42.6833 16.8492C42.6584 16.8529 42.6593 16.8525 42.6861 16.848C42.7131 16.8422 42.7402 16.8372 42.7672 16.8306C42.8126 16.8193 42.8575 16.8058 42.9018 16.79C42.9263 16.7813 42.9506 16.7719 42.9747 16.7618C42.9865 16.7568 42.9983 16.7517 43.01 16.7465C42.985 16.7586 42.9842 16.7589 43.0077 16.7475C43.0514 16.725 43.0946 16.7017 43.1368 16.6756C43.1767 16.6509 43.2158 16.6244 43.2538 16.5961C43.2721 16.5825 43.29 16.5686 43.3078 16.5543C43.3129 16.5503 43.3645 16.5066 43.3358 16.5315C43.3072 16.5564 43.3562 16.5128 43.361 16.5083C43.3761 16.4943 43.3911 16.48 43.4058 16.4654C43.4334 16.4382 43.4602 16.4101 43.4863 16.3812C43.5287 16.3341 43.569 16.2849 43.6073 16.2335C43.6143 16.224 43.6212 16.2143 43.6282 16.2048C43.6613 16.1602 43.5992 16.2497 43.6187 16.2189C43.6289 16.2028 43.6398 16.1873 43.6499 16.1712C43.6585 16.1575 43.667 16.1436 43.6749 16.1294C43.6898 16.1008 43.7097 16.0758 43.7333 16.0558C43.7569 16.0358 43.7838 16.0212 43.8124 16.0128C43.8411 16.0044 43.871 16.0024 43.9003 16.0069C43.9297 16.0114 43.9579 16.0223 43.9835 16.039C44.0091 16.0557 44.0315 16.0778 44.0494 16.1042C44.0673 16.1306 44.0804 16.1606 44.0879 16.1926C44.0954 16.2246 44.0972 16.258 44.0932 16.2908C44.0892 16.3236 44.0794 16.3552 44.0645 16.3837Z" fill="black"/>
<path d="M39.1827 17.7162C39.009 18.0414 38.7307 18.2802 38.4046 18.3838C38.2414 18.4278 38.0715 18.4308 37.9071 18.3926C37.8496 18.3745 37.8008 18.3318 37.7713 18.2738C37.7418 18.2158 37.734 18.1471 37.7496 18.0826C37.7668 18.0191 37.8052 17.9654 37.8568 17.9326C37.9085 17.8999 37.9695 17.8906 38.0271 17.9066C38.0367 17.9088 38.0464 17.9108 38.0561 17.9126C38.081 17.9169 38.0753 17.9161 38.039 17.9104C38.0577 17.91 38.0764 17.9118 38.0948 17.9158C38.1304 17.918 38.1662 17.9176 38.2018 17.9147C38.2236 17.9129 38.2729 17.8946 38.2055 17.9157C38.2213 17.9107 38.2386 17.9095 38.2547 17.9057C38.2864 17.8981 38.3176 17.8885 38.3483 17.8769C38.3633 17.8713 38.3779 17.8649 38.3927 17.8588C38.3387 17.8872 38.4298 17.8433 38.3927 17.8588C38.4198 17.8445 38.4457 17.8283 38.4716 17.8112C38.4965 17.7948 38.5208 17.7773 38.5445 17.7586C38.5559 17.7495 38.5669 17.7399 38.5783 17.7308C38.516 17.7805 38.5588 17.7475 38.5725 17.7347C38.6412 17.6689 38.7043 17.5962 38.761 17.5174C38.782 17.489 38.7196 17.5792 38.7444 17.5411C38.7487 17.5347 38.753 17.5282 38.7573 17.5217C38.764 17.5112 38.7707 17.5006 38.7771 17.4899C38.7826 17.4807 38.7881 17.4714 38.7931 17.4619C38.808 17.4332 38.8278 17.408 38.8514 17.3879C38.8751 17.3677 38.902 17.3529 38.9307 17.3445C38.9595 17.336 38.9894 17.3339 39.0189 17.3384C39.0483 17.3428 39.0767 17.3538 39.1023 17.3705C39.128 17.3873 39.1504 17.4095 39.1684 17.436C39.1863 17.4624 39.1994 17.4926 39.2069 17.5247C39.2143 17.5569 39.2161 17.5903 39.2119 17.6232C39.2078 17.6561 39.1979 17.6876 39.1827 17.7162Z" fill="black"/>
<path d="M48.9538 11.286C48.8472 10.6614 48.9163 10.0152 49.1516 9.43622C49.3869 8.85722 49.7769 8.37372 50.268 8.05223L61.39 0.801025L62.291 4.34303L60.94 5.86102L62.291 6.67063L62.921 9.09933L60.129 10.0101L63.282 11.1233L64.543 15.7785L51.264 13.7545C50.696 13.6645 50.168 13.3779 49.7536 12.9352C49.3392 12.4924 49.0595 11.9156 48.9538 11.286Z" fill="#EA2F2F"/>
<path d="M48.7366 11.353C48.6379 10.7778 48.6754 10.1837 48.8454 9.62975C49.0155 9.07575 49.3121 8.58095 49.706 8.19435C49.9281 7.99345 50.1661 7.81565 50.4171 7.66325L52.7311 6.15455L56.2531 3.85835L59.5671 1.69815C60.1281 1.33255 60.6811 0.944149 61.2531 0.599049C61.2611 0.594149 61.2691 0.588649 61.2771 0.583449C61.3071 0.564549 61.3401 0.553449 61.3741 0.550949C61.4091 0.548449 61.4431 0.554749 61.4751 0.569249C61.5071 0.583749 61.5351 0.60605 61.5591 0.63465C61.5821 0.66315 61.5991 0.697149 61.6081 0.734049L62.3951 3.82905L62.5091 4.27605C62.5191 4.31905 62.5191 4.36435 62.5091 4.40735C62.4991 4.45035 62.4791 4.48965 62.4511 4.52125L61.1001 6.03925L61.0541 5.64345L61.7041 6.03305C61.9351 6.17115 62.1841 6.29325 62.4041 6.45215C62.4401 6.48345 62.4701 6.52245 62.4931 6.56695C62.5161 6.61145 62.5311 6.66055 62.5371 6.71145L62.6391 7.10515L62.9421 8.27115L63.1391 9.03245C63.1541 9.09685 63.1461 9.16525 63.1171 9.22305C63.0871 9.28095 63.0391 9.32375 62.9821 9.34245L60.5411 10.1386L60.1901 10.2532V9.76725L63.2821 10.8592C63.3301 10.8688 63.3761 10.8919 63.4141 10.9265C63.4521 10.9611 63.4811 11.0058 63.5001 11.0567C63.5121 11.0934 63.5201 11.1321 63.5301 11.1694L63.7191 11.8665L64.3361 14.1439L64.7611 15.7115C64.8161 15.9153 64.6431 16.0459 64.4831 16.0215L62.8271 15.7691L59.0171 15.1883L54.7501 14.5379L51.7241 14.0767C51.5521 14.0505 51.3791 14.0257 51.2071 13.9979C50.7351 13.9181 50.2861 13.7121 49.9003 13.3973C49.5142 13.0826 49.2019 12.6685 48.9898 12.1901C48.8734 11.9244 48.7883 11.643 48.7366 11.353C48.6807 11.0362 49.1155 10.9006 49.1717 11.219C49.2643 11.7661 49.4984 12.271 49.8449 12.6712C50.1911 13.0714 50.6351 13.3495 51.1221 13.4711C51.3131 13.5176 51.5101 13.5398 51.7031 13.5693L54.5141 13.9977L58.6951 14.6349L62.5981 15.2298L63.9361 15.4338C64.1461 15.4658 64.3661 15.4807 64.5741 15.5309C64.5831 15.5332 64.5931 15.5339 64.6031 15.5354L64.3251 15.8454L63.2221 11.7731L63.0641 11.1902L63.2221 11.3662L60.4671 10.3935L60.0701 10.253C60.0231 10.2372 59.9821 10.205 59.9531 10.1611C59.9241 10.1174 59.9091 10.0645 59.9091 10.01C59.9091 9.95565 59.9241 9.90275 59.9531 9.85895C59.9821 9.81525 60.0231 9.78305 60.0701 9.76705L62.5101 8.97095L62.8621 8.85635L62.7041 9.16625L62.0741 6.73755L62.1771 6.88815L60.8261 6.07855C60.7971 6.05875 60.7721 6.03175 60.7531 5.99965C60.7341 5.96745 60.7221 5.93105 60.7181 5.89295C60.7131 5.85485 60.7171 5.81615 60.7281 5.77975C60.7391 5.74335 60.7571 5.71015 60.7811 5.68275L62.1321 4.16475L62.0741 4.40995L61.2871 1.31495L61.1731 0.867949L61.5041 1.01855L60.1521 1.90005L57.0141 3.94575L53.4791 6.25055L50.9021 7.93095C50.7331 8.04075 50.5651 8.15005 50.3971 8.26035C49.9441 8.55195 49.5833 8.99285 49.364 9.52265C49.1446 10.0524 49.0775 10.6449 49.1717 11.219C49.2255 11.536 48.7907 11.6718 48.7366 11.353Z" fill="black"/>
<path d="M39.9396 24.8908H48.9038C48.8188 24.2394 48.527 23.6438 48.0817 23.2126C47.6363 22.7815 47.0671 22.5434 46.4778 22.5419H44.6675C44.2835 22.5419 43.905 22.6431 43.5627 22.8372L39.9396 24.8908Z" fill="white"/>
<path d="M50.4671 50.6171C50.7141 51.8623 50.8641 53.129 50.9171 54.403C51.0591 57.0435 50.8781 59.7577 50.1411 62.2831C49.6813 63.9002 48.9517 65.4055 47.9907 66.7193L48.0568 66.5412C48.0261 68.4981 48.0109 70.4553 48.002 72.4125C47.9925 74.5008 47.9898 76.5889 47.9939 78.6779C47.9966 80.5899 48.0031 82.5009 48.0132 84.4129C48.0205 85.8409 48.0296 87.2689 48.0405 88.6969C48.0453 89.3309 48.0782 89.9719 48.0565 90.6059C48.0562 90.6139 48.0566 90.6229 48.0567 90.6309C48.0599 90.9559 47.6087 90.9559 47.6055 90.6309C47.5914 89.1729 47.5804 87.7159 47.5724 86.2579C47.5522 82.9919 47.5418 79.7249 47.5414 76.4589C47.542 74.65 47.5477 72.841 47.5583 71.032C47.5638 70.1626 47.5713 69.2933 47.5806 68.4239C47.5849 68.0285 47.5898 67.6332 47.5952 67.2378C47.598 67.0384 47.6009 66.8389 47.604 66.6395C47.601 66.5813 47.6084 66.5232 47.6255 66.4682C47.6427 66.4133 47.6694 66.3626 47.7041 66.3192C47.7679 66.2311 47.8323 66.1437 47.8943 66.054C49.7285 63.4035 50.4161 59.9894 50.5001 56.6974C50.5641 54.7314 50.4131 52.7641 50.0501 50.8391C50.0441 50.8097 50.0381 50.7803 50.0321 50.751C49.9648 50.4356 50.4001 50.3012 50.4671 50.6171Z" fill="black"/>
<path d="M42.7529 25.0114L38.1819 24.9976C37.9826 24.997 37.7832 24.9956 37.5839 24.9959C36.7431 24.9931 35.9114 25.1899 35.1439 25.5732C34.7541 25.7705 34.3771 26.0044 33.9968 26.223L29.0852 29.0467C28.0912 29.6182 27.0864 30.1713 26.1017 30.7628C24.7545 31.572 23.4198 32.4082 22.0791 33.2308L21.9501 33.31C21.9201 33.3287 21.8867 33.3396 21.8524 33.3419C21.8182 33.3443 21.7838 33.338 21.752 33.3235C21.7202 33.3091 21.6917 33.2868 21.6686 33.2584C21.6455 33.23 21.6285 33.1961 21.6187 33.1594L20.1693 28.7232L19.4799 26.6129C19.0699 25.3462 18.5335 24.1351 17.8808 23.0026C16.9983 21.4806 15.9036 20.1794 14.6761 19.0008L14.9495 19.0402L13.0378 20.3384L10.0088 22.3954L9.31183 22.8687L9.41553 22.7181L8.99423 24.8108L8.72333 26.1566C8.65023 26.4761 8.59393 26.8002 8.55473 27.1271C8.46323 28.2225 8.69463 29.3212 9.21393 30.256L9.95433 31.6541L12.6155 36.6796L14.6923 40.6015C15.5473 42.1908 16.8564 43.4124 18.4086 44.0696C19.9608 44.7267 21.6659 44.7812 23.2492 44.2242C23.8826 44.0016 24.4691 43.6606 25.064 43.3371C26.3176 42.6553 27.5776 41.9864 28.8255 41.2914C29.6554 40.8292 30.4779 40.3499 31.304 39.8793L36.1326 37.1281L39.5141 35.2015L39.6885 35.1022C39.9466 34.9551 40.1752 35.3898 39.9162 35.5374L36.6181 37.4165L31.0034 40.6154C30.1593 41.0963 29.3179 41.5826 28.466 42.0459L25.7085 43.5456C24.9878 43.9375 24.2695 44.3734 23.5083 44.6595C22.0241 45.2018 20.4294 45.2415 18.925 44.7735C17.4207 44.3055 16.074 43.3508 15.0544 42.0296C14.6801 41.5166 14.3463 40.9684 14.0567 40.3911L12.7901 37.9994L9.61623 32.0059L8.78073 30.4281C8.13413 29.2191 7.93013 27.7782 8.21123 26.4054C8.41213 25.403 8.61393 24.4007 8.81653 23.3987L8.93813 22.7942C8.94563 22.6791 8.98023 22.5683 9.03843 22.4729C9.18063 22.3467 9.33513 22.239 9.49903 22.1518L14.3229 18.8759L14.7218 18.6051C14.7651 18.5781 14.8151 18.5673 14.8643 18.5744C14.9135 18.5815 14.9594 18.6061 14.9952 18.6445C16.0845 19.6683 17.0574 20.8374 17.8922 22.1256C18.7216 23.4367 19.3904 24.8657 19.8809 26.3747C20.404 27.973 20.9263 29.5716 21.4478 31.1706L22.0538 33.0254L21.7224 32.8748L25.6633 30.4569C26.5319 29.9241 27.4236 29.4359 28.3047 28.9294L33.3751 26.0144C33.7876 25.7773 34.2001 25.5401 34.6125 25.303C35.5889 24.7522 36.6702 24.4741 37.7639 24.4924L42.6154 24.507L42.7529 24.5074C43.0432 24.5083 43.0437 25.0123 42.7529 25.0114Z" fill="black"/>
<path d="M83.7001 21.6503V104.853H69.5201L67.0671 93.654H66.0711C64.2821 96.51 62.0081 98.89 59.2491 100.794C56.4901 102.648 53.4241 104.026 50.0511 104.928C46.6787 105.88 43.1273 106.356 39.3971 106.356C33.0097 106.356 27.5421 105.304 22.9943 103.199C18.4976 101.045 15.0484 97.738 12.6467 93.278C10.2451 88.819 9.04419 83.056 9.04419 75.991V21.6503H27.1333V72.6842C27.1333 79.148 28.4619 83.983 31.119 87.19C33.8273 90.397 38.0174 92 43.6894 92C49.157 92 53.5001 90.898 56.7201 88.693C59.9391 86.489 62.2131 83.232 63.5411 78.923C64.9211 74.6133 65.6111 69.327 65.6111 63.0637V21.6503H83.7001Z" fill="#DAD4C5"/>
<path d="M60.089 36.0925C59.836 37.0445 59.627 38.0102 59.462 38.9859L63.027 40.0553L64.041 40.3596L59.964 58.0795L66.222 59.7809L71.59 42.5504C72.43 38.8341 70.64 34.9598 67.537 33.3636L65.466 32.4874L61.773 31.348C61.072 32.8633 60.508 34.4526 60.089 36.0925Z" fill="#A8542A"/>
<path d="M60.3059 36.1592C60.0559 37.1119 59.844 38.0767 59.68 39.0526L59.522 38.7426C60.711 39.0992 61.8989 39.4557 63.0879 39.8123L64.1009 40.1163C64.1589 40.135 64.207 40.1778 64.2359 40.2357C64.266 40.2935 64.274 40.3619 64.259 40.4263L63.8499 42.2014L62.8779 46.4296L61.702 51.5391L60.6849 55.9579L60.3479 57.4237C60.2949 57.6513 60.259 57.8954 60.188 58.1169C60.185 58.1263 60.1839 58.1365 60.1809 58.1461L60.024 57.8361L62.1399 58.4116L65.512 59.3281L66.2819 59.5375L66.0039 59.7136L66.3769 58.5182L67.315 55.5069L68.5549 51.5264L69.8189 47.4705L70.841 44.1879C71.012 43.6389 71.1889 43.0915 71.3539 42.5406C71.5149 41.9354 71.5879 41.3055 71.5709 40.6746C71.5679 39.6519 71.3799 38.6404 71.0189 37.7006C70.6509 36.7466 70.1219 35.8811 69.4599 35.1518C69.1289 34.787 68.7679 34.4595 68.3799 34.1739C68.1809 34.0279 67.9759 33.893 67.7649 33.7691C67.6649 33.7104 67.5639 33.6527 67.4619 33.6008C67.4929 33.6168 67.451 33.5955 67.441 33.591C66.942 33.3689 66.4369 33.1661 65.9349 32.9538C65.6829 32.8474 65.438 32.74 65.179 32.6601L61.984 31.6743L61.7119 31.5907L61.967 31.4748C61.274 32.9699 60.7169 34.5393 60.3059 36.1592C60.2239 36.4695 59.788 36.3374 59.871 36.0252C60.294 34.3636 60.866 32.7539 61.578 31.2204C61.603 31.1729 61.642 31.1359 61.688 31.115C61.734 31.0941 61.784 31.0904 61.832 31.1046L64.6859 31.9848C64.9719 32.073 65.2669 32.1453 65.5479 32.2533C66.0509 32.447 66.5459 32.6756 67.0439 32.8862C67.2239 32.9626 67.4059 33.0361 67.5849 33.1154C67.9699 33.2962 68.336 33.5225 68.677 33.7904C69.474 34.3911 70.1619 35.1528 70.7079 36.0363C71.7979 37.7922 72.23 39.954 71.914 42.061C71.811 42.6009 71.6679 43.1305 71.4879 43.6443L70.5749 46.5723L69.3379 50.5447L68.0589 54.6487L67.01 58.0162L66.4639 59.7684L66.439 59.8475C66.422 59.9111 66.384 59.9648 66.332 59.9976C66.281 60.0304 66.22 60.0397 66.162 60.0235L64.0449 59.4481L60.674 58.5315L59.9039 58.3221C59.8469 58.3035 59.7979 58.2607 59.7689 58.2028C59.7389 58.1449 59.731 58.0765 59.746 58.0121L60.1549 56.237L61.1279 52.0088L62.303 46.8993L63.3199 42.4805L63.6579 41.0147C63.7099 40.7871 63.746 40.543 63.817 40.3215C63.82 40.3122 63.8219 40.3019 63.8239 40.2923L63.981 40.6023L60.096 39.4368L59.402 39.2286C59.345 39.2095 59.2969 39.1666 59.2679 39.1089C59.2389 39.0512 59.23 38.983 59.245 38.9186C59.409 37.9428 59.621 36.9778 59.871 36.0252C59.953 35.7145 60.3879 35.8469 60.3059 36.1592Z" fill="black"/>
<path d="M60.622 55.2595L60.299 56.6762C60.08 57.6355 59.766 58.5644 59.363 59.4458C59.125 60.0052 58.853 60.5465 58.551 61.0662C57.175 63.5651 57.771 64.7738 62.453 66.1965C62.607 66.2397 62.761 66.2832 62.913 66.3264C63.266 66.4252 63.633 66.437 63.99 66.3608C64.348 66.2846 64.686 66.1223 64.981 65.8852C65.276 65.6481 65.521 65.342 65.7 64.9881C65.878 64.6342 65.985 64.2411 66.014 63.8362L66.348 59.2818L67.065 55.713" fill="#FC7272"/>
<path d="M60.839 55.3265C60.629 56.2483 60.441 57.1806 60.145 58.0742C59.911 58.7525 59.642 59.415 59.339 60.0584C59.126 60.5257 58.863 60.9601 58.629 61.413C58.441 61.75 58.296 62.1137 58.195 62.4943C58.154 62.6423 58.131 62.7961 58.129 62.9512C58.127 63.0266 58.129 63.1021 58.135 63.1773C58.136 63.1887 58.145 63.256 58.136 63.1905C58.138 63.2036 58.139 63.2172 58.142 63.2302C58.15 63.2761 58.158 63.3219 58.169 63.3673C58.199 63.5071 58.252 63.6391 58.327 63.7558C58.404 63.8858 58.495 64.0043 58.598 64.1085C58.903 64.407 59.246 64.6528 59.616 64.8378C60.144 65.1135 60.689 65.3474 61.246 65.5377C61.598 65.6635 61.952 65.7797 62.307 65.89C62.647 66.0161 62.997 66.1044 63.352 66.1537C63.923 66.1943 64.487 65.9959 64.934 65.5972C65.381 65.1986 65.68 64.6281 65.771 63.9972C65.8 63.791 65.807 63.5784 65.822 63.3706L65.91 62.1646L66.099 59.5956C66.144 59.1566 66.216 58.7217 66.315 58.2941L66.815 55.8098L66.848 55.6459C66.911 55.3296 67.346 55.4635 67.283 55.7799L66.867 57.8467L66.621 59.0726C66.609 59.1615 66.591 59.2494 66.568 59.3357C66.552 59.3824 66.571 59.2467 66.572 59.2925C66.572 59.32 66.57 59.3474 66.566 59.3746C66.458 60.8569 66.356 62.3399 66.24 63.8215C66.195 64.4695 65.969 65.0852 65.593 65.5811C65.217 66.0771 64.71 66.428 64.146 66.584C63.445 66.7663 62.786 66.5639 62.111 66.3524C61.437 66.1483 60.773 65.9063 60.121 65.6275C59.331 65.2807 58.417 64.8409 57.938 64.0101C57.569 63.3714 57.644 62.6097 57.892 61.9367C58.096 61.4335 58.334 60.9484 58.604 60.4858C58.819 60.0889 59.005 59.6792 59.192 59.2656C59.558 58.4544 59.847 57.6026 60.054 56.7242C60.145 56.34 60.23 55.9541 60.318 55.569L60.404 55.1924C60.476 54.8783 60.911 55.0115 60.839 55.3265Z" fill="black"/>
<path d="M60.536 54.7856L60.085 57.5505L66.348 59.2243L66.988 56.8398" fill="white"/>
<path d="M60.536 54.7856L60.085 57.5505L66.348 59.2243L66.988 56.8398" fill="white"/>
<path d="M60.754 54.8526L60.359 57.2711L60.303 57.6176L60.145 57.3076L62.264 57.8737L65.637 58.7753L66.408 58.9814L66.131 59.1574L66.77 56.7729C66.854 56.463 67.289 56.595 67.206 56.9069L66.566 59.2914C66.549 59.3551 66.511 59.409 66.459 59.4418C66.407 59.4746 66.346 59.4838 66.289 59.4674L64.17 58.9013L60.796 57.9997L60.025 57.7936C59.968 57.7746 59.92 57.7317 59.891 57.674C59.862 57.6162 59.853 57.548 59.868 57.4836L60.262 55.0652L60.319 54.7187C60.371 54.4001 60.806 54.535 60.754 54.8526Z" fill="black"/>
<path d="M45.1241 34.7054L59.4621 38.9858L64.0631 40.3415L61.5721 46.8792C60.5141 49.656 60.1101 52.689 60.3981 55.6895L60.4391 56.1187L66.8781 57.6809L69.8211 55.4571C70.7761 54.7346 71.4461 53.6313 71.6951 52.3738L74.1181 40.178C74.4481 38.1252 74.1001 36.0082 73.1381 34.2208C72.1751 32.4333 70.6651 31.0973 68.8861 30.4612L64.0371 28.7426L53.9371 25.3931C52.8881 25.0452 51.8001 24.8686 50.7061 24.8685H44.8638" fill="white"/>
<path d="M45.1842 34.4622L47.5644 35.1727L52.694 36.704L57.643 38.1814C58.311 38.3809 58.979 38.5825 59.648 38.7796L63.997 40.0611L64.123 40.0982C64.156 40.1092 64.186 40.1283 64.211 40.1541C64.237 40.1799 64.257 40.2117 64.27 40.2472C64.282 40.2827 64.288 40.3211 64.286 40.3593C64.284 40.3976 64.274 40.4349 64.258 40.4684L62.677 44.6176L61.856 46.7712C61.404 47.9401 61.061 49.1579 60.832 50.4053C60.643 51.4684 60.543 52.5491 60.535 53.633C60.535 54.4637 60.578 55.2936 60.665 56.1185L60.5 55.8755L62.676 56.4035L66.143 57.2447L66.938 57.4376L66.765 57.463L68.69 56.0079L69.631 55.297C70.585 54.6017 71.252 53.5118 71.486 52.2671C71.52 52.0938 71.555 51.9204 71.589 51.747L72.069 49.3325L72.737 45.9689L73.391 42.6755L73.828 40.4732C74.239 38.4401 73.953 36.3088 73.026 34.4999C72.099 32.691 70.599 31.3358 68.821 30.702C68.159 30.4657 67.496 30.2309 66.833 29.9975L64.223 29.0726C63.969 28.9823 63.712 28.8976 63.456 28.8126L61.253 28.0821L58.239 27.0823L55.465 26.1626L53.94 25.6568C52.848 25.2968 51.715 25.116 50.576 25.1202H44.8639C44.5736 25.1202 44.5731 24.6162 44.8639 24.6162H50.356C51.605 24.599 52.85 24.7847 54.051 25.1676C54.672 25.3734 55.293 25.5794 55.914 25.7857L59.286 26.9038L62.55 27.9863C63.064 28.1569 63.58 28.3225 64.093 28.498C64.821 28.7471 65.545 29.0123 66.27 29.2694C67.153 29.5823 68.036 29.8952 68.919 30.208C70.524 30.7727 71.927 31.8935 72.924 33.408C73.921 34.9226 74.46 36.7522 74.464 38.6321C74.466 39.4858 74.328 40.2838 74.164 41.107L73.533 44.2844L72.737 48.2945L72.098 51.5073C71.935 52.3293 71.793 53.1366 71.417 53.8836C71.039 54.6205 70.512 55.2484 69.879 55.7173L68.765 56.5587L67.356 57.6232C67.241 57.71 67.129 57.8076 67.009 57.8858C66.969 57.9087 66.925 57.9223 66.88 57.9258C66.835 57.9293 66.789 57.9227 66.747 57.9062L64.184 57.2844L60.945 56.4986L60.379 56.3615C60.332 56.3459 60.291 56.314 60.261 56.2703C60.231 56.2266 60.215 56.1734 60.214 56.1185C60.144 55.392 60.088 54.6667 60.083 53.9352C60.078 52.9669 60.142 51.9997 60.275 51.0428C60.489 49.534 60.871 48.0609 61.413 46.6581L63.215 41.9269L63.868 40.214L64.003 40.5842L59.852 39.3611C59.226 39.1766 58.601 38.9905 57.976 38.8027L53.252 37.3923L47.9633 35.8136C47.0119 35.5296 46.0522 35.268 45.1065 34.9607C45.0926 34.9562 45.0784 34.9523 45.0643 34.9481C44.7841 34.8645 44.903 34.3782 45.1842 34.4622Z" fill="black"/>
<path d="M60.608 39.0628L62.691 39.6333L66.009 40.5422L66.769 40.7504C67.051 40.8276 66.931 41.3138 66.649 41.2364L64.567 40.666L61.249 39.757L60.489 39.5488C60.207 39.4716 60.326 38.9854 60.608 39.0628Z" fill="black"/>
<path d="M66.348 59.2813L60.067 57.5779C60.067 57.5779 58.407 60.1735 58.551 61.0657C58.696 61.9579 59.778 62.2012 59.778 62.2012L61.15 61.5524C61.15 61.5524 62.449 61.4713 62.81 59.5247" fill="#FC7272"/>
<path d="M66.288 59.5251L64.1579 58.9474L60.7819 58.0318L60.007 57.8218L60.262 57.706C59.918 58.2439 59.602 58.8031 59.315 59.3809C59.11 59.7642 58.945 60.1722 58.823 60.5969C58.802 60.6761 58.785 60.7567 58.774 60.8383C58.78 60.791 58.7699 60.8886 58.7689 60.9076C58.7669 60.9483 58.768 60.989 58.772 61.0295C58.765 60.9554 58.775 61.0375 58.78 61.056C58.787 61.086 58.793 61.1166 58.803 61.1463C58.818 61.1939 58.837 61.2397 58.86 61.2832C58.911 61.3791 58.976 61.4653 59.051 61.5385C59.275 61.7548 59.5469 61.9 59.8389 61.9591L59.665 61.9846C60.118 61.7699 60.572 61.5553 61.026 61.3407C61.066 61.3204 61.109 61.307 61.153 61.301C61.193 61.2957 61.178 61.2947 61.138 61.3043C61.208 61.2876 61.276 61.2754 61.345 61.2527C61.39 61.2374 61.4349 61.2195 61.4789 61.2006C61.5189 61.184 61.4849 61.1985 61.4779 61.2021C61.4929 61.1949 61.507 61.1874 61.522 61.1797C61.554 61.1631 61.585 61.1461 61.615 61.1277C61.739 61.0556 61.853 60.9647 61.955 60.8575C62.309 60.4872 62.493 59.98 62.593 59.4585C62.654 59.1415 63.089 59.2757 63.028 59.5925C62.885 60.3405 62.556 61.0553 61.969 61.4799C61.725 61.6633 61.443 61.7752 61.15 61.8053L61.264 61.7709L60.073 62.3344C59.938 62.3983 59.819 62.4728 59.669 62.4323C59.445 62.3701 59.23 62.2716 59.031 62.1398C58.735 61.957 58.504 61.6657 58.378 61.3151C58.3 61.0467 58.3009 60.7575 58.3809 60.4897C58.5419 59.8372 58.8619 59.2243 59.1729 58.6487C59.3929 58.241 59.625 57.8392 59.873 57.4517C59.899 57.405 59.937 57.3687 59.983 57.3479C60.029 57.3271 60.079 57.3229 60.127 57.3359L62.257 57.9136L65.633 58.8292L66.4079 59.0393C66.6899 59.1157 66.57 59.6017 66.288 59.5251Z" fill="black"/>
<path d="M62.28 66.1436L60.085 65.446C57.396 64.3916 57.468 62.8504 57.468 62.8504C57.468 62.8504 57.54 60.4982 58.262 60.1738C58.984 59.8493 59.49 61.2282 59.49 61.2282C59.49 61.2282 60.645 59.9304 61.15 61.5527C61.655 60.7415 62.377 60.8226 62.882 61.9582C63.46 61.431 63.875 61.4918 64.146 61.6845C64.275 61.7813 64.376 61.9185 64.436 62.0789C64.496 62.2393 64.512 62.4158 64.483 62.5865L64.267 63.9371C64.242 64.0914 64.263 64.2506 64.326 64.3909C64.388 64.5312 64.49 64.6452 64.615 64.716" fill="#FC7272"/>
<path d="M62.22 66.3869L60.261 65.764C59.35 65.4744 58.378 64.9691 57.755 64.1452C57.488 63.7918 57.239 63.3284 57.243 62.8486C57.252 62.5258 57.28 62.204 57.329 61.8856C57.394 61.3918 57.49 60.869 57.717 60.4325C57.827 60.1969 58.01 60.0141 58.232 59.9186C58.362 59.874 58.499 59.8648 58.633 59.8916C58.767 59.9185 58.893 59.9806 59.001 60.0729C59.321 60.3569 59.565 60.7333 59.707 61.1613L59.33 61.0501C59.547 60.8025 59.817 60.6217 60.115 60.525C60.349 60.4504 60.6 60.4823 60.814 60.6139C61.101 60.801 61.259 61.1485 61.368 61.4858L60.955 61.4255C61.207 61.0306 61.573 60.7011 62.032 60.7753C62.53 60.8557 62.866 61.3648 63.077 61.8311L62.723 61.78C63.045 61.4926 63.429 61.2417 63.856 61.3052C64.04 61.3331 64.214 61.4179 64.357 61.5499C64.5 61.6819 64.608 61.8559 64.667 62.0524C64.754 62.3326 64.708 62.6081 64.663 62.8888L64.525 63.7563C64.479 64.0436 64.445 64.339 64.729 64.4984C64.988 64.6442 64.76 65.0791 64.501 64.9336C64.334 64.8329 64.2 64.6751 64.119 64.4833C64.038 64.2916 64.014 64.0759 64.05 63.8677C64.078 63.6745 64.112 63.4822 64.143 63.2895C64.216 62.8321 64.447 62.138 63.967 61.8601C63.671 61.6887 63.299 61.907 63.042 62.1364C63.017 62.163 62.988 62.183 62.955 62.195C62.923 62.2071 62.888 62.2108 62.854 62.2059C62.82 62.201 62.787 62.1876 62.759 62.1668C62.73 62.1459 62.706 62.1182 62.688 62.0855C62.544 61.7687 62.328 61.3508 61.985 61.275C61.729 61.2183 61.495 61.4447 61.345 61.6798C61.321 61.7211 61.288 61.7542 61.248 61.775C61.209 61.7957 61.165 61.8033 61.121 61.797C61.078 61.7907 61.037 61.7706 61.004 61.7392C60.97 61.7077 60.946 61.6662 60.932 61.6196C60.858 61.389 60.745 61.1242 60.541 61.0224C60.482 60.9964 60.419 60.9851 60.357 60.9892C60.285 60.9951 60.214 61.0127 60.147 61.0413C60.015 61.1023 59.891 61.1827 59.778 61.2803C59.819 61.2457 59.761 61.2957 59.748 61.3077C59.73 61.324 59.713 61.3407 59.696 61.3577C59.68 61.3736 59.664 61.3897 59.649 61.4065C59.621 61.4366 59.586 61.4581 59.548 61.469C59.51 61.4799 59.471 61.4797 59.433 61.4686C59.395 61.4574 59.36 61.4356 59.332 61.4053C59.304 61.3749 59.283 61.337 59.272 61.2952C59.313 61.4048 59.269 61.2905 59.256 61.2597C59.226 61.1879 59.193 61.1174 59.157 61.0483C59.067 60.8625 58.951 60.6937 58.814 60.5483C58.76 60.4817 58.692 60.4324 58.616 60.4052C58.54 60.3781 58.458 60.3743 58.38 60.3941C58.318 60.4218 58.261 60.4629 58.213 60.5152C58.165 60.5676 58.126 60.63 58.1 60.6989C57.902 61.0861 57.823 61.5728 57.764 62.0194C57.725 62.2917 57.702 62.5666 57.694 62.8422C57.694 62.8642 57.695 62.8861 57.695 62.9081C57.696 62.9212 57.698 62.9342 57.699 62.9472C57.7 62.9878 57.685 62.869 57.698 62.9382C57.706 62.9798 57.712 63.0214 57.722 63.0626C57.734 63.1148 57.748 63.1664 57.765 63.217C57.771 63.2335 57.802 63.318 57.777 63.2519C57.79 63.2864 57.804 63.3205 57.819 63.3542C57.883 63.4928 57.958 63.6243 58.044 63.7469C58.6 64.5045 59.476 64.9901 60.305 65.2538L62.34 65.9006C62.619 65.9892 62.5 66.476 62.22 66.3869Z" fill="black"/>
<path d="M51.6001 30.5177C52.8231 35.5001 55.1131 45.267 55.5101 50.0733C53.6891 47.8682 40.3538 48.7254 35.7458 50.0445C35.1927 47.9914 38.5492 30.0542 38.5492 30.0542L39.0537 24.8905H49.3104" fill="white"/>
<path d="M51.8181 30.4505C52.4261 32.9284 53.0081 35.4139 53.5651 37.9072C54.1781 40.6744 54.7631 43.4538 55.2291 46.2574C55.4391 47.5209 55.6291 48.7928 55.7351 50.073C55.7541 50.2923 55.4771 50.4031 55.3501 50.2512C55.3291 50.2253 55.3061 50.2004 55.2831 50.1765C55.2641 50.1567 55.1771 50.0797 55.2321 50.1258C55.1701 50.0734 55.1051 50.0251 55.0371 49.9812C54.9621 49.9321 54.8841 49.8879 54.8041 49.8471C54.7851 49.8368 54.7641 49.8271 54.7451 49.817C54.6951 49.792 54.7481 49.8181 54.7211 49.8056C54.6721 49.7836 54.6231 49.762 54.5731 49.7416C54.1211 49.5647 53.6561 49.4332 53.1831 49.3485C51.9131 49.0983 50.5801 49.0208 49.2705 48.9866C47.6802 48.9451 46.088 48.9874 44.4998 49.0811C42.9389 49.1731 41.3797 49.3157 39.8275 49.5218C38.5944 49.6707 37.3694 49.8943 36.1579 50.1915C36.0401 50.2219 35.9226 50.2538 35.8054 50.2872C35.7478 50.3037 35.6867 50.2946 35.6349 50.2617C35.5831 50.2289 35.5448 50.175 35.5279 50.1112C35.4034 49.6406 35.454 49.0891 35.4809 48.6079C35.5284 47.756 35.6223 46.9072 35.7237 46.0616C35.8554 44.9645 36.0069 43.8706 36.1677 42.7784C36.3421 41.5934 36.5261 40.4102 36.7195 39.2289C36.865 38.3321 37.0141 37.436 37.1665 36.5405L37.6738 36.2529C37.5517 36.9669 37.4314 37.6812 37.313 38.396C37.1177 39.5769 36.9294 40.7591 36.748 41.9428C36.5774 43.0636 36.4145 44.1861 36.269 45.3114C36.1527 46.2098 36.046 47.1024 35.9719 48.029C35.9126 48.5962 35.8974 49.1679 35.9264 49.7379C37.0354 49.4516 38.1581 49.236 39.2892 49.0922C40.8403 48.8695 42.3995 48.7156 43.9604 48.6111C45.5712 48.5033 47.186 48.4481 48.7998 48.473C50.1871 48.4759 51.5721 48.5842 52.9461 48.7974C53.4591 48.8765 53.9671 49.0005 54.4641 49.1682C54.734 49.2522 54.9932 49.3748 55.2348 49.5327C55.0105 47.2626 54.5721 45.0114 54.1311 42.786C53.5771 39.9914 52.9571 37.2132 52.3081 34.4443C52.0071 33.1556 51.6981 31.869 51.3821 30.5845C51.3061 30.2712 51.7411 30.1376 51.8181 30.4505Z" fill="black"/>
<path d="M40.228 24.5078H49.1923L48.9747 24.8266C48.8248 23.6988 48.0017 22.7676 46.9691 22.6722C46.7148 22.6486 46.4551 22.6628 46.2002 22.6628H45.1479C44.7406 22.6441 44.3351 22.7336 43.9648 22.9239C43.8453 22.9903 43.7268 23.0588 43.6078 23.1263L41.7571 24.1752L40.3419 24.9773C40.0835 25.1238 39.8548 24.6891 40.1141 24.5421L43.3132 22.7289C43.4533 22.6495 43.5928 22.569 43.7334 22.4908C44.1429 22.2661 44.594 22.1523 45.0502 22.1589C45.6485 22.1589 46.2499 22.1377 46.8479 22.1603C47.4708 22.188 48.066 22.4552 48.5328 22.9166C48.9996 23.3781 49.3094 24.0056 49.4098 24.6928C49.4182 24.7302 49.419 24.7692 49.4121 24.807C49.4052 24.8447 49.3908 24.8801 49.3698 24.9108C49.3489 24.9414 49.3221 24.9665 49.2914 24.984C49.2606 25.0014 49.2268 25.0109 49.1923 25.0118H40.228C39.9377 25.0118 39.9372 24.5078 40.228 24.5078Z" fill="black"/>
</svg>
