<svg width="99" height="186" viewBox="0 0 99 186" fill="none" xmlns="http://www.w3.org/2000/svg">
<path d="M49.4505 185.88C76.5994 185.88 98.608 182.532 98.608 178.402C98.608 174.272 76.5994 170.924 49.4505 170.924C22.3016 170.924 0.293091 174.272 0.293091 178.402C0.293091 182.532 22.3016 185.88 49.4505 185.88Z" fill="#232323"/>
<path d="M18.6135 91.383C17.9079 91.18 17.1715 90.921 16.5872 90.462C16.2747 90.216 15.9704 89.87 15.966 89.451C15.9619 89.062 16.2146 88.733 16.4969 88.491C16.928 88.149 17.4254 87.899 17.9578 87.758C18.7745 87.525 19.6219 87.419 20.4707 87.442C20.5796 87.443 20.6596 87.287 20.5662 87.211C19.5569 86.39 18.5376 85.509 17.7608 84.456C17.5309 84.162 17.3427 83.838 17.2016 83.492C17.1105 83.285 17.0796 83.057 17.1126 82.833C17.1297 82.755 17.1638 82.683 17.2125 82.62C17.2613 82.557 17.3234 82.506 17.3944 82.471C17.5855 82.38 17.7958 82.337 18.0071 82.346C18.6935 82.346 19.3826 82.601 19.995 82.89C21.0097 83.383 21.942 84.03 22.7591 84.808C22.7805 84.828 22.8078 84.841 22.837 84.844C22.8662 84.848 22.8957 84.841 22.9211 84.827C22.9466 84.812 22.9665 84.789 22.978 84.762C22.9894 84.735 22.9918 84.705 22.9848 84.676C22.4524 83.013 21.9815 81.283 21.8778 79.532C21.836 79.015 21.8568 78.496 21.9398 77.985C21.997 77.677 22.0988 77.327 22.2835 77.101C22.3414 77.019 22.4191 76.952 22.5095 76.908C22.6 76.863 22.7001 76.842 22.8008 76.847C22.906 76.857 23.0088 76.884 23.1049 76.929C23.2327 76.991 23.352 77.07 23.4598 77.163C24.1605 77.76 24.5853 78.682 24.9018 79.525C25.4408 80.962 25.7095 82.496 25.8304 84.021C25.8486 84.251 25.8634 84.482 25.8747 84.712C25.8758 84.744 25.8881 84.775 25.9096 84.799C25.9311 84.823 25.9604 84.838 25.9922 84.842C26.024 84.847 26.0562 84.84 26.0833 84.822C26.1104 84.805 26.1304 84.779 26.14 84.748C26.5267 83.719 26.9758 82.709 27.453 81.719C27.8668 80.847 28.3255 79.998 28.8273 79.174C29.2839 78.435 29.7864 77.701 30.4172 77.097C30.8304 76.702 31.3991 76.263 32.0103 76.348C32.5076 76.416 32.7124 76.815 32.7366 77.294C32.7723 77.999 32.5502 78.717 32.3245 79.377C32.029 80.214 31.6821 81.032 31.2857 81.826C30.7393 82.948 30.1291 84.033 29.4951 85.107C29.4843 85.125 29.4731 85.143 29.4621 85.161C29.3867 85.283 29.532 85.402 29.6468 85.346C30.0337 85.157 30.433 84.991 30.8347 84.836C31.5667 84.554 32.3368 84.291 33.1206 84.206C33.6174 84.153 34.4756 84.149 34.5529 84.816C34.5884 85.123 34.4284 85.428 34.2679 85.677C34.0531 85.995 33.8031 86.289 33.5226 86.551C33.1169 86.948 32.6781 87.31 32.2112 87.633C32.184 87.65 32.1637 87.676 32.154 87.707C32.1443 87.738 32.1459 87.771 32.1584 87.801C32.1709 87.83 32.1935 87.855 32.2223 87.869C32.251 87.884 32.284 87.887 32.3153 87.88C33.1411 87.704 33.9834 87.617 34.8278 87.622C35.3242 87.628 35.9067 87.654 36.3376 87.932C36.4172 87.979 36.4857 88.043 36.5386 88.12C36.5915 88.196 36.6276 88.283 36.6443 88.374C36.6992 88.768 36.6362 89.17 36.4633 89.528C36.2411 90.003 35.891 90.407 35.4521 90.694C35.328 90.772 35.4058 90.993 35.5561 90.941C35.7553 90.866 35.9717 90.851 36.1793 90.897C36.7164 91.028 36.7103 91.685 36.6504 92.125C36.6414 92.191 36.6653 92.278 36.7447 92.291C37.4178 92.398 38.2183 92.638 38.532 93.309C38.6045 93.465 38.6433 93.635 38.6457 93.807C38.6468 93.865 38.644 93.923 38.6374 93.981C38.641 93.938 38.628 93.896 38.6012 93.862C38.5744 93.829 38.5358 93.807 38.4934 93.801C38.451 93.796 38.408 93.806 38.3732 93.831C38.3384 93.856 38.3146 93.894 38.3066 93.936C38.2986 93.978 38.307 94.021 38.3302 94.057C38.3533 94.094 38.3894 94.119 38.431 94.129C38.4726 94.14 38.5165 94.133 38.5537 94.112C38.5909 94.091 38.6185 94.056 38.6309 94.015C38.5918 94.185 38.8521 94.257 38.8913 94.087C39.0467 93.415 38.6081 92.757 38.0474 92.431C37.6652 92.223 37.2479 92.087 36.8165 92.031L36.9108 92.197C36.9878 91.631 36.9673 90.877 36.3238 90.658C36.0488 90.576 35.7546 90.583 35.4843 90.68L35.5884 90.927C35.9888 90.666 36.324 90.316 36.5685 89.905C36.7848 89.551 36.9089 89.149 36.9293 88.735C36.9415 88.437 36.9121 88.14 36.7152 87.905C36.3752 87.5 35.7534 87.411 35.2592 87.371C34.6289 87.332 33.9963 87.356 33.3708 87.442C32.9937 87.488 32.6157 87.542 32.2435 87.619L32.3476 87.866C32.777 87.569 33.1841 87.24 33.5654 86.883C33.8735 86.604 34.1532 86.295 34.4005 85.961C34.625 85.679 34.7706 85.343 34.8225 84.987C34.8374 84.832 34.8126 84.675 34.7506 84.533C34.6885 84.39 34.5912 84.265 34.4678 84.17C34.1969 83.99 33.8761 83.901 33.5513 83.914C32.7216 83.901 31.8817 84.169 31.1094 84.447C30.5647 84.639 30.031 84.861 29.5106 85.112L29.6953 85.297C30.2767 84.355 30.8092 83.378 31.3075 82.389C31.7252 81.574 32.0994 80.738 32.4285 79.883C32.7042 79.152 32.9611 78.378 33.0049 77.592C33.0334 77.08 32.9397 76.464 32.4369 76.202C31.8802 75.912 31.2342 76.136 30.7536 76.47C30.0659 76.948 29.5332 77.637 29.0619 78.32C28.5115 79.133 28.0156 79.982 27.5775 80.861C26.9541 82.081 26.3954 83.333 25.9039 84.613C25.8957 84.634 25.8876 84.655 25.8796 84.676L26.1449 84.712C26.0614 83.054 25.8229 81.38 25.2873 79.803C24.9605 78.841 24.52 77.81 23.7788 77.088C23.3873 76.707 22.774 76.363 22.2657 76.745C22.0188 76.956 21.8442 77.239 21.7661 77.554C21.6376 78.019 21.5785 78.5 21.5909 78.983C21.5905 80.659 22.0035 82.341 22.4749 83.938C22.5548 84.209 22.638 84.479 22.7245 84.748L22.9502 84.617C22.1696 83.876 21.2879 83.249 20.3315 82.755C19.6561 82.414 18.91 82.122 18.1467 82.08C17.7001 82.056 17.1339 82.14 16.9147 82.588C16.6492 83.131 17.0048 83.8 17.2946 84.254C17.6215 84.748 17.9964 85.209 18.414 85.629C19.0313 86.259 19.6862 86.851 20.3753 87.402L20.4708 87.171C19.6566 87.152 18.8437 87.246 18.0551 87.449C17.4539 87.595 16.8882 87.86 16.3919 88.23C16.0445 88.504 15.7451 88.881 15.7012 89.336C15.6571 89.793 15.9083 90.208 16.2308 90.51C16.8587 91.099 17.7302 91.41 18.5418 91.644C18.5759 91.652 18.6118 91.646 18.6419 91.628C18.6721 91.611 18.6942 91.582 18.7035 91.548C18.7128 91.514 18.7086 91.478 18.6918 91.448C18.6751 91.417 18.6469 91.394 18.6135 91.383Z" fill="#DAD4C5"/>
<path d="M27.7528 91.478C27.6596 91.183 27.5443 90.895 27.4078 90.618C27.1903 90.167 26.9087 89.688 26.482 89.406C26.0716 89.135 25.4933 89.178 25.1908 89.593C24.8865 90.011 24.9868 90.615 25.109 91.078C25.2125 91.471 25.3579 91.851 25.5428 92.213L25.6953 92.015C25.0885 91.767 24.2774 91.662 23.6858 91.994C23.4353 92.134 23.2834 92.373 23.39 92.66C23.4889 92.925 23.7227 93.132 23.9393 93.302C24.1067 93.436 24.2839 93.557 24.4694 93.664V93.43C23.9325 93.779 23.5971 94.438 24.0003 95.017C24.0989 95.159 24.3331 95.024 24.2335 94.881C24.1362 94.754 24.085 94.598 24.0883 94.438C24.0916 94.278 24.1492 94.124 24.2516 94.002C24.349 93.869 24.4689 93.755 24.6057 93.663C24.6257 93.651 24.6423 93.634 24.6537 93.614C24.6652 93.593 24.6712 93.57 24.6712 93.547C24.6712 93.523 24.6652 93.501 24.6537 93.48C24.6423 93.46 24.6257 93.442 24.6057 93.43C24.2872 93.25 23.9381 93.017 23.7249 92.715C23.5988 92.536 23.5825 92.374 23.7835 92.25C24.1204 92.041 24.5503 92.033 24.931 92.091C25.1683 92.125 25.4006 92.187 25.6235 92.275C25.7416 92.323 25.8241 92.17 25.7761 92.077C25.6479 91.822 25.5398 91.559 25.4529 91.287C25.3156 90.869 25.1631 90.334 25.3283 89.902C25.4837 89.495 25.9646 89.404 26.3123 89.618C26.6972 89.855 26.947 90.296 27.1428 90.689C27.2826 90.966 27.3996 91.254 27.4924 91.55C27.5433 91.715 27.804 91.645 27.7528 91.478Z" fill="#DAD4C5"/>
<path d="M44.8695 178.888C33.3363 178.888 24.4941 176.831 18.343 172.718C12.192 168.605 9.11646 162.842 9.11646 155.428C9.11646 150.249 10.7568 145.856 14.0373 142.251C17.3179 138.696 22.0081 136.233 28.1079 134.862C25.8012 133.847 23.8021 132.273 22.1106 130.14C20.4703 127.957 19.6501 125.545 19.6501 122.904C19.6501 119.756 20.5472 117.064 22.3412 114.83C24.1353 112.596 26.8264 110.438 30.4145 108.356C25.955 106.477 22.3669 103.43 19.6501 99.216C16.9847 94.95 15.652 89.948 15.652 84.21C15.652 78.117 16.9591 72.9374 19.5733 68.672C22.1875 64.3558 26.0063 61.0805 31.0296 58.8463C36.053 56.5612 42.1271 55.4187 49.2521 55.4187C50.7899 55.4187 52.4558 55.5202 54.25 55.7234C56.095 55.8757 57.787 56.0788 59.324 56.3327C60.913 56.5358 62.118 56.7643 62.938 57.0182H92.386V66.9963L77.931 69.6622C79.315 71.5918 80.417 73.801 81.238 76.289C82.058 78.726 82.468 81.392 82.468 84.287C82.468 93.021 79.418 99.901 73.318 104.928C67.27 109.905 58.914 112.393 48.2525 112.393C45.6896 112.291 43.2036 112.088 40.7944 111.783C38.9491 112.901 37.5395 114.145 36.5656 115.516C35.5916 116.836 35.1047 118.334 35.1047 120.01C35.1047 121.381 35.5916 122.498 36.5656 123.361C37.5395 124.173 38.9747 124.783 40.8713 125.189C42.8191 125.595 45.177 125.798 47.945 125.798H62.631C71.96 125.798 79.085 127.753 84.006 131.663C88.9259 135.573 91.387 141.311 91.387 148.877C91.387 158.475 87.389 165.863 79.392 171.043C71.396 176.273 59.888 178.888 44.8695 178.888ZM45.5615 166.32C51.8663 166.32 57.172 165.711 61.477 164.492C65.783 163.273 69.038 161.521 71.242 159.236C73.446 157.002 74.548 154.336 74.548 151.239C74.548 148.497 73.856 146.389 72.472 144.917C71.088 143.444 69.012 142.429 66.244 141.87C63.476 141.311 60.042 141.032 55.941 141.032H42.5628C39.231 141.032 36.2836 141.54 33.7207 142.555C31.1577 143.622 29.1587 145.145 27.7234 147.126C26.3394 149.106 25.6475 151.493 25.6475 154.285C25.6475 158.145 27.3646 161.115 30.7989 163.197C34.2845 165.279 39.2054 166.32 45.5615 166.32ZM49.0983 100.663C54.378 100.663 58.299 99.241 60.862 96.397C63.425 93.503 64.707 89.441 64.707 84.21C64.707 78.523 63.374 74.258 60.708 71.4141C58.094 68.5705 54.199 67.1486 49.0214 67.1486C43.9468 67.1486 40.0768 68.5958 37.4113 71.4902C34.7971 74.385 33.49 78.676 33.49 84.363C33.49 89.491 34.7971 93.503 37.4113 96.397C40.0768 99.241 43.9725 100.663 49.0983 100.663Z" fill="#DAD4C5"/>
<path d="M34.7391 104.286C33.3253 115.807 38.4916 125.921 46.2784 126.877C54.0653 127.832 61.5239 119.267 62.9378 107.746C64.3516 96.225 59.1853 86.111 51.3984 85.155C43.6116 84.2 36.153 92.765 34.7391 104.286Z" fill="#2B2B2B" fill-opacity="0.5"/>
<path d="M47.6789 47.4736C46.8982 53.8356 55.0888 60.076 65.9733 61.4117C76.8578 62.7474 86.3139 58.6727 87.0949 52.3107C87.8759 45.9486 79.6851 39.7083 68.8006 38.3725C57.9162 37.0368 48.4597 41.1115 47.6789 47.4736Z" fill="#2B2B2B" fill-opacity="0.3"/>
<path d="M91.929 0.463257H40.1096C39.1293 0.463257 38.3345 1.25796 38.3345 2.23836V39.4075C38.3345 40.3879 39.1293 41.1826 40.1096 41.1826H91.929C92.909 41.1826 93.704 40.3879 93.704 39.4075V2.23836C93.704 1.25796 92.909 0.463257 91.929 0.463257Z" fill="#458DC9"/>
<path d="M91.928 40.8907H40.5373C40.3999 40.8907 40.2623 40.8927 40.1248 40.8907C39.7268 40.8891 39.3455 40.7299 39.0646 40.4479C38.7837 40.1659 38.626 39.784 38.626 39.3859C38.6177 38.785 38.626 38.1833 38.626 37.5823V4.38297C38.626 3.69237 38.6235 3.00177 38.626 2.31117C38.6291 1.46547 39.2415 0.769768 40.1097 0.754668C40.2092 0.752968 40.3089 0.754668 40.4084 0.754668H90.621C91.053 0.754668 91.485 0.747668 91.917 0.754668C92.316 0.757368 92.697 0.917969 92.977 1.20137C93.257 1.48467 93.413 1.86747 93.412 2.26597C93.414 2.46027 93.412 2.65477 93.412 2.84907V38.6661C93.412 38.8879 93.413 39.1097 93.412 39.3314C93.409 40.1806 92.799 40.8722 91.928 40.8907C91.554 40.8987 91.552 41.4821 91.928 41.4741C92.479 41.4656 93.005 41.2409 93.391 40.8483C93.778 40.4558 93.995 39.9269 93.995 39.3759C93.998 39.175 93.995 38.9738 93.995 38.7729V2.82587C93.995 2.63707 93.998 2.44817 93.995 2.25947C93.993 1.70997 93.775 1.18337 93.388 0.792868C93.001 0.402368 92.477 0.179168 91.928 0.171368C91.542 0.164268 91.155 0.171368 90.769 0.171368H40.3763C40.2369 0.171368 40.0954 0.166369 39.9563 0.177869C39.432 0.223669 38.9442 0.465068 38.5897 0.853968C38.2351 1.24297 38.0399 1.75097 38.0428 2.27727C38.0383 2.92487 38.0428 3.57257 38.0428 4.22017V37.608C38.0428 38.2022 38.0333 38.7974 38.0428 39.3916C38.0465 39.9403 38.2652 40.4658 38.652 40.8551C39.0388 41.2444 39.5627 41.4666 40.1115 41.474C40.2233 41.4759 40.3354 41.474 40.4472 41.474L91.928 41.4741C92.304 41.4741 92.304 40.8907 91.928 40.8907Z" fill="black"/>
<path d="M38.3345 38.8084V26.175L50.8169 12.6848C51.2159 12.2536 51.6982 11.9078 52.2346 11.6683C52.771 11.4287 53.35 11.3005 53.938 11.2912C54.525 11.2819 55.108 11.3918 55.652 11.6143C56.196 11.8368 56.689 12.1672 57.101 12.5856L69.826 25.4945L77.991 17.3293C78.797 16.5229 79.888 16.0658 81.029 16.0567C82.169 16.0475 83.268 16.4871 84.087 17.2805L93.704 26.5945V43.8473H38.3944L38.3345 38.8084Z" fill="#389B48"/>
<path d="M38.626 38.8083V26.1748L38.5406 26.3811L39.9713 24.8349L43.3275 21.2077L47.2051 17.017L50.2003 13.7801C50.9563 12.963 51.6529 12.1285 52.7652 11.7757C53.397 11.5756 54.067 11.5319 54.719 11.6482C55.371 11.7646 55.985 12.0376 56.508 12.4437C56.755 12.6508 56.989 12.873 57.208 13.1091L59.755 15.6932L63.645 19.6395L67.409 23.4578L69.52 25.6001L69.619 25.7006C69.675 25.7543 69.749 25.7843 69.826 25.7843C69.903 25.7843 69.977 25.7543 70.032 25.7006L73.782 21.9503C75.231 20.5019 76.679 19.0535 78.127 17.6051C78.648 17.069 79.305 16.6847 80.027 16.4933C80.75 16.3019 81.511 16.3106 82.228 16.5184C83.101 16.778 83.728 17.3388 84.359 17.95L89.303 22.7387L91.957 25.309C92.445 25.7814 92.915 26.2895 93.429 26.7341C93.453 26.7548 93.474 26.7785 93.497 26.8005L93.412 26.5943V43.8472L93.703 43.5555H40.6423C39.9287 43.5555 39.1986 43.5107 38.4859 43.5555C38.4557 43.5574 38.4247 43.5555 38.3943 43.5555L38.686 43.8472L38.6336 39.4464L38.626 38.8083C38.6215 38.4333 38.0383 38.4322 38.0427 38.8083L38.0951 43.209L38.1027 43.8472C38.1038 43.9242 38.1349 43.9977 38.1894 44.0521C38.2438 44.1066 38.3173 44.1377 38.3943 44.1388H91.455C92.174 44.1388 92.894 44.1522 93.612 44.1388C93.642 44.1382 93.673 44.1388 93.703 44.1388C93.78 44.1377 93.854 44.1067 93.908 44.0522C93.963 43.9977 93.994 43.9242 93.995 43.8472V27.1844C93.995 26.9252 94.066 26.555 93.874 26.3531C92.938 25.3728 91.919 24.4601 90.946 23.5175L86.324 19.0409L84.735 17.5021C84.347 17.0929 83.914 16.73 83.443 16.4207C82.774 16.0264 82.018 15.8043 81.243 15.7743C80.467 15.7442 79.697 15.9073 79 16.2487C78.369 16.5588 77.88 17.0272 77.392 17.5155L73.467 21.4402L69.823 25.0842L69.619 25.2882H70.032L67.527 22.7473L62.359 17.5041L58.045 13.1277C57.799 12.8785 57.555 12.6274 57.308 12.38C56.696 11.7673 55.927 11.3361 55.085 11.1343C54.243 10.9324 53.362 10.9679 52.5385 11.2367C51.0545 11.7372 50.079 13.053 49.0525 14.1624L44.3317 19.2643L39.6347 24.3405L38.335 25.7451C38.2676 25.8179 38.1899 25.8883 38.1295 25.9673C38.0203 26.11 38.0427 26.2617 38.0427 26.4306V38.8083C38.0427 39.1835 38.626 39.1842 38.626 38.8083Z" fill="black"/>
<path d="M69.1329 13.1521C71.2989 13.1521 73.0549 11.3961 73.0549 9.2301C73.0549 7.0641 71.2989 5.30811 69.1329 5.30811C66.9669 5.30811 65.2109 7.0641 65.2109 9.2301C65.2109 11.3961 66.9669 13.1521 69.1329 13.1521Z" fill="#FFC41F"/>
<path d="M72.764 9.22967C72.764 9.97707 72.5319 10.7062 72.1019 11.3174C71.6719 11.9286 71.064 12.3921 70.36 12.6446C69.657 12.8972 68.8929 12.9265 68.1719 12.7284C67.4509 12.5304 66.809 12.1148 66.334 11.5383C65.858 10.9617 65.572 10.2525 65.514 9.50728C65.457 8.76208 65.631 8.01727 66.012 7.37457C66.394 6.73197 66.965 6.22277 67.646 5.91647C68.328 5.61027 69.0879 5.52197 69.8219 5.66357C70.6469 5.82938 71.39 6.27447 71.926 6.92397C72.462 7.57347 72.758 8.38767 72.764 9.22967C72.766 9.60487 73.35 9.60577 73.347 9.22967C73.35 8.13807 72.93 7.08787 72.175 6.29917C71.42 5.51037 70.39 5.04427 69.299 4.99847C68.208 4.95267 67.1419 5.33078 66.3239 6.05348C65.5059 6.77618 65 7.78747 64.911 8.87537C64.821 9.96327 65.157 11.0435 65.846 11.8897C66.536 12.7358 67.526 13.2822 68.61 13.4145C69.694 13.5467 70.7859 13.2544 71.6589 12.5989C72.5319 11.9435 73.117 10.9756 73.292 9.89818C73.327 9.67688 73.345 9.45347 73.347 9.22967C73.35 8.85417 72.766 8.85377 72.764 9.22967Z" fill="black"/>
<path d="M38.4868 107.624L34.7501 113.512L27.0282 110.519L32.5006 101.465" fill="#FC7F3A"/>
<path d="M38.2352 107.476L36.9731 109.465L34.961 112.636L34.4985 113.365L34.8279 113.231L32.209 112.216L28.0579 110.607L27.1059 110.238L27.2802 110.666L29.1366 107.595L32.0738 102.736L32.7527 101.612C32.9474 101.29 32.4431 100.997 32.249 101.318L30.3925 104.389L27.4553 109.249L26.7765 110.372C26.7548 110.41 26.7421 110.454 26.7393 110.498C26.7366 110.542 26.7438 110.587 26.7606 110.628C26.7773 110.669 26.8031 110.706 26.836 110.736C26.8689 110.765 26.9081 110.787 26.9507 110.8L29.5697 111.815L33.7206 113.425L34.6727 113.794C34.7347 113.81 34.8005 113.806 34.8599 113.782C34.9194 113.758 34.9693 113.715 35.0021 113.66L36.2642 111.671L38.2763 108.5L38.7387 107.771C38.9405 107.453 38.436 107.16 38.2352 107.476Z" fill="black"/>
<path d="M27.8586 108.344L23.7485 114.882L38.2264 124.069C38.2264 124.069 41.0819 120.114 35.9507 116.25C35.4902 115.901 35.1792 115.39 35.0803 114.82C34.9814 114.251 35.102 113.665 35.4177 113.18C35.602 112.896 35.7521 112.666 35.8739 112.481C35.9387 112.383 35.9833 112.272 36.005 112.156C36.0266 112.04 36.025 111.921 36.0002 111.806C35.9754 111.691 35.9279 111.581 35.8604 111.485C35.7929 111.388 35.7068 111.306 35.6072 111.242L34.9876 110.849L32.6938 110.82C32.1123 110.813 31.5445 110.643 31.055 110.329C30.5655 110.015 30.1739 109.57 29.9248 109.044L29.6432 108.45C29.5649 108.285 29.4437 108.144 29.2922 108.042C29.1408 107.94 28.9646 107.88 28.7822 107.869C28.5998 107.858 28.4178 107.897 28.2553 107.98C28.0929 108.064 27.9558 108.19 27.8586 108.344Z" fill="#458DC9"/>
<path d="M27.607 108.197L26.2132 110.415L24.0043 113.928L23.497 114.735C23.4592 114.802 23.449 114.881 23.4686 114.956C23.4881 115.03 23.5358 115.094 23.6016 115.134L25.0457 116.051L28.4971 118.241L32.6868 120.899L36.2955 123.189C36.8792 123.559 37.4531 123.962 38.0537 124.305C38.0625 124.31 38.0709 124.315 38.0794 124.321C38.1466 124.358 38.2256 124.368 38.3 124.349C38.3743 124.329 38.4382 124.282 38.4785 124.216C38.9687 123.535 39.2168 122.631 39.2908 121.808C39.4748 119.763 38.3461 117.933 36.8634 116.62C36.404 116.213 35.8468 115.9 35.5562 115.339C35.3259 114.886 35.2765 114.363 35.4179 113.874C35.5119 113.597 35.6474 113.334 35.8196 113.097C36.001 112.864 36.1499 112.607 36.2621 112.334C36.3341 112.083 36.3223 111.815 36.2284 111.571C36.1346 111.327 35.9639 111.121 35.7421 110.983C35.6095 110.895 35.4731 110.812 35.3386 110.727C35.2363 110.641 35.1139 110.583 34.9828 110.558C34.7543 110.542 34.5213 110.552 34.2924 110.549C33.6821 110.541 33.0579 110.572 32.4495 110.516C31.3996 110.42 30.5702 109.727 30.13 108.798C29.9759 108.473 29.8484 108.116 29.5628 107.881C29.4186 107.76 29.2502 107.672 29.0691 107.623C28.8879 107.573 28.6981 107.563 28.5127 107.593C28.3272 107.623 28.1504 107.692 27.9942 107.797C27.8379 107.901 27.7059 108.038 27.607 108.197C27.3998 108.512 27.9048 108.804 28.1107 108.492C28.1849 108.378 28.2893 108.286 28.4123 108.228C28.5353 108.17 28.6721 108.147 28.8074 108.162C28.9364 108.18 29.0587 108.23 29.1624 108.309C29.266 108.388 29.3474 108.493 29.3987 108.613C29.6673 109.155 29.8959 109.687 30.3356 110.123C30.9251 110.704 31.7045 111.053 32.5306 111.106C32.9104 111.131 33.2947 111.12 33.6751 111.125L34.9879 111.141L34.8408 111.101L35.2857 111.384C35.458 111.465 35.5989 111.6 35.6867 111.77C35.8087 112.071 35.6401 112.307 35.4809 112.55C35.2549 112.861 35.0641 113.195 34.9122 113.548C34.6804 114.191 34.711 114.9 34.9975 115.52C35.329 116.252 36.0283 116.641 36.598 117.165C37.5414 118.033 38.3327 119.106 38.6183 120.374C38.7979 121.181 38.7574 122.021 38.5012 122.806C38.4732 122.895 38.4429 122.983 38.4103 123.07C38.3964 123.106 38.382 123.143 38.3675 123.18C38.3605 123.197 38.3532 123.215 38.346 123.232C38.3419 123.242 38.3639 123.193 38.3367 123.253C38.283 123.373 38.2273 123.491 38.1652 123.606C38.1087 123.716 38.0451 123.821 37.975 123.922L38.374 123.817L36.9299 122.901L33.4784 120.711L29.2887 118.052L25.68 115.763L24.4826 115.003C24.2988 114.886 24.1162 114.745 23.9217 114.647C23.9128 114.642 23.9045 114.636 23.896 114.631L24.0007 115.03L25.3944 112.812L27.6033 109.299L28.1107 108.492C28.311 108.173 27.8065 107.88 27.607 108.197Z" fill="black"/>
<path d="M35.1062 114.637C34.9745 114.632 34.8426 114.642 34.7135 114.669C34.455 114.714 34.2106 114.819 33.9997 114.975C33.8255 115.105 33.6762 115.265 33.5588 115.448C33.5204 115.515 33.5099 115.595 33.5294 115.669C33.549 115.744 33.5971 115.808 33.6635 115.848C33.7306 115.885 33.8096 115.895 33.884 115.875C33.9584 115.856 34.0223 115.808 34.0625 115.743C34.0769 115.721 34.0915 115.698 34.1069 115.677C34.1144 115.666 34.122 115.656 34.1298 115.645C34.1035 115.679 34.1001 115.684 34.1194 115.659C34.1512 115.622 34.1828 115.586 34.2175 115.551C34.2503 115.519 34.2851 115.489 34.3203 115.459C34.3442 115.44 34.3377 115.445 34.3007 115.473C34.3095 115.467 34.3183 115.46 34.3272 115.454C34.3403 115.445 34.3536 115.435 34.3671 115.426C34.4353 115.382 34.5068 115.343 34.5811 115.31C34.6275 115.289 34.5069 115.339 34.5772 115.312C34.5944 115.306 34.6116 115.299 34.629 115.293C34.6601 115.283 34.6915 115.273 34.7232 115.264C34.7818 115.248 34.841 115.237 34.9008 115.227C34.9657 115.216 34.8286 115.235 34.874 115.23C34.8866 115.229 34.8992 115.227 34.9118 115.226C34.933 115.224 34.9541 115.222 34.9753 115.221C35.0189 115.218 35.0626 115.218 35.1062 115.22C35.1835 115.22 35.2575 115.189 35.3121 115.135C35.3667 115.08 35.3976 115.006 35.3979 114.929C35.396 114.852 35.3647 114.779 35.3104 114.725C35.2561 114.67 35.183 114.639 35.1062 114.637Z" fill="black"/>
<path d="M35.735 115.759C35.6033 115.753 35.4714 115.764 35.3423 115.791C35.0838 115.836 34.8394 115.94 34.6285 116.097C34.4544 116.227 34.305 116.387 34.1877 116.57C34.1493 116.637 34.1387 116.717 34.1583 116.791C34.1778 116.866 34.226 116.93 34.2923 116.969C34.3595 117.007 34.4385 117.017 34.5128 116.997C34.5872 116.978 34.6511 116.93 34.6913 116.865C34.7057 116.842 34.7203 116.82 34.7357 116.799C34.7432 116.788 34.7509 116.778 34.7587 116.767C34.7324 116.801 34.7289 116.806 34.7482 116.781C34.78 116.744 34.8116 116.707 34.8464 116.673C34.8792 116.64 34.914 116.61 34.9492 116.58C34.9731 116.561 34.9665 116.566 34.9295 116.595C34.9383 116.589 34.9471 116.582 34.956 116.576C34.9692 116.566 34.9825 116.557 34.996 116.548C35.0641 116.504 35.1356 116.465 35.2099 116.432C35.2563 116.41 35.1357 116.461 35.2061 116.434C35.2232 116.427 35.2405 116.421 35.2578 116.415C35.2889 116.404 35.3203 116.395 35.3521 116.386C35.4106 116.37 35.4698 116.358 35.5296 116.348C35.5945 116.337 35.4574 116.356 35.5029 116.352C35.5155 116.35 35.5281 116.349 35.5407 116.348C35.5618 116.345 35.5829 116.344 35.6041 116.343C35.6477 116.339 35.6915 116.339 35.7351 116.342C35.8123 116.342 35.8863 116.311 35.9409 116.256C35.9956 116.202 36.0264 116.128 36.0267 116.05C36.0249 115.974 35.9936 115.901 35.9393 115.846C35.885 115.792 35.8117 115.761 35.735 115.759Z" fill="black"/>
<path d="M36.6976 116.679C36.5658 116.673 36.4339 116.684 36.3049 116.711C36.0464 116.756 35.8019 116.861 35.591 117.017C35.4169 117.147 35.2676 117.307 35.1502 117.49C35.1118 117.557 35.1012 117.637 35.1208 117.711C35.1404 117.786 35.1885 117.85 35.2548 117.889C35.322 117.927 35.401 117.937 35.4754 117.917C35.5497 117.898 35.6137 117.85 35.6539 117.785C35.6683 117.762 35.6829 117.74 35.6983 117.719C35.7058 117.708 35.7134 117.698 35.7212 117.687C35.6949 117.721 35.6915 117.726 35.7108 117.701C35.7426 117.664 35.7742 117.627 35.8089 117.593C35.8417 117.56 35.8765 117.53 35.9117 117.5C35.9356 117.481 35.9291 117.486 35.8921 117.515C35.9009 117.509 35.9097 117.502 35.9186 117.496C35.9317 117.486 35.945 117.477 35.9585 117.468C36.0267 117.424 36.0982 117.385 36.1725 117.352C36.2189 117.33 36.0983 117.381 36.1686 117.354C36.1858 117.347 36.203 117.341 36.2204 117.335C36.2515 117.324 36.2829 117.315 36.3146 117.306C36.3731 117.29 36.4324 117.278 36.4922 117.268C36.5571 117.257 36.42 117.276 36.4654 117.272C36.478 117.27 36.4906 117.269 36.5032 117.268C36.5243 117.265 36.5455 117.264 36.5667 117.263C36.6103 117.26 36.654 117.259 36.6976 117.262C36.7749 117.262 36.8489 117.231 36.9035 117.176C36.9581 117.122 36.989 117.048 36.9893 116.97C36.9874 116.894 36.9561 116.821 36.9018 116.766C36.8475 116.712 36.7744 116.681 36.6976 116.679Z" fill="black"/>
<path d="M38.9206 122.345C38.8033 122.959 38.5675 123.545 38.2264 124.069L23.7485 114.882L24.3907 113.835L24.3827 113.83L25.5311 112.02C25.5311 112.02 27.8865 112.607 29.166 115.597C30.3495 117.165 31.7469 115.964 33.2416 117.185C34.7363 118.405 33.855 118.599 34.8432 119.213C34.8432 119.213 35.9812 120.012 37.2094 119.793C38.4377 119.574 39.2152 120.549 38.9206 122.345Z" fill="white"/>
<path d="M38.6395 122.268C38.5333 122.859 38.3071 123.422 37.9747 123.922L38.3738 123.817L36.9297 122.901L33.4783 120.711L29.2886 118.053L25.6799 115.763L24.4825 115.003C24.2987 114.886 24.1161 114.746 23.9216 114.647C23.9127 114.643 23.9044 114.636 23.8959 114.631L24.0006 115.03L24.6428 113.982C24.6804 113.915 24.6906 113.836 24.6711 113.761C24.6516 113.687 24.6039 113.623 24.5381 113.583L24.5301 113.578L24.6347 113.977L25.7832 112.167L25.4538 112.301C25.5032 112.314 25.5518 112.33 25.6 112.347C25.6543 112.365 25.7077 112.386 25.7613 112.407C25.773 112.411 25.7845 112.416 25.7961 112.421C25.8599 112.446 25.7348 112.394 25.8007 112.422C25.8417 112.44 25.8826 112.458 25.9231 112.477C26.359 112.681 26.7653 112.942 27.1309 113.255C27.6775 113.726 28.1401 114.287 28.4988 114.913C28.6022 115.091 28.698 115.274 28.7864 115.461C28.8321 115.578 28.8885 115.69 28.9548 115.797C29.0305 115.9 29.1142 115.997 29.205 116.087C29.4847 116.368 29.8316 116.574 30.2129 116.683C30.9065 116.881 31.6474 116.767 32.3345 117.001C32.7483 117.161 33.1208 117.413 33.425 117.736C33.5416 117.845 33.648 117.964 33.7426 118.093C33.7753 118.139 33.8064 118.187 33.8347 118.237C33.8496 118.263 33.8639 118.289 33.8775 118.316C33.8825 118.327 33.9275 118.43 33.9033 118.37C33.9702 118.535 34.0064 118.71 34.0867 118.871C34.2075 119.085 34.3807 119.266 34.5902 119.396C35.0245 119.696 35.5115 119.913 36.0257 120.034C36.2553 120.088 36.4899 120.117 36.7256 120.123C36.9599 120.126 37.1829 120.076 37.4145 120.059C37.6906 120.025 37.9692 120.098 38.1936 120.262C38.7525 120.697 38.742 121.619 38.6395 122.268C38.6213 122.342 38.6323 122.421 38.6701 122.487C38.708 122.554 38.7699 122.604 38.8431 122.626C38.9177 122.646 38.9971 122.636 39.0643 122.598C39.1314 122.56 39.1808 122.497 39.2019 122.423C39.3196 121.678 39.3393 120.814 38.888 120.166C38.7113 119.916 38.4684 119.721 38.1866 119.601C37.9048 119.481 37.5952 119.442 37.2926 119.488C36.8703 119.557 36.4386 119.537 36.0241 119.432C35.7228 119.348 35.4335 119.226 35.1631 119.068C35.0169 118.99 34.8794 118.896 34.7527 118.788C34.7122 118.752 34.6747 118.712 34.6408 118.669C34.6801 118.72 34.6192 118.629 34.6099 118.614C34.5989 118.596 34.5906 118.576 34.5813 118.557C34.6154 118.626 34.5848 118.566 34.5794 118.551C34.5662 118.511 34.5527 118.472 34.54 118.432C34.3387 117.802 33.9123 117.343 33.397 116.938C33.0448 116.656 32.6336 116.457 32.1938 116.355C31.8131 116.284 31.4277 116.241 31.0407 116.226C30.7041 116.218 30.3725 116.143 30.0655 116.004C29.8998 115.918 29.7487 115.807 29.6174 115.675C29.5432 115.607 29.4764 115.532 29.418 115.45C29.351 115.322 29.2907 115.191 29.2372 115.057C28.8847 114.335 28.4124 113.678 27.8404 113.114C27.236 112.525 26.4444 111.949 25.6089 111.739C25.5469 111.723 25.4815 111.728 25.4222 111.752C25.363 111.776 25.313 111.818 25.2795 111.873L24.1311 113.683C24.0933 113.75 24.0831 113.829 24.1026 113.903C24.1222 113.978 24.1699 114.042 24.2357 114.082L24.2437 114.087L24.1391 113.688L23.4969 114.735C23.4592 114.803 23.449 114.882 23.4686 114.956C23.4881 115.031 23.5358 115.095 23.6015 115.135L25.0456 116.051L28.497 118.241L32.6867 120.899L36.2954 123.189C36.8791 123.56 37.453 123.962 38.0537 124.305C38.0625 124.31 38.0708 124.316 38.0794 124.321C38.1466 124.359 38.2256 124.368 38.2999 124.349C38.3742 124.33 38.4382 124.282 38.4784 124.217C38.8387 123.674 39.0848 123.064 39.2019 122.423C39.278 122.056 38.7159 121.9 38.6395 122.268Z" fill="black"/>
<path d="M53.696 59.6525L52.6993 87.627L41.2797 111.999L28.7954 105.094C28.7954 105.094 37.122 88.669 40.5133 84.101L41.1 71.1925C41.2179 68.6005 41.9956 66.0816 43.3594 63.8742L47.1045 57.8132" fill="#EA2F2F"/>
<path d="M53.404 59.6527L53.308 62.3404L53.077 68.8289L52.7956 76.73L52.5452 83.762L52.4128 87.479C52.408 87.519 52.4066 87.558 52.4086 87.598C52.4216 87.686 52.3621 87.549 52.4458 87.483C52.4 87.519 52.3667 87.652 52.3428 87.703L51.6988 89.077L49.1481 94.521L45.8226 101.618L42.7777 108.117L41.1049 111.687L41.0277 111.852L41.4268 111.747L37.2136 109.417L30.4926 105.7L28.9425 104.843L29.0472 105.242C29.3989 104.548 29.7537 103.856 30.1114 103.165C30.9791 101.482 31.8561 99.805 32.7423 98.132C33.8416 96.059 34.9599 93.995 36.0972 91.941C37.139 90.07 38.198 88.206 39.3332 86.39C39.7548 85.715 40.1863 85.045 40.6536 84.401C40.7508 84.281 40.8059 84.133 40.8104 83.979L40.8342 83.455L41.0528 78.644L41.307 73.05C41.3735 71.5887 41.4044 70.1323 41.7195 68.696C42.0841 67.0418 42.7242 65.4606 43.6129 64.0185C43.8738 63.594 44.1357 63.1701 44.3986 62.7468L47.1594 58.2788L47.3561 57.9604C47.554 57.6402 47.0496 57.3469 46.8524 57.666L44.6132 61.2901C43.6787 62.8027 42.664 64.2927 41.978 65.9393C41.3036 67.5648 40.9105 69.2932 40.8155 71.0505C40.7982 71.3665 40.786 71.6829 40.7717 71.9991L40.5456 76.972L40.2947 82.493L40.2285 83.948C40.2234 83.991 40.2215 84.034 40.2226 84.077C40.223 84.081 40.2192 84.097 40.2216 84.099C40.1805 84.065 40.3017 83.963 40.2213 84.009C40.1903 84.026 40.1603 84.092 40.1397 84.12C39.9266 84.415 39.7219 84.715 39.5212 85.018C38.4233 86.675 37.4275 88.401 36.4466 90.129C35.2829 92.179 34.1548 94.25 33.0424 96.329C32.063 98.159 31.0958 99.996 30.141 101.839C29.6287 102.827 29.1197 103.817 28.6141 104.808C28.5905 104.855 28.567 104.901 28.5435 104.947C28.5058 105.014 28.4957 105.093 28.5152 105.168C28.5347 105.242 28.5824 105.306 28.6481 105.346L32.8613 107.676L39.5823 111.394L41.1324 112.251C41.1993 112.289 41.2787 112.3 41.3533 112.28C41.4279 112.26 41.4919 112.212 41.5314 112.146L42.7162 109.618L45.5314 103.61L48.896 96.429L51.7368 90.366L52.6112 88.5C52.7232 88.26 52.8563 88.022 52.9506 87.775C53.041 87.539 53.005 87.232 53.014 86.984L53.081 85.089L53.31 78.655L53.593 70.7349L53.844 63.6738L53.981 59.8282L53.987 59.6528C54.001 59.2773 53.417 59.2778 53.404 59.6527Z" fill="black"/>
<path d="M30.7831 101.318L32.0279 101.96L35.0008 103.492L38.6139 105.354L41.7382 106.964C42.2403 107.222 42.7371 107.515 43.2533 107.745C43.2609 107.748 43.2683 107.752 43.2757 107.756C43.4422 107.842 43.59 107.59 43.4229 107.504L42.1781 106.863L39.2052 105.331L35.5921 103.469L32.4678 101.859C31.9657 101.6 31.4689 101.308 30.9527 101.078C30.9451 101.074 30.9377 101.07 30.9303 101.066C30.7637 100.981 30.616 101.232 30.7831 101.318Z" fill="black"/>
<path d="M41.2457 69.9683H44.4222L44.1305 69.6766L43.901 72.8308L43.7738 74.579C43.7305 75.174 43.582 75.722 43.1415 76.158C42.7505 76.541 42.2252 76.757 41.6775 76.759C41.3995 76.761 41.1215 76.759 40.8435 76.759C40.4682 76.759 40.4676 77.342 40.8435 77.342C41.6378 77.342 42.4132 77.375 43.1127 76.923C43.4711 76.687 43.7692 76.371 43.9828 75.999C44.1964 75.627 44.3195 75.21 44.3423 74.782C44.4351 73.533 44.526 72.2834 44.615 71.0338L44.7138 69.6766C44.713 69.5995 44.682 69.5257 44.6275 69.4712C44.573 69.4167 44.4992 69.3857 44.4221 69.3849H41.2457C40.8703 69.3849 40.8697 69.9683 41.2457 69.9683Z" fill="black"/>
<path d="M59.0849 111.462V118.437L50.9613 120.046L50.7314 109.47" fill="#FC7F3A"/>
<path d="M58.7941 111.462V118.437L59.0081 118.156L56.2521 118.701L51.8854 119.567L50.8837 119.765L51.2529 120.046L51.1749 116.458L51.0516 110.782L51.0231 109.47C51.0149 109.095 50.4316 109.094 50.4397 109.47L50.5177 113.058L50.6411 118.734L50.6696 120.046C50.6705 120.091 50.6814 120.135 50.7016 120.175C50.7218 120.214 50.7507 120.249 50.7862 120.276C50.8217 120.303 50.8629 120.322 50.9066 120.331C50.9504 120.34 50.9956 120.338 51.0388 120.327L53.7941 119.782L58.1611 118.916L59.1631 118.718C59.2241 118.701 59.2781 118.664 59.3171 118.613C59.3551 118.562 59.3761 118.5 59.3771 118.437V111.462C59.3771 111.087 58.7941 111.086 58.7941 111.462Z" fill="black"/>
<path d="M50.4973 117.765L50.5298 125.488H67.676C67.676 125.488 67.969 120.619 61.566 120.105C60.99 120.057 60.453 119.792 60.065 119.364C59.676 118.936 59.464 118.377 59.471 117.799C59.474 117.46 59.478 117.186 59.482 116.964C59.484 116.846 59.462 116.729 59.418 116.619C59.374 116.51 59.309 116.41 59.226 116.326C59.144 116.242 59.045 116.175 58.936 116.13C58.827 116.084 58.711 116.061 58.593 116.061H57.859L55.907 117.265C55.412 117.571 54.841 117.731 54.259 117.728C53.678 117.725 53.109 117.559 52.6168 117.249L52.0609 116.899C51.9063 116.801 51.7284 116.747 51.5457 116.742C51.3631 116.737 51.1824 116.781 51.0226 116.869C50.8627 116.958 50.7297 117.088 50.6373 117.245C50.5449 117.403 50.4965 117.583 50.4973 117.765Z" fill="#458DC9"/>
<path d="M50.206 117.766L50.217 120.384L50.2345 124.535L50.2385 125.488C50.2396 125.565 50.2707 125.638 50.3252 125.693C50.3796 125.747 50.4532 125.778 50.5302 125.78H65.564C66.256 125.78 66.954 125.805 67.646 125.78C67.656 125.779 67.667 125.78 67.677 125.78C67.754 125.778 67.827 125.747 67.881 125.692C67.936 125.638 67.967 125.565 67.968 125.488C67.986 124.808 67.857 124.132 67.59 123.506C66.993 122.024 65.787 120.974 64.313 120.399C63.808 120.205 63.285 120.06 62.751 119.966C62.427 119.908 62.099 119.864 61.771 119.832C61.492 119.819 61.218 119.76 60.959 119.659C60.712 119.55 60.49 119.393 60.306 119.196C60.121 119 59.978 118.768 59.885 118.516C59.793 118.239 59.752 117.948 59.764 117.657C59.768 117.336 59.815 116.979 59.738 116.663C59.668 116.401 59.512 116.17 59.294 116.007C59.076 115.845 58.81 115.761 58.539 115.769C58.355 115.769 58.171 115.769 57.988 115.769C57.882 115.761 57.776 115.781 57.68 115.829C57.085 116.163 56.513 116.549 55.932 116.908C55.587 117.136 55.203 117.298 54.799 117.388C54.137 117.514 53.453 117.398 52.8692 117.061C52.5638 116.884 52.2803 116.644 51.9469 116.522C51.749 116.454 51.5376 116.434 51.3303 116.464C51.1231 116.494 50.9261 116.573 50.7557 116.695C50.5853 116.816 50.4465 116.977 50.3508 117.163C50.2552 117.35 50.2056 117.556 50.206 117.766C50.1991 118.141 50.7824 118.141 50.7893 117.766C50.7909 117.633 50.8283 117.504 50.8974 117.391C50.9665 117.278 51.0648 117.186 51.1819 117.124C51.299 117.062 51.4306 117.033 51.5628 117.04C51.695 117.047 51.823 117.089 51.9331 117.163C52.4496 117.478 52.9321 117.807 53.537 117.939C54.399 118.125 55.3 117.974 56.054 117.517C56.355 117.335 56.653 117.148 56.952 116.964L58.006 116.313L57.859 116.353C58.265 116.353 58.855 116.235 59.106 116.643C59.18 116.788 59.208 116.952 59.188 117.114C59.184 117.359 59.176 117.605 59.18 117.851C59.186 118.238 59.278 118.619 59.447 118.968C59.616 119.312 59.86 119.613 60.16 119.851C60.461 120.088 60.811 120.256 61.184 120.341C61.595 120.431 62.024 120.433 62.44 120.502C62.803 120.561 63.163 120.642 63.517 120.744C64.588 121.056 65.575 121.6 66.297 122.451C66.556 122.764 66.774 123.109 66.947 123.477C67.017 123.624 67.078 123.775 67.128 123.929C67.181 124.088 67.227 124.249 67.266 124.412C67.301 124.563 67.328 124.715 67.352 124.868C67.361 124.93 67.343 124.795 67.35 124.855C67.352 124.871 67.354 124.887 67.356 124.902C67.36 124.937 67.364 124.972 67.367 125.006C67.372 125.059 67.376 125.111 67.38 125.164C67.388 125.272 67.39 125.38 67.385 125.488L67.677 125.196H51.2249C51.0074 125.196 50.7773 125.174 50.5606 125.196C50.5507 125.197 50.5402 125.196 50.5302 125.196L50.8218 125.488L50.8108 122.869L50.7933 118.719L50.7893 117.765C50.7878 117.39 50.2044 117.39 50.206 117.766Z" fill="black"/>
<path d="M47.5592 71.0714C47.1432 76.746 49.5472 114.519 49.5472 114.519L64.45 114.591L60.158 60.6489L49.3518 59.1927" fill="#EA2F2F"/>
<path d="M47.2673 71.0717C47.2069 71.9065 47.215 72.7477 47.2213 73.584C47.2311 74.903 47.2659 76.222 47.3071 77.54C47.3593 79.211 47.4222 80.881 47.4958 82.551C47.5764 84.444 47.6639 86.336 47.7582 88.227C47.8559 90.212 47.9583 92.196 48.0652 94.179C48.1701 96.135 48.2781 98.091 48.3893 100.046C48.4902 101.824 48.5931 103.601 48.6981 105.379C48.7855 106.859 48.8741 108.338 48.9641 109.818C49.0281 110.869 49.0928 111.921 49.1582 112.973C49.1889 113.467 49.212 113.962 49.2511 114.456C49.2528 114.477 49.2538 114.498 49.2552 114.52C49.2567 114.596 49.2879 114.67 49.3423 114.724C49.3967 114.779 49.47 114.81 49.5469 114.811L54.602 114.835L62.599 114.874L64.45 114.883C64.527 114.882 64.601 114.851 64.656 114.796C64.71 114.742 64.741 114.668 64.742 114.591L64.627 113.151L64.314 109.216L63.852 103.414L63.289 96.337L62.67 88.558L62.048 80.734L61.467 73.44L60.977 67.2754L60.624 62.8419C60.568 62.1414 60.518 61.4402 60.457 60.7401C60.454 60.7099 60.452 60.6796 60.45 60.6493C60.449 60.5857 60.427 60.5241 60.389 60.4734C60.35 60.4228 60.297 60.3859 60.236 60.3681L56.584 59.8759L50.7636 59.0916L49.4292 58.9118C49.0621 58.8623 48.9032 59.4243 49.2741 59.4743L52.9262 59.9664L58.746 60.7506L60.081 60.9305L59.866 60.6493L59.981 62.0889L60.294 66.0245L60.756 71.8263L61.319 78.903L61.938 86.682L62.56 94.506L63.141 101.8L63.631 107.965L63.984 112.398C64.039 113.091 64.043 113.812 64.151 114.5C64.156 114.53 64.156 114.561 64.158 114.591L64.45 114.299L59.395 114.275L51.3981 114.237L49.547 114.228L49.8386 114.52C49.8171 114.182 49.7959 113.844 49.7748 113.506C49.7169 112.579 49.6595 111.651 49.6029 110.724C49.518 109.337 49.4343 107.951 49.3518 106.564C49.2497 104.847 49.1493 103.131 49.0508 101.414C48.9409 99.498 48.8336 97.582 48.7289 95.665C48.6201 93.668 48.5151 91.672 48.4138 89.675C48.3165 87.749 48.2245 85.822 48.1377 83.895C48.0604 82.159 47.9906 80.422 47.9283 78.685C47.8791 77.269 47.8364 75.852 47.8146 74.435C47.7997 73.468 47.7872 72.499 47.8256 71.5326C47.8318 71.3788 47.8396 71.2251 47.8507 71.0716C47.8778 70.6971 47.2943 70.6989 47.2673 71.0717Z" fill="black"/>
<path d="M59.997 119.19C59.884 119.255 59.779 119.332 59.685 119.422C59.477 119.614 59.316 119.853 59.217 120.119C59.15 120.305 59.116 120.502 59.117 120.7C59.117 120.777 59.147 120.851 59.202 120.906C59.257 120.961 59.331 120.991 59.408 120.991C59.486 120.991 59.56 120.961 59.614 120.906C59.669 120.851 59.7 120.777 59.7 120.7C59.7 120.662 59.701 120.625 59.704 120.588C59.705 120.567 59.708 120.546 59.71 120.525C59.713 120.493 59.705 120.562 59.705 120.559C59.708 120.548 59.708 120.537 59.71 120.525C59.722 120.455 59.741 120.386 59.764 120.318C59.769 120.303 59.774 120.288 59.78 120.274C59.783 120.267 59.786 120.259 59.788 120.252C59.798 120.223 59.772 120.29 59.774 120.287C59.79 120.256 59.802 120.223 59.818 120.193C59.847 120.139 59.878 120.087 59.913 120.037C59.921 120.026 59.928 120.015 59.936 120.004C59.94 119.999 59.944 119.994 59.948 119.989C59.966 119.964 59.918 120.027 59.922 120.022C59.94 120.002 59.957 119.98 59.975 119.96C60.007 119.922 60.042 119.887 60.078 119.853C60.11 119.823 60.142 119.796 60.175 119.769C60.225 119.728 60.11 119.817 60.166 119.776C60.179 119.767 60.191 119.758 60.204 119.749C60.232 119.729 60.262 119.711 60.292 119.694C60.358 119.655 60.406 119.591 60.426 119.516C60.445 119.441 60.435 119.362 60.396 119.295C60.356 119.23 60.292 119.182 60.218 119.163C60.144 119.143 60.065 119.153 59.997 119.19Z" fill="black"/>
<path d="M61.1289 119.8C61.0159 119.864 60.9109 119.942 60.8169 120.032C60.6079 120.224 60.4479 120.462 60.3489 120.728C60.2809 120.914 60.2469 121.111 60.2479 121.309C60.2479 121.386 60.2789 121.46 60.3329 121.515C60.3879 121.57 60.4619 121.601 60.5399 121.601C60.6169 121.601 60.6909 121.57 60.7459 121.515C60.8009 121.46 60.8309 121.386 60.8309 121.309C60.8309 121.272 60.8329 121.235 60.8349 121.197C60.8369 121.176 60.8389 121.156 60.8409 121.135C60.8439 121.102 60.8359 121.171 60.8369 121.169C60.8389 121.158 60.8389 121.146 60.8409 121.135C60.8539 121.064 60.8719 120.995 60.8949 120.927C60.8999 120.913 60.9059 120.898 60.9109 120.883C60.9139 120.876 60.9169 120.869 60.9199 120.862C60.9299 120.832 60.9029 120.899 60.9049 120.896C60.9209 120.865 60.9339 120.833 60.9499 120.802C60.9779 120.748 61.0099 120.696 61.0439 120.646C61.0519 120.635 61.0599 120.625 61.0679 120.614C61.0719 120.609 61.0759 120.603 61.0799 120.598C61.0969 120.573 61.0489 120.637 61.0539 120.631C61.0719 120.611 61.0879 120.589 61.1059 120.569C61.1389 120.532 61.1739 120.496 61.2099 120.462C61.2409 120.433 61.2739 120.405 61.3069 120.378C61.3569 120.337 61.2409 120.426 61.2969 120.385C61.3099 120.376 61.3229 120.367 61.3359 120.358C61.3639 120.338 61.3929 120.32 61.4229 120.304C61.4899 120.264 61.5379 120.2 61.5569 120.125C61.5769 120.051 61.5659 119.971 61.5279 119.904C61.4879 119.839 61.4239 119.792 61.3489 119.772C61.2749 119.753 61.1959 119.762 61.1289 119.8Z" fill="black"/>
<path d="M62.435 120.061C62.322 120.125 62.217 120.203 62.123 120.293C61.914 120.485 61.754 120.724 61.655 120.99C61.587 121.176 61.553 121.372 61.554 121.57C61.554 121.648 61.585 121.722 61.639 121.777C61.694 121.831 61.768 121.862 61.846 121.862C61.923 121.862 61.997 121.831 62.052 121.777C62.107 121.722 62.137 121.648 62.137 121.57C62.137 121.533 62.139 121.496 62.141 121.459C62.143 121.438 62.145 121.417 62.147 121.396C62.15 121.363 62.142 121.433 62.143 121.43C62.145 121.419 62.145 121.407 62.147 121.396C62.16 121.326 62.178 121.256 62.201 121.189C62.206 121.174 62.212 121.159 62.217 121.145C62.22 121.137 62.223 121.13 62.226 121.123C62.236 121.094 62.209 121.161 62.211 121.157C62.227 121.127 62.24 121.094 62.256 121.063C62.284 121.01 62.316 120.958 62.351 120.908C62.358 120.897 62.366 120.886 62.374 120.875C62.378 120.87 62.382 120.865 62.386 120.86C62.403 120.835 62.355 120.898 62.36 120.893C62.378 120.873 62.394 120.851 62.412 120.831C62.445 120.793 62.48 120.758 62.516 120.724C62.547 120.694 62.58 120.667 62.613 120.639C62.663 120.599 62.547 120.688 62.603 120.647C62.616 120.638 62.629 120.629 62.642 120.62C62.67 120.6 62.699 120.582 62.729 120.565C62.796 120.526 62.844 120.462 62.863 120.387C62.883 120.312 62.872 120.233 62.834 120.166C62.794 120.1 62.73 120.053 62.655 120.033C62.581 120.014 62.502 120.024 62.435 120.061Z" fill="black"/>
<path d="M67.339 123.66C67.569 124.242 67.684 124.862 67.677 125.488H50.53L50.511 124.259H50.5015V122.115C50.5015 122.115 52.8047 121.349 55.487 123.188C57.327 123.878 57.863 122.116 59.779 122.345C61.695 122.575 61.055 123.211 62.218 123.2C62.218 123.2 63.607 123.265 64.527 122.422C65.447 121.579 66.626 121.986 67.339 123.66Z" fill="white"/>
<path d="M67.058 123.738C67.285 124.293 67.396 124.888 67.385 125.488L67.676 125.196H51.2246C51.0071 125.196 50.777 125.174 50.5603 125.196C50.5504 125.197 50.5399 125.196 50.5298 125.196L50.8215 125.488L50.8025 124.259C50.8013 124.182 50.7702 124.109 50.7157 124.054C50.6613 124 50.5878 123.969 50.5108 123.967H50.5013L50.793 124.259V122.116L50.5789 122.397C50.8101 122.326 51.049 122.282 51.2905 122.268C51.9255 122.216 52.5647 122.273 53.181 122.435C53.607 122.545 54.02 122.699 54.414 122.895C54.848 123.11 55.237 123.446 55.71 123.564C56.37 123.729 56.987 123.586 57.581 123.281C58.116 123.007 58.63 122.668 59.248 122.623C59.649 122.602 60.051 122.65 60.437 122.762C60.56 122.794 60.68 122.837 60.795 122.891C60.838 122.912 60.88 122.936 60.922 122.961C60.947 122.976 61.073 123.067 61.023 123.028C61.148 123.14 61.281 123.241 61.421 123.332C61.643 123.441 61.888 123.496 62.136 123.491C62.599 123.503 63.061 123.442 63.504 123.309C63.949 123.177 64.361 122.951 64.712 122.647C64.928 122.433 65.215 122.305 65.518 122.288C66.304 122.289 66.811 123.171 67.087 123.807C67.126 123.874 67.19 123.922 67.265 123.941C67.34 123.961 67.419 123.95 67.486 123.912C67.551 123.871 67.599 123.808 67.618 123.733C67.638 123.659 67.628 123.58 67.591 123.513C67.278 122.791 66.779 122.043 65.997 121.782C65.699 121.684 65.378 121.679 65.077 121.769C64.719 121.876 64.48 122.104 64.192 122.325C63.665 122.7 63.035 122.904 62.388 122.908C62.334 122.909 62.28 122.909 62.226 122.908C62.183 122.908 62.14 122.908 62.097 122.907C62.073 122.906 62.049 122.905 62.024 122.903C62.013 122.902 61.896 122.888 61.942 122.896C61.89 122.887 61.84 122.873 61.788 122.859C61.708 122.838 61.801 122.875 61.734 122.838C61.699 122.818 61.665 122.796 61.631 122.775C61.626 122.772 61.574 122.733 61.613 122.763C61.652 122.792 61.588 122.741 61.581 122.736C61.432 122.601 61.267 122.484 61.089 122.387C60.763 122.235 60.414 122.135 60.057 122.091C59.644 122.018 59.221 122.022 58.81 122.102C58.483 122.181 58.168 122.303 57.872 122.464C57.367 122.725 56.874 123.065 56.283 123.058C56.125 123.055 55.968 123.032 55.816 122.989C55.58 122.9 55.356 122.779 55.151 122.63C54.728 122.383 54.281 122.177 53.817 122.017C53.048 121.749 52.2349 121.633 51.4219 121.675C51.0838 121.686 50.7484 121.739 50.4238 121.834C50.363 121.852 50.3095 121.889 50.271 121.94C50.2325 121.991 50.2111 122.052 50.2098 122.115V124.259C50.2109 124.336 50.242 124.41 50.2964 124.464C50.3509 124.518 50.4244 124.55 50.5014 124.551H50.5109L50.2193 124.259L50.2383 125.488C50.2395 125.565 50.2706 125.638 50.3251 125.693C50.3795 125.747 50.453 125.778 50.53 125.779H65.564C66.256 125.779 66.954 125.805 67.646 125.779C67.656 125.779 67.666 125.779 67.676 125.779C67.753 125.778 67.827 125.747 67.881 125.692C67.935 125.638 67.966 125.565 67.968 125.488C67.982 124.836 67.864 124.187 67.62 123.582C67.489 123.235 66.925 123.385 67.058 123.738Z" fill="black"/>
<path d="M49.2789 110.343H63.021C63.206 110.343 63.398 110.357 63.582 110.343C63.59 110.342 63.599 110.343 63.607 110.343C63.645 110.341 63.681 110.325 63.707 110.298C63.733 110.271 63.748 110.235 63.748 110.197C63.748 110.159 63.733 110.123 63.707 110.096C63.681 110.068 63.645 110.052 63.607 110.051H49.8645C49.6795 110.051 49.4883 110.037 49.3037 110.051C49.2955 110.052 49.2871 110.051 49.2789 110.051C49.2411 110.052 49.2053 110.068 49.1791 110.096C49.1528 110.123 49.1381 110.159 49.1381 110.197C49.1381 110.235 49.1528 110.271 49.1791 110.298C49.2053 110.325 49.2411 110.341 49.2789 110.343Z" fill="black"/>
<path d="M51.9811 77.342C52.7754 77.342 53.551 77.375 54.25 76.923C54.609 76.687 54.907 76.371 55.12 75.999C55.334 75.627 55.457 75.21 55.48 74.782C55.573 73.533 55.664 72.2834 55.753 71.0338L55.851 69.6766C55.851 69.5995 55.82 69.5257 55.765 69.4712C55.711 69.4167 55.637 69.3857 55.56 69.3849H50.0798C50.0028 69.386 49.9293 69.4171 49.8748 69.4715C49.8203 69.526 49.7893 69.5996 49.7882 69.6766V74.356C49.7745 74.685 49.779 75.013 49.8019 75.341C49.8629 75.881 50.117 76.381 50.5174 76.749C50.9179 77.117 51.4376 77.327 51.9811 77.342C52.3566 77.35 52.3566 76.766 51.9812 76.759C51.5694 76.746 51.1769 76.581 50.88 76.296C50.583 76.01 50.4027 75.625 50.3742 75.214C50.3595 74.929 50.3715 74.641 50.3715 74.356V69.6766L50.0798 69.9683H55.56L55.268 69.6766L55.039 72.8308L54.911 74.579C54.868 75.174 54.72 75.722 54.279 76.158C53.888 76.541 53.363 76.757 52.8151 76.759C52.5371 76.761 52.2592 76.759 51.9812 76.759C51.6059 76.759 51.6052 77.342 51.9811 77.342Z" fill="black"/>
<path d="M49.5287 39.8094L49.667 32.9614L55.476 35.198L55.657 39.6936" fill="#FC7F3A"/>
<path d="M49.8205 39.809L49.8672 37.4978L49.9416 33.8111L49.9588 32.9611L49.5895 33.2423L54.6891 35.2057L55.3981 35.4788L55.1841 35.1976L55.3431 39.1373L55.3651 39.6932C55.3801 40.0673 55.9641 40.0693 55.9491 39.6932L55.7901 35.7536L55.7671 35.1976C55.7651 35.1343 55.7441 35.0732 55.7051 35.0228C55.6671 34.9723 55.6141 34.9352 55.5531 34.9164L50.4541 32.953L49.7448 32.6799C49.7015 32.6685 49.6562 32.667 49.6122 32.6758C49.5683 32.6845 49.527 32.7031 49.4914 32.7302C49.4558 32.7574 49.4268 32.7923 49.4067 32.8323C49.3867 32.8723 49.376 32.9164 49.3756 32.9612L49.3289 35.2724L49.2545 38.959L49.2373 39.809C49.2297 40.1845 49.8129 40.1845 49.8205 39.809Z" fill="black"/>
<path d="M54.51 36.1095C55.023 36.2192 55.542 36.2928 56.065 36.3299C56.226 36.3418 56.387 36.3273 56.543 36.2869C58.764 35.7113 59.653 33.6294 59.941 31.4189H60.153C60.852 31.5174 61.117 31.3464 61.036 30.9074C60.403 30.2157 60.137 29.83 60.067 29.3304L60.05 29.0068C60.013 27.7116 59.865 26.422 59.605 25.1525L48.4552 24.7534C48.4552 24.7534 47.0069 27.1397 47.1134 28.2387C47.2967 30.1312 49.1407 31.4865 49.6501 33.9265" fill="#FC7F3A"/>
<path d="M54.433 36.3904C54.787 36.4659 55.144 36.5235 55.503 36.5668C55.872 36.6355 56.2511 36.6359 56.6211 36.5678C57.1521 36.435 57.652 36.1969 58.089 35.8676C58.949 35.2189 59.4971 34.2751 59.8321 33.2655C60.0231 32.6638 60.1571 32.0454 60.2321 31.4185L59.9411 31.7102C60.3821 31.7102 61.014 31.8598 61.268 31.372C61.322 31.2618 61.3471 31.1396 61.3411 31.0169C61.3351 30.791 61.2211 30.6789 61.0771 30.5172C60.8561 30.2843 60.664 30.0257 60.504 29.747C60.456 29.6569 60.419 29.5618 60.392 29.4635C60.376 29.4071 60.3631 29.3497 60.3551 29.2917C60.3661 29.372 60.355 29.2582 60.354 29.2357C60.338 28.9336 60.3311 28.6312 60.3131 28.3291C60.2691 27.5955 60.1881 26.8641 60.0781 26.1377C60.0231 25.7821 59.9651 25.4258 59.8871 25.0746C59.8691 25.0135 59.832 24.9596 59.782 24.9211C59.731 24.8825 59.6691 24.8613 59.6061 24.8606L55.837 24.7257L49.8313 24.5107L48.4554 24.4614C48.4044 24.4615 48.3545 24.4748 48.3103 24.5002C48.2662 24.5255 48.2293 24.562 48.2035 24.6059C48.0116 24.9226 47.8357 25.2499 47.668 25.58C47.3419 26.1809 47.0858 26.8173 46.9052 27.4767C46.5572 28.9111 47.5118 30.2099 48.2211 31.3688C48.7272 32.1959 49.1648 33.0488 49.3691 34.0038C49.4476 34.3707 50.01 34.2154 49.9316 33.8487C49.7361 33.0109 49.4093 32.2093 48.9635 31.4736C48.5876 30.826 48.1542 30.2099 47.8185 29.5394C47.5587 29.0202 47.3244 28.3809 47.4275 27.8188C47.5655 27.1982 47.7881 26.5995 48.089 26.0395C48.2799 25.6525 48.4835 25.2695 48.7072 24.9003L48.4554 25.0448L52.2243 25.1797L58.2301 25.3946L59.6061 25.4439L59.324 25.2298C59.45 25.7965 59.5361 26.375 59.6051 26.951C59.6771 27.5495 59.7271 28.1509 59.7501 28.7534C59.7381 29.0895 59.7791 29.4255 59.8711 29.7491C60.0651 30.2766 60.4581 30.7047 60.8301 31.1133L60.755 30.9846C60.768 31.063 60.7581 31.1034 60.7371 31.1245C60.7851 31.0761 60.7331 31.1189 60.7191 31.1245C60.6861 31.1345 60.6521 31.1426 60.6191 31.1486C60.3921 31.1572 60.1661 31.15 59.9411 31.127C59.8641 31.1292 59.7911 31.1607 59.7371 31.2149C59.6831 31.2691 59.6511 31.342 59.6491 31.4186C59.4061 33.2585 58.6471 35.3012 56.7221 35.9305C56.5771 35.984 56.4261 36.0203 56.2721 36.0388C56.0841 36.0451 55.897 36.0344 55.711 36.0068C55.334 35.9674 54.959 35.9077 54.588 35.828C54.222 35.7498 54.065 36.3119 54.433 36.3904Z" fill="black"/>
<path d="M54.965 30.0644C54.892 29.827 54.805 29.5944 54.703 29.368C54.551 29.0172 54.356 28.6354 54.052 28.3919C53.957 28.3076 53.844 28.2467 53.722 28.2143C53.6 28.1818 53.472 28.1787 53.348 28.2051C53.274 28.2263 53.211 28.2758 53.173 28.3429C53.135 28.41 53.124 28.4893 53.144 28.5639C53.166 28.6376 53.216 28.6999 53.283 28.7379C53.35 28.7759 53.429 28.7865 53.503 28.7676C53.511 28.7663 53.519 28.7645 53.527 28.7622C53.562 28.748 53.491 28.7686 53.485 28.7673C53.501 28.768 53.517 28.7674 53.533 28.7653C53.54 28.7654 53.549 28.7668 53.556 28.7663C53.595 28.7644 53.515 28.7608 53.513 28.76C53.532 28.7655 53.551 28.7699 53.571 28.7732C53.578 28.7753 53.586 28.7788 53.593 28.7806C53.631 28.7894 53.559 28.7657 53.557 28.7645C53.572 28.7726 53.586 28.7799 53.602 28.7861C53.616 28.7942 53.631 28.8029 53.645 28.812C53.673 28.8302 53.71 28.8771 53.65 28.8126C53.703 28.8701 53.765 28.9179 53.816 28.979C53.824 28.9887 53.832 28.9986 53.84 29.0083C53.859 29.0304 53.841 29.0303 53.823 28.9858C53.834 29.0039 53.846 29.0209 53.86 29.0364C53.886 29.0734 53.911 29.1113 53.935 29.1499C54.031 29.305 54.115 29.4667 54.187 29.6337C54.196 29.6527 54.204 29.6718 54.212 29.6908C54.185 29.6254 54.228 29.7275 54.212 29.6908C54.229 29.7307 54.245 29.7706 54.26 29.8108C54.286 29.876 54.31 29.9417 54.333 30.0078C54.357 30.0779 54.381 30.1482 54.402 30.2194C54.412 30.2565 54.43 30.2912 54.453 30.3216C54.477 30.3519 54.506 30.3774 54.539 30.3964C54.573 30.4154 54.609 30.4277 54.648 30.4324C54.686 30.4372 54.724 30.4344 54.761 30.4242C54.798 30.414 54.833 30.3966 54.863 30.3729C54.894 30.3493 54.919 30.3199 54.938 30.2865C54.957 30.2531 54.969 30.2162 54.973 30.1781C54.978 30.14 54.975 30.1013 54.965 30.0644Z" fill="black"/>
<path d="M59.253 27.5978C59.026 27.452 58.773 27.3503 58.509 27.2981C57.922 27.1724 57.309 27.267 56.787 27.5639C56.721 27.6031 56.673 27.667 56.653 27.7417C56.634 27.8164 56.645 27.8957 56.684 27.9624C56.723 28.029 56.786 28.0775 56.861 28.0972C56.936 28.1169 57.015 28.1062 57.082 28.0675C57.204 27.9983 57.332 27.9423 57.466 27.9006C57.574 27.8674 57.685 27.8441 57.798 27.8309C58.001 27.8085 58.206 27.8225 58.404 27.8722C58.489 27.8925 58.572 27.9178 58.653 27.9478C58.673 27.955 58.692 27.9633 58.711 27.9703C58.763 27.9886 58.673 27.9518 58.704 27.9671C58.732 27.981 58.762 27.9929 58.79 28.0068C58.848 28.0343 58.905 28.0659 58.958 28.1015C59.025 28.1405 59.105 28.1514 59.18 28.1318C59.254 28.1122 59.318 28.0636 59.357 27.9968C59.396 27.93 59.407 27.8505 59.388 27.7756C59.368 27.7008 59.32 27.6368 59.253 27.5978Z" fill="black"/>
<path d="M58.3461 29.5452C58.5621 29.5452 58.7371 29.3704 58.7371 29.1547C58.7371 28.9391 58.5621 28.7643 58.3461 28.7643C58.1311 28.7643 57.9561 28.9391 57.9561 29.1547C57.9561 29.3704 58.1311 29.5452 58.3461 29.5452Z" fill="black"/>
<path d="M57.811 29.1484C57.811 29.2589 57.844 29.3668 57.907 29.4577C57.97 29.5486 58.059 29.6183 58.162 29.6574C58.264 29.6947 58.374 29.7003 58.479 29.6737C58.584 29.6471 58.678 29.5893 58.749 29.5081C58.806 29.4432 58.847 29.3655 58.867 29.2815C58.888 29.1976 58.887 29.11 58.867 29.0261C58.846 28.9423 58.805 28.8647 58.748 28.7999C58.691 28.7352 58.619 28.6852 58.538 28.6543C58.458 28.6234 58.371 28.6124 58.285 28.6224C58.199 28.6323 58.117 28.6628 58.045 28.7114C57.974 28.7599 57.915 28.825 57.874 28.9011C57.833 28.9772 57.812 29.062 57.811 29.1484C57.811 29.187 57.826 29.2239 57.854 29.2511C57.881 29.2784 57.918 29.2939 57.956 29.2942C57.995 29.2935 58.032 29.2779 58.059 29.2507C58.086 29.2235 58.102 29.1868 58.102 29.1484C58.101 29.1375 58.102 29.1265 58.104 29.1159C58.096 29.1283 58.099 29.14 58.103 29.1229C58.107 29.1058 58.111 29.0887 58.116 29.072L58.12 29.0621C58.125 29.0471 58.124 29.0491 58.116 29.0682C58.119 29.0616 58.122 29.0554 58.125 29.0496C58.133 29.0304 58.144 29.0127 58.158 28.9975C58.135 29.0124 58.147 29.0093 58.157 28.9993C58.163 28.9933 58.169 28.9868 58.175 28.9808C58.179 28.9761 58.184 28.9714 58.189 28.9669L58.197 28.9602C58.209 28.9502 58.207 28.9515 58.191 28.9641C58.197 28.9537 58.225 28.9419 58.235 28.937C58.241 28.9337 58.247 28.9309 58.253 28.9277C58.278 28.9144 58.225 28.9347 58.261 28.925C58.278 28.9204 58.294 28.915 58.312 28.9117L58.317 28.9107C58.333 28.9081 58.331 28.9084 58.31 28.9116C58.314 28.9082 58.331 28.9102 58.337 28.9101C58.346 28.9098 58.355 28.9099 58.364 28.9103C58.366 28.9104 58.402 28.9115 58.377 28.9105C58.353 28.9096 58.386 28.9124 58.389 28.9131C58.399 28.9152 58.409 28.9178 58.419 28.9208C58.43 28.9224 58.44 28.9258 58.449 28.9309C58.448 28.9297 58.418 28.9153 58.442 28.9285C58.458 28.9365 58.473 28.9443 58.487 28.9537C58.489 28.955 58.516 28.9749 58.497 28.9601C58.478 28.9454 58.504 28.9667 58.506 28.9682C58.522 28.9804 58.536 28.9954 58.548 29.0125C58.539 28.9898 58.537 28.9973 58.543 29.0075C58.548 29.0162 58.554 29.0245 58.559 29.0334C58.563 29.0393 58.566 29.0453 58.569 29.0514L58.574 29.0606C58.58 29.0751 58.579 29.073 58.571 29.0541C58.58 29.0613 58.584 29.0931 58.586 29.1038C58.588 29.1107 58.589 29.1176 58.591 29.1245C58.597 29.1539 58.589 29.0943 58.591 29.1334C58.592 29.1497 58.591 29.166 58.59 29.1823C58.59 29.2184 58.598 29.1511 58.59 29.1861C58.589 29.193 58.588 29.1999 58.586 29.2068C58.583 29.2187 58.58 29.248 58.57 29.2565L58.577 29.2408C58.574 29.247 58.571 29.2532 58.568 29.2593C58.564 29.2684 58.559 29.2773 58.553 29.2861C58.549 29.2931 58.543 29.2999 58.539 29.3073C58.53 29.325 58.562 29.2825 58.54 29.3058C58.528 29.3181 58.517 29.3307 58.504 29.3421C58.502 29.3439 58.476 29.3634 58.496 29.35C58.515 29.3364 58.487 29.3552 58.485 29.3564C58.469 29.3693 58.451 29.3793 58.431 29.3856C58.434 29.3852 58.464 29.3746 58.438 29.3823C58.428 29.3853 58.418 29.3888 58.408 29.3914C58.401 29.3932 58.394 29.3948 58.387 29.3962C58.383 29.3971 58.352 29.3983 58.375 29.3986C58.4 29.3989 58.365 29.3986 58.363 29.3987C58.353 29.3991 58.344 29.3991 58.335 29.3988C58.326 29.3999 58.317 29.3994 58.308 29.3972C58.329 29.4003 58.332 29.4006 58.315 29.3979L58.305 29.3959C58.291 29.3931 58.255 29.3891 58.245 29.378L58.261 29.3848C58.256 29.3827 58.251 29.3805 58.247 29.3781C58.236 29.3723 58.225 29.367 58.215 29.3607C58.209 29.3571 58.204 29.3531 58.198 29.3495C58.185 29.3402 58.187 29.3417 58.203 29.354C58.198 29.3497 58.193 29.3453 58.188 29.3407C58.175 29.3293 58.164 29.3166 58.153 29.3043C58.129 29.2795 58.168 29.3306 58.151 29.3015C58.145 29.2927 58.139 29.2845 58.134 29.2756C58.129 29.2667 58.125 29.2574 58.12 29.2484C58.106 29.2226 58.128 29.2756 58.119 29.2451C58.113 29.2248 58.108 29.2052 58.103 29.1845C58.099 29.1659 58.097 29.1824 58.104 29.1916C58.099 29.1844 58.102 29.1573 58.102 29.1484C58.102 29.1097 58.087 29.0726 58.06 29.0453C58.032 29.0179 57.995 29.0025 57.956 29.0025C57.918 29.0025 57.881 29.0179 57.853 29.0453C57.826 29.0726 57.811 29.1097 57.811 29.1484Z" fill="black"/>
<path d="M52.6163 31.164C52.9212 31.6374 53.393 31.9785 53.938 32.1195C54.222 32.1855 54.515 32.1964 54.803 32.1516C54.877 32.1309 54.94 32.0815 54.978 32.0142C55.017 31.947 55.027 31.8674 55.006 31.7928C54.984 31.7196 54.934 31.6577 54.867 31.6199C54.8 31.5821 54.722 31.5711 54.647 31.5891C54.707 31.5811 54.597 31.593 54.586 31.5937C54.55 31.5963 54.515 31.5979 54.479 31.5985C54.411 31.5997 54.342 31.5971 54.275 31.5907C54.258 31.5891 54.242 31.5874 54.226 31.5854C54.263 31.5905 54.265 31.5905 54.231 31.5855C54.2 31.5795 54.169 31.5744 54.139 31.5676C54.087 31.5562 54.035 31.5424 53.984 31.5263C53.956 31.5174 53.929 31.5078 53.901 31.4976C53.886 31.492 53.798 31.4522 53.871 31.4866C53.821 31.4633 53.772 31.44 53.724 31.4134C53.678 31.3882 53.633 31.3612 53.59 31.3323C53.569 31.3186 53.548 31.3044 53.528 31.2898C53.521 31.2847 53.458 31.2388 53.499 31.2694C53.54 31.2996 53.481 31.2543 53.474 31.2485C53.457 31.2343 53.439 31.2197 53.423 31.2049C53.391 31.1771 53.36 31.1485 53.33 31.119C53.282 31.0711 53.236 31.021 53.192 30.9687C53.171 30.9439 53.121 30.8629 53.184 30.9608C53.173 30.944 53.16 30.9286 53.148 30.9123C53.139 30.8983 53.129 30.8842 53.12 30.8697C53.101 30.8366 53.075 30.8077 53.044 30.7845C53.014 30.7614 52.979 30.7444 52.942 30.7347C52.9049 30.725 52.8663 30.7227 52.8284 30.7279C52.7904 30.7331 52.7539 30.7457 52.7208 30.765C52.6877 30.7844 52.6588 30.81 52.6356 30.8406C52.6125 30.8711 52.5956 30.9058 52.5858 30.9429C52.5761 30.98 52.5738 31.0186 52.579 31.0565C52.5842 31.0945 52.5969 31.1309 52.6163 31.164Z" fill="black"/>
<path d="M49.4723 39.9117L55.6449 39.1045L64.1821 47.7387C64.1821 47.7387 60.9291 56.8289 60.4661 61.8113L44.8124 61.5741C43.3359 55.0687 41.6355 49.9971 42.4336 45.3715" fill="white"/>
<path d="M49.4725 40.2035L54.891 39.4948L55.645 39.3962L55.439 39.3108L58.334 42.239L62.918 46.8756L63.976 47.945L63.901 47.6612C63.498 48.7864 63.126 49.9229 62.764 51.0615C62.034 53.358 61.355 55.6764 60.823 58.0275C60.526 59.2736 60.309 60.5375 60.175 61.8115L60.466 61.5198L58.907 61.4962L55.162 61.4393L50.6525 61.371L46.7382 61.3116L45.4528 61.2922C45.2483 61.2781 45.0432 61.275 44.8384 61.2829C44.8297 61.2832 44.821 61.2831 44.8124 61.2825L45.0936 61.4965C44.5635 59.1642 43.9558 56.8503 43.4334 54.5163C42.993 52.5493 42.6076 50.5543 42.5336 48.5351C42.4881 47.5029 42.5489 46.4688 42.7149 45.449C42.7775 45.0818 42.2154 44.9241 42.1524 45.2939C41.826 47.2081 41.917 49.1472 42.1884 51.0621C42.497 53.2385 43.0228 55.3791 43.5426 57.5126C43.8784 58.8908 44.2167 60.2684 44.5312 61.6516C44.5488 61.7128 44.5856 61.7667 44.6363 61.8053C44.687 61.8438 44.7487 61.865 44.8124 61.8657L46.3721 61.8893L50.1165 61.9461L54.626 62.0144L58.54 62.0737C59.171 62.0833 59.809 62.1218 60.44 62.1025C60.449 62.1023 60.458 62.1028 60.466 62.1029C60.543 62.1011 60.616 62.0698 60.671 62.0155C60.725 61.9612 60.756 61.888 60.758 61.8112C60.978 59.4794 61.588 57.175 62.216 54.9251C62.773 52.9291 63.393 50.9504 64.058 48.9879C64.191 48.5965 64.324 48.2053 64.463 47.8162C64.477 47.7665 64.478 47.714 64.465 47.6641C64.451 47.6142 64.425 47.5687 64.388 47.5324L62.573 45.6962L58.947 42.0289L56.138 39.1886C55.977 39.0253 55.825 38.7982 55.574 38.8222C55.013 38.8757 54.454 38.9686 53.896 39.0416L49.5625 39.6084L49.4726 39.6201C49.396 39.6225 49.3232 39.654 49.269 39.7082C49.2148 39.7624 49.1833 39.8352 49.1809 39.9118C49.1813 39.989 49.2122 40.063 49.2668 40.1176C49.3214 40.1722 49.3952 40.203 49.4725 40.2035Z" fill="black"/>
<path d="M57.606 39.7426H47.7883C47.8834 39.106 48.2039 38.5246 48.6916 38.1044C49.1792 37.6842 49.8015 37.4531 50.4452 37.4531H52.4278C52.8481 37.4531 53.263 37.5517 53.638 37.741L57.606 39.7426Z" fill="white"/>
<path d="M57.606 39.4505H47.7883L48.0695 39.8197C48.1475 39.2778 48.4067 38.7782 48.805 38.4024C49.2033 38.0267 49.7171 37.7969 50.2627 37.7506C50.9087 37.7071 51.5672 37.7443 52.2144 37.7443C52.6534 37.7257 53.0909 37.8108 53.4909 37.9926C53.6219 38.0572 53.752 38.1242 53.882 38.19L55.9009 39.2086L57.4589 39.994C57.7929 40.1627 58.0889 39.6597 57.7529 39.4904L54.2409 37.7187C54.0899 37.6425 53.939 37.5648 53.787 37.4899C53.327 37.2664 52.8216 37.1538 52.3103 37.161C51.655 37.161 50.9954 37.1378 50.3406 37.163C49.653 37.1919 48.9963 37.4562 48.4804 37.9116C47.9646 38.3671 47.6209 38.986 47.507 39.6647C47.4961 39.7079 47.4951 39.7531 47.504 39.7968C47.513 39.8405 47.5316 39.8816 47.5587 39.9171C47.5857 39.9525 47.6204 39.9815 47.6601 40.0017C47.6999 40.0219 47.7437 40.0329 47.7883 40.0339H57.606C57.981 40.0339 57.982 39.4505 57.606 39.4505Z" fill="black"/>
<path d="M58.202 32.5205C58.405 32.86 58.731 33.1089 59.112 33.2165C59.305 33.2627 59.505 33.2658 59.699 33.2254C59.773 33.2045 59.837 33.1551 59.875 33.0879C59.913 33.0207 59.923 32.9412 59.903 32.8667C59.88 32.7932 59.831 32.731 59.764 32.6931C59.697 32.6552 59.618 32.6444 59.544 32.663C59.517 32.6682 59.448 32.6656 59.539 32.6656C59.518 32.6656 59.497 32.67 59.475 32.6711C59.435 32.6733 59.394 32.6729 59.353 32.67C59.326 32.668 59.262 32.6506 59.358 32.6723C59.339 32.6681 59.32 32.666 59.301 32.662C59.265 32.6543 59.229 32.6446 59.194 32.6328C59.177 32.6271 59.16 32.6206 59.143 32.6143C59.097 32.597 59.218 32.6484 59.152 32.6174C59.121 32.6028 59.091 32.5868 59.061 32.5694C59.033 32.5527 59.005 32.5348 58.978 32.5158C58.965 32.5066 58.952 32.4968 58.939 32.4875C59.022 32.5469 58.971 32.5123 58.953 32.4969C58.874 32.43 58.802 32.3559 58.737 32.2756C58.711 32.2443 58.791 32.3481 58.761 32.3068C58.756 32.3002 58.751 32.2937 58.746 32.287C58.739 32.2763 58.731 32.2655 58.724 32.2546C58.717 32.2452 58.711 32.2358 58.705 32.2261C58.666 32.1596 58.602 32.1114 58.528 32.092C58.453 32.0725 58.373 32.0835 58.307 32.1224C58.24 32.1614 58.192 32.2251 58.172 32.2998C58.152 32.3744 58.163 32.4538 58.202 32.5205Z" fill="black"/>
<path d="M96.8781 23.4557C96.8781 23.4557 96.4391 22.6773 93.8301 22.8354C92.3281 23.3098 94.3831 27.0256 94.3831 27.0256L96.2011 26.3141" fill="#FC7272"/>
<path d="M97.13 23.308C96.986 23.058 96.675 22.9117 96.422 22.8093C96.102 22.6893 95.769 22.611 95.429 22.5763C95.186 22.5462 94.941 22.5288 94.695 22.5243C94.394 22.5052 94.091 22.5133 93.791 22.5485C93.139 22.6555 92.955 23.4065 92.996 23.9617C93.073 24.6439 93.257 25.3095 93.544 25.9333C93.717 26.3566 93.913 26.7702 94.131 27.1723C94.164 27.2276 94.214 27.2707 94.274 27.2949C94.333 27.3191 94.399 27.3231 94.461 27.3063L96.279 26.5948C96.353 26.5723 96.414 26.5226 96.452 26.4559C96.49 26.3892 96.501 26.3105 96.483 26.236C96.462 26.1617 96.412 26.0987 96.345 26.0606C96.278 26.0225 96.199 26.0124 96.124 26.0324L94.306 26.7439L94.635 26.878C94.173 26.083 93.835 25.2222 93.633 24.3254C93.579 24.0835 93.561 23.8349 93.581 23.5879C93.582 23.5853 93.601 23.4852 93.613 23.4442C93.62 23.4198 93.628 23.3958 93.636 23.3719C93.638 23.3673 93.654 23.3293 93.64 23.3609C93.624 23.3964 93.656 23.3297 93.656 23.3297C93.669 23.3094 93.681 23.2886 93.693 23.2682C93.721 23.2221 93.668 23.2918 93.705 23.2521C93.721 23.2347 93.737 23.218 93.754 23.2013C93.765 23.1903 93.777 23.1799 93.79 23.1702C93.769 23.1868 93.765 23.188 93.79 23.1734C93.811 23.1606 93.833 23.148 93.855 23.1362C93.897 23.1138 93.832 23.1331 93.882 23.1248C94.021 23.1089 94.162 23.103 94.302 23.1074C94.551 23.1025 94.8 23.1063 95.048 23.1229C95.39 23.1409 95.729 23.1994 96.058 23.2971C96.124 23.318 96.19 23.3413 96.255 23.367C96.302 23.3858 96.227 23.3524 96.286 23.3808C96.312 23.3935 96.339 23.4058 96.365 23.4193C96.404 23.4398 96.443 23.4616 96.481 23.4853C96.51 23.5039 96.603 23.5774 96.529 23.5143C96.566 23.5461 96.6 23.588 96.639 23.6173C96.679 23.6481 96.593 23.5449 96.626 23.6024C96.814 23.9278 97.318 23.6343 97.13 23.308Z" fill="black"/>
<path d="M84.67 34.7434L85.362 33.4931C85.83 32.6452 86.202 31.7475 86.471 30.8168C86.679 30.0981 86.838 29.7595 87.03 28.6061C87.584 25.2856 91.062 24.2578 91.695 24.4159C92.327 24.574 93.017 25.8416 92.881 26.3133C92.289 28.3575 91.812 30.5807 91.812 30.5807L91.675 35.6735L90.106 39.2644" fill="#FC7F3A"/>
<path d="M84.922 34.891C85.261 34.2782 85.618 33.6715 85.925 33.0414C86.256 32.3608 86.529 31.6536 86.743 30.9272C86.876 30.4728 87.03 30.0244 87.139 29.5631C87.279 28.967 87.338 28.3551 87.551 27.7778C87.721 27.3232 87.965 26.9 88.274 26.5255C88.814 25.881 89.497 25.3704 90.268 25.0339C90.395 24.9771 90.554 24.9158 90.715 24.8626C90.856 24.8156 90.999 24.7757 91.144 24.7433C91.203 24.7305 91.262 24.7205 91.32 24.7095C91.403 24.6939 91.295 24.7107 91.343 24.7057C91.373 24.7025 91.404 24.6989 91.434 24.6967C91.477 24.6938 91.519 24.6931 91.562 24.6929C91.58 24.6929 91.598 24.6962 91.616 24.6958C91.635 24.6953 91.546 24.6733 91.607 24.6954C91.999 24.8352 92.275 25.2627 92.455 25.6391C92.545 25.8104 92.597 25.9994 92.606 26.1928C92.605 26.2572 92.616 26.1904 92.59 26.2694C92.561 26.3561 92.539 26.4462 92.515 26.5341C92.462 26.7216 92.41 26.9094 92.359 27.0975C92.064 28.1907 91.796 29.2908 91.553 30.3979C91.502 30.7453 91.483 31.0967 91.497 31.4477L91.386 35.5757L91.384 35.674L91.424 35.5269L90.049 38.6723L89.854 39.1177C89.817 39.1851 89.808 39.2638 89.827 39.338C89.847 39.4121 89.894 39.4761 89.959 39.5168C90.026 39.5553 90.105 39.5659 90.18 39.5463C90.254 39.5267 90.318 39.4785 90.358 39.4121L91.231 37.4138L91.772 36.1776C91.867 36.0105 91.933 35.8285 91.968 35.6392C92.008 34.9025 92.007 34.1613 92.027 33.4238L92.097 30.8042C92.109 30.7335 92.111 30.6615 92.103 30.5902C92.096 30.5686 92.078 30.7078 92.1 30.6269C92.117 30.5611 92.129 30.4929 92.144 30.4264C92.285 29.7917 92.434 29.1588 92.592 28.5278C92.706 28.0685 92.825 27.6104 92.948 27.1534C93.044 26.8037 93.223 26.4178 93.18 26.0492C93.081 25.4066 92.752 24.8216 92.255 24.402C92.11 24.2784 91.937 24.1906 91.751 24.1457C91.566 24.1009 91.372 24.1002 91.186 24.1438C90.793 24.2135 90.411 24.3324 90.048 24.4976C89.004 24.9394 88.113 25.6781 87.486 26.6219C87.123 27.1864 86.875 27.8174 86.758 28.4782C86.634 29.1568 86.47 29.8272 86.265 30.4858C86.015 31.3579 85.687 32.2057 85.285 33.0188C85.075 33.4256 84.846 33.8232 84.624 34.2237L84.418 34.5966C84.236 34.9253 84.74 35.2199 84.922 34.891Z" fill="black"/>
<path d="M89.876 26.6765L96.475 23.2367C96.475 23.2367 97.458 23.5175 97.247 24.5705C97.949 25.1321 97.879 25.6937 97.528 26.1851C98.16 26.6765 98.301 27.4487 97.739 27.8699C98.301 28.3613 98.371 29.1335 97.669 29.7653C97.091 30.285 96.418 30.8243 95.637 31.1143C94.898 31.3868 94.227 31.818 93.673 32.3776C93.119 32.9372 92.694 33.6116 92.428 34.3532L91.912 35.8026L90.506 38.9485" fill="#FC7F3A"/>
<path d="M96.203 23.3538C96.25 23.3718 96.118 23.3123 96.19 23.3484C96.231 23.3693 96.273 23.3883 96.314 23.4104C96.42 23.4664 96.52 23.5335 96.612 23.6106C96.744 23.7123 96.848 23.848 96.91 24.0032C96.972 24.1585 96.992 24.3277 96.966 24.4932C96.953 24.5429 96.953 24.5953 96.966 24.6451C96.979 24.6949 97.005 24.7404 97.041 24.7769C97.243 24.9433 97.464 25.1505 97.493 25.4264C97.497 25.6497 97.42 25.8669 97.277 26.0381C97.244 26.0938 97.231 26.1587 97.239 26.2226C97.247 26.2866 97.277 26.346 97.322 26.3916C97.726 26.7164 98.024 27.2762 97.533 27.6639C97.478 27.7188 97.448 27.7929 97.448 27.8702C97.448 27.9474 97.478 28.0215 97.533 28.0764C97.634 28.157 97.718 28.2578 97.779 28.3723C97.84 28.4869 97.876 28.6127 97.886 28.742C97.88 28.8898 97.844 29.0349 97.78 29.168C97.715 29.3011 97.623 29.4193 97.51 29.515C96.988 30.0396 96.376 30.4667 95.703 30.7763C95.386 30.9124 95.066 31.0288 94.762 31.1955C94.478 31.3535 94.207 31.5351 93.953 31.7384C93.435 32.15 92.994 32.6494 92.65 33.2137C92.209 33.9356 91.97 34.773 91.688 35.5656C91.668 35.6123 91.651 35.66 91.637 35.7085C91.623 35.7671 91.681 35.6149 91.653 35.6724C91.617 35.7476 91.585 35.8251 91.551 35.9013L91.114 36.8773L90.254 38.8015C90.218 38.8688 90.208 38.9476 90.227 39.0218C90.247 39.096 90.294 39.1599 90.359 39.2006C90.426 39.239 90.505 39.2496 90.58 39.23C90.655 39.2105 90.719 39.1623 90.758 39.0959L91.514 37.4051C91.745 36.8879 92.009 36.3746 92.207 35.8434C92.48 35.1108 92.681 34.3321 93.07 33.6494C93.4 33.0704 93.84 32.5613 94.365 32.1509C94.619 31.9541 94.892 31.7812 95.178 31.6346C95.498 31.4688 95.842 31.3604 96.166 31.2018C96.556 31.0028 96.925 30.7636 97.265 30.488C97.612 30.243 97.922 29.95 98.187 29.618C98.399 29.3213 98.492 28.9558 98.447 28.5939C98.402 28.232 98.223 27.9001 97.945 27.6639V28.0763C98.68 27.4968 98.373 26.4918 97.735 25.979L97.78 26.3325C97.988 26.0606 98.091 25.7236 98.072 25.3822C98.041 25.1803 97.97 24.9864 97.864 24.8118C97.758 24.6372 97.619 24.4851 97.454 24.3644L97.529 24.6482C97.58 24.3947 97.565 24.1324 97.486 23.8864C97.406 23.6404 97.264 23.419 97.074 23.2436C96.867 23.0478 96.624 22.8941 96.358 22.7913C96.283 22.7713 96.204 22.7815 96.137 22.8196C96.07 22.8577 96.02 22.9207 95.999 22.9949C95.98 23.0695 95.991 23.1484 96.029 23.2152C96.067 23.2821 96.129 23.3318 96.203 23.3538Z" fill="black"/>
<path d="M90.024 26.9282L94.877 24.3985L95.572 24.0361C95.905 23.8625 95.61 23.3589 95.277 23.5324L90.425 26.0621L89.729 26.4245C89.396 26.5981 89.691 27.1017 90.024 26.9282Z" fill="black"/>
<path d="M84.285 35.0153L85.775 32.7161L91.884 36.2365L90.798 38.4077" fill="white"/>
<path d="M84.537 35.1622L86.027 32.863L85.628 32.9677L87.686 34.1537L90.984 36.0544L91.737 36.4881L91.632 36.089L90.546 38.2602C90.379 38.595 90.882 38.8908 91.05 38.5546L92.136 36.3835C92.173 36.3163 92.183 36.2373 92.164 36.1629C92.144 36.0885 92.097 36.0245 92.031 35.9844L89.973 34.7983L86.675 32.8977L85.922 32.464C85.855 32.4265 85.776 32.4165 85.702 32.436C85.627 32.4555 85.563 32.503 85.523 32.5686L84.033 34.8678C83.828 35.1837 84.333 35.4764 84.537 35.1622Z" fill="black"/>
<path d="M54.525 39.784L60.189 39.7688C61.265 39.7659 62.327 40.0203 63.285 40.5106L72.861 45.4099L77.432 47.9062L79.821 41.3991C80.835 38.637 82.542 36.1822 84.779 34.2707L85.099 33.9973L91.273 37.729L92.13 41.5175C92.408 42.7443 92.204 44.0309 91.56 45.1119L85.333 55.579C84.218 57.2841 82.52 58.5248 80.557 59.0691C78.594 59.6134 76.499 59.4241 74.666 58.5365L69.653 56.1102L57.756 50.0775" fill="white"/>
<path d="M54.525 40.0759L59.531 40.0625C59.748 40.0619 59.966 40.0606 60.184 40.0607C61.097 40.0572 62.001 40.2469 62.836 40.6172C63.259 40.8081 63.668 41.0339 64.081 41.2453L69.439 43.9866C70.538 44.5491 71.65 45.093 72.738 45.6757C74.213 46.4648 75.675 47.279 77.142 48.0805L77.285 48.1583C77.324 48.18 77.367 48.1926 77.411 48.1953C77.456 48.198 77.5 48.1908 77.541 48.174C77.582 48.1573 77.619 48.1315 77.649 48.0986C77.679 48.0658 77.701 48.0266 77.713 47.984L79.302 43.6563L80.055 41.604C80.507 40.3637 81.098 39.1788 81.817 38.0723C82.789 36.6227 83.964 35.3199 85.305 34.2038L84.952 34.2494L87.042 35.5128L90.358 37.5168L91.126 37.9811L90.992 37.8068L91.458 39.8658L91.754 41.1775C91.837 41.4993 91.899 41.8263 91.939 42.1562C92.022 43.1995 91.767 44.2418 91.211 45.1287L90.386 46.5164L87.47 51.4161L85.206 55.2211C84.257 56.7736 82.811 57.9599 81.102 58.5877C79.394 59.2155 77.524 59.248 75.795 58.6799C75.138 58.441 74.498 58.158 73.88 57.833C72.52 57.1749 71.153 56.5293 69.8 55.8583C68.882 55.403 67.971 54.9311 67.057 54.4676L61.782 51.7925L58.094 49.9226L57.903 49.8258C57.569 49.6564 57.274 50.1595 57.609 50.3295L61.19 52.1453L67.344 55.2657C68.269 55.7351 69.192 56.2101 70.126 56.6622L73.138 58.1205C73.925 58.5012 74.71 58.9257 75.538 59.2085C77.159 59.7473 78.901 59.7998 80.551 59.3595C82.2 58.9192 83.685 58.0055 84.821 56.731C85.256 56.2152 85.642 55.6599 85.974 55.0723L87.355 52.7508L90.832 46.907L91.765 45.3396C92.48 44.1533 92.707 42.7361 92.399 41.3856C92.182 40.4186 91.963 39.4519 91.743 38.4855L91.606 37.8772C91.596 37.75 91.553 37.6276 91.48 37.523C91.326 37.4007 91.158 37.2963 90.981 37.2117L85.686 34.0115L85.246 33.7457C85.19 33.7145 85.126 33.7021 85.062 33.7104C84.998 33.7186 84.939 33.7469 84.893 33.7913C83.69 34.7974 82.616 35.9483 81.696 37.2177C80.794 38.4918 80.066 39.8803 79.531 41.3466C78.957 42.9061 78.384 44.4658 77.813 46.026L77.151 47.829L77.579 47.6547L73.25 45.2904C72.298 44.7707 71.321 44.2952 70.356 43.8013L64.818 40.9677C64.365 40.7359 63.912 40.5041 63.458 40.2723C62.38 39.7317 61.187 39.4592 59.981 39.478L54.675 39.4922L54.525 39.4926C54.15 39.4936 54.149 40.0769 54.525 40.0759Z" fill="black"/>
<path d="M73.793 46.2513L75.828 47.4091L79.077 49.2571L79.829 49.6848C80.156 49.8706 80.45 49.3669 80.124 49.1811L78.088 48.0233L74.839 46.1753L74.087 45.7476C73.76 45.5618 73.466 46.0655 73.793 46.2513Z" fill="black"/>
<path d="M32.1633 25.1776L32.8748 29.3678H36.3663L38.0499 23.1172V19.5C35.3505 20.5296 32.0902 22.3249 32.1633 25.1776Z" fill="#FC7F3A"/>
<path d="M32.763 26.9762L33.1559 29.2902C33.2184 29.658 32.6561 29.8145 32.5934 29.4452L32.1158 26.6324L31.906 25.3971C31.8385 24.9049 31.8843 24.4038 32.04 23.9321C32.4844 22.4601 33.684 21.3484 34.9304 20.5242C35.9071 19.8785 36.9617 19.3987 38.0462 18.9868V19.5929C36.9313 20.017 35.8715 20.5759 34.8905 21.2578C33.7658 22.0623 32.6863 23.1876 32.4839 24.613C32.4617 24.7799 32.4516 24.9482 32.4537 25.1166C32.4538 25.1204 32.4539 25.125 32.4539 25.1307C32.4538 25.126 32.4538 25.1213 32.4537 25.1166C32.4528 25.0789 32.4501 25.1279 32.4527 25.1492C32.4688 25.2754 32.4955 25.4011 32.5168 25.5265L32.763 26.9762Z" fill="black"/>
<path d="M49.4725 39.9121L45.3131 40.0364C43.5977 40.0883 41.0909 40.4746 39.8083 42.2384L38.3685 43.8475L38.4876 29.8424L32.4791 29.8362L30.5261 33.7457C29.6342 35.5312 29.2879 37.5399 29.5305 39.521L31.9569 55.0133C32.3281 56.7791 33.2953 58.3634 34.6963 59.5005C36.0972 60.6376 37.8467 61.2582 39.651 61.2583H47.0569" fill="white"/>
<path d="M49.6156 39.7648L45.5964 39.8849C44.6544 39.8979 43.7173 40.0228 42.8048 40.257C42.1796 40.4208 41.5814 40.6741 41.0287 41.0091C40.7544 41.1793 40.4973 41.3755 40.2607 41.595C40.1475 41.7005 40.0403 41.8124 39.9396 41.93C39.8783 42.0017 39.8192 42.0758 39.7625 42.1512C39.7593 42.1554 39.7055 42.2231 39.7445 42.1771C39.7419 42.1802 39.739 42.183 39.7364 42.1861C39.2754 42.732 38.7818 43.253 38.3053 43.7855L38.8032 43.9918L38.8151 42.5988L38.8436 39.2536L38.878 35.2068L38.9077 31.7088C38.9125 31.1452 38.9426 30.5753 38.9221 30.012C38.9218 30.0036 38.9223 29.9951 38.9223 29.9867C38.9213 29.9097 38.8902 29.8361 38.8357 29.7816C38.7813 29.7272 38.7077 29.6961 38.6307 29.695L33.3549 29.6896L32.622 29.6888C32.571 29.6886 32.5209 29.7018 32.4766 29.7271C32.4324 29.7525 32.3957 29.7891 32.3702 29.8333L30.6543 33.2683C30.2482 34.0393 29.9196 34.8486 29.6735 35.6845C29.3046 37.0066 29.2093 38.39 29.3934 39.7502C29.4957 40.4461 29.6111 41.1403 29.72 41.8351L30.4221 46.3182L31.1947 51.2512L31.7317 54.6795C31.7606 54.8641 31.7845 55.0504 31.8186 55.2342C32.0455 56.3625 32.5206 57.4262 33.2096 58.3482C33.9127 59.302 34.8134 60.0929 35.8501 60.6667C36.8869 61.2405 38.0353 61.5838 39.2169 61.6732C39.6504 61.7048 40.0875 61.6942 40.522 61.6942L44.9999 61.6445C45.3568 61.5 45.2159 61.24 44.8399 61.24L39.9407 61.1108C38.011 61.1344 36.1426 60.4331 34.7049 59.1456C33.4641 58.0298 32.6348 56.5289 32.3506 54.8845L31.9088 52.0642L31.1709 47.3523L30.4342 42.6484L29.9884 39.8019C29.7071 37.8235 30.0355 35.8063 30.9299 34.0194C31.517 32.8404 32.1056 31.6622 32.6956 30.4847L32.874 30.1277L32.6221 30.2721L37.8979 30.2776L38.6308 30.2783L38.3391 29.9867L38.3272 31.3797L38.2988 34.7249L38.2644 38.7717L38.2347 42.2697C38.2299 42.8332 38.1997 43.4031 38.2203 43.9665C38.2206 43.9749 38.2201 43.9834 38.22 43.9918C38.2214 44.0488 38.2394 44.1042 38.2716 44.1513C38.3039 44.1984 38.3492 44.235 38.4019 44.2569C38.4546 44.2787 38.5125 44.2848 38.5687 44.2743C38.6248 44.2639 38.6766 44.2373 38.7179 44.198L40.0599 42.6981C40.3289 42.3603 40.6287 42.0482 40.9555 41.766C41.4433 41.4005 41.9894 41.1202 42.5707 40.9368C44.1786 40.4051 45.9005 40.4591 47.5731 40.4091L49.6156 40.348C49.9901 40.3368 49.9917 39.7535 49.6156 39.7648Z" fill="black"/>
<path d="M35.6022 28.3405H38.4879V26.0461L40.3503 24.7437C40.5041 24.6362 40.6255 24.4888 40.7017 24.3173C40.7779 24.1459 40.8058 23.9569 40.7826 23.7708C40.7634 23.6172 40.7098 23.47 40.626 23.3399C40.5421 23.2099 40.43 23.1003 40.2981 23.0195C40.1661 22.9387 40.0177 22.8885 39.8637 22.8729C39.7098 22.8572 39.5542 22.8764 39.4087 22.9291L37.7078 23.5443C37.6054 23.5813 37.4964 23.5969 37.3877 23.59C37.279 23.583 37.1729 23.5538 37.076 23.5041C36.9791 23.4543 36.8935 23.3852 36.8245 23.3009C36.7555 23.2166 36.7047 23.119 36.675 23.0142" fill="#FC7F3A"/>
<path d="M35.6019 28.6319H38.4876C38.5646 28.6308 38.6382 28.5998 38.6926 28.5453C38.7471 28.4908 38.7782 28.4173 38.7792 28.3403V26.0459L38.6348 26.2977L39.7023 25.5513C40.0823 25.2855 40.5902 25.0221 40.8582 24.6328C41.4189 23.8185 40.8547 22.6938 39.8979 22.5845C39.4038 22.528 38.8644 22.8164 38.4117 22.9802C38.1636 23.0699 37.9161 23.1616 37.6674 23.2494C37.3783 23.3514 37.0478 23.2611 36.9561 22.9364C36.8542 22.5757 36.2912 22.729 36.3936 23.0914C36.435 23.2322 36.5042 23.3632 36.597 23.4767C36.6899 23.5902 36.8046 23.6839 36.9344 23.7524C37.0641 23.8208 37.2062 23.8625 37.3524 23.875C37.4985 23.8876 37.6457 23.8707 37.7852 23.8253C38.0306 23.7442 38.2723 23.6492 38.5153 23.5612C38.8246 23.4494 39.1334 23.3357 39.4433 23.2256C39.8287 23.0886 40.265 23.2009 40.4397 23.6027C40.4931 23.7067 40.5134 23.8246 40.4979 23.9405C40.49 24.081 40.4423 24.2164 40.3603 24.3309C40.2923 24.4182 40.2097 24.4932 40.1161 24.5524L39.2717 25.1429L38.4344 25.7284C38.3169 25.8105 38.2069 25.8847 38.196 26.0463C38.1916 26.1129 38.196 26.1813 38.196 26.2479V28.3403L38.4877 28.0487H35.6019C35.2266 28.0487 35.226 28.6319 35.6019 28.6319Z" fill="black"/>
<path d="M38.4875 28.34H32.479V29.8421H38.4875V28.34Z" fill="white"/>
<path d="M38.4874 29.5507H32.4789L32.7706 29.8423V28.3402L32.4789 28.6318H38.4874L38.1958 28.3402V29.8423C38.1958 30.2177 38.7791 30.2183 38.7791 29.8423V28.3402C38.778 28.2632 38.7469 28.1896 38.6924 28.1351C38.638 28.0807 38.5644 28.0496 38.4874 28.0485H32.4789C32.4019 28.0496 32.3283 28.0807 32.2739 28.1351C32.2194 28.1896 32.1883 28.2632 32.1873 28.3402V29.8423C32.1883 29.9193 32.2194 29.9929 32.2739 30.0474C32.3283 30.1018 32.4019 30.1329 32.4789 30.134H38.4874C38.8628 30.134 38.8634 29.5507 38.4874 29.5507Z" fill="black"/>
<path d="M38.2446 43.7702L37.3892 46.3436L36.0271 50.4416L35.716 51.3774C35.5973 51.7345 36.1605 51.8876 36.2785 51.5325L37.1339 48.9591L38.496 44.8611L38.8071 43.9253C38.9257 43.5683 38.3626 43.4152 38.2446 43.7702Z" fill="black"/>
<path d="M40.5578 44.1864H51.0722C54.128 39.3956 53.313 31.5125 53.313 31.5125C52.7718 31.1147 51.9658 29.5576 51.939 28.6514C51.8987 27.2823 52.6241 26.9385 53.58 26.9103C54.537 26.8821 55.647 28.6574 55.686 29.9917L55.755 27.0985C55.76 26.8874 55.809 26.6796 55.899 26.4886C55.989 26.2976 56.118 26.1275 56.278 25.9892C56.437 25.851 56.624 25.7477 56.826 25.6859C57.028 25.6241 57.24 25.6052 57.45 25.6304L59.525 25.6661C59.728 25.6695 59.928 25.6207 60.106 25.5243C60.285 25.4278 60.436 25.287 60.544 25.1155C60.652 24.9439 60.715 24.7473 60.725 24.5446C60.736 24.342 60.693 24.1401 60.603 23.9583L60.432 23.6146C59.776 22.2944 58.449 20.7317 56.975 20.6797L51.3781 20.4821C49.7544 20.4248 46.7246 22.3809 46.0638 25.1893L45.2286 29.5352C44.3633 29.9678 43.6357 30.6328 43.1271 31.4557C42.6185 32.2786 42.3491 33.2268 42.3491 34.1942V34.3625L41.2788 34.7906C40.1513 35.2416 39.2168 36.0723 38.6369 37.1393C38.0569 38.2062 37.8679 39.4422 38.1026 40.6336C37.9525 41.0309 37.9009 41.4587 37.9525 41.8802C38.004 42.3018 38.1571 42.7045 38.3985 43.0539C38.64 43.4033 38.9626 43.6889 39.3387 43.8861C39.7148 44.0834 40.1331 44.1864 40.5578 44.1864Z" fill="#FFC41F"/>
<path d="M40.5576 44.4774H50.8101C50.8827 44.4774 50.9558 44.4795 51.0284 44.4774C51.2356 44.4714 51.3272 44.3311 51.4294 44.1636C51.8504 43.4619 52.2015 42.7205 52.4777 41.9501C53.016 40.4189 53.367 38.8286 53.526 37.2134C53.669 35.9006 53.726 34.5797 53.696 33.2594C53.684 32.6793 53.67 32.0924 53.605 31.5151C53.585 31.3427 53.494 31.2941 53.401 31.205C53.296 31.1022 53.202 30.9894 53.119 30.8681C52.8905 30.5386 52.6973 30.1861 52.5423 29.8164C52.2804 29.198 52.0419 28.3681 52.3918 27.7332C52.4521 27.626 52.5331 27.5319 52.6301 27.4563C52.7271 27.3807 52.8381 27.3252 52.9567 27.2928C53.219 27.199 53.502 27.177 53.776 27.229C54.074 27.3185 54.32 27.5693 54.517 27.8041C54.77 28.1145 54.975 28.4618 55.123 28.834C55.28 29.201 55.372 29.5926 55.394 29.9911C55.397 30.0667 55.429 30.1383 55.483 30.1908C55.538 30.2434 55.61 30.2727 55.686 30.2727C55.762 30.2727 55.834 30.2434 55.889 30.1908C55.943 30.1383 55.975 30.0667 55.978 29.9911L56.041 27.3226C56.038 27.1877 56.046 27.0528 56.064 26.9192C56.098 26.7354 56.173 26.5617 56.284 26.411C56.395 26.2604 56.538 26.1367 56.703 26.0491C57.109 25.8306 57.674 25.9252 58.124 25.933C58.586 25.9409 59.049 25.9558 59.511 25.9568C59.889 25.9609 60.254 25.8216 60.533 25.5668C60.813 25.3121 60.985 24.9609 61.015 24.5842C61.043 24.225 60.909 23.919 60.753 23.6065C60.597 23.2862 60.421 22.9761 60.226 22.6781C59.727 21.9294 59.092 21.2197 58.298 20.7783C57.842 20.5283 57.334 20.3922 56.815 20.3817L55.675 20.3414L52.3158 20.2228C52.0159 20.2123 51.716 20.2005 51.4161 20.1911C50.9634 20.186 50.514 20.2678 50.0921 20.4322C48.6375 20.9913 47.3995 22.0006 46.5589 23.3128C46.1881 23.8726 45.9224 24.4952 45.7749 25.1502C45.7023 25.5046 45.6383 25.861 45.5701 26.2162L44.9882 29.2435L44.9472 29.4569L45.0813 29.2826C44.1244 29.7654 43.3293 30.5169 42.7932 31.445C42.2939 32.3349 42.0399 33.3415 42.0573 34.3618L42.2714 34.0805C41.4595 34.4053 40.6253 34.69 39.9199 35.2221C38.8663 36.0137 38.1294 37.155 37.8415 38.4411C37.681 39.1883 37.6741 39.9604 37.8212 40.7105V40.5554C37.6607 40.9903 37.6065 41.4572 37.6631 41.9173C37.7197 42.3774 37.8854 42.8173 38.1465 43.2003C38.4159 43.5916 38.7757 43.9121 39.1955 44.1344C39.6153 44.3567 40.0825 44.4744 40.5576 44.4774C40.933 44.481 40.9333 43.8976 40.5576 43.8941C40.1366 43.8921 39.724 43.7771 39.3626 43.5613C39.0012 43.3455 38.7044 43.0366 38.503 42.6669C38.3537 42.3926 38.2616 42.0909 38.2323 41.7799C38.203 41.4689 38.2372 41.1553 38.3327 40.8579C38.3799 40.7454 38.394 40.6218 38.3733 40.5016C38.353 40.3843 38.3339 40.2675 38.322 40.149C38.2285 39.2182 38.3999 38.2799 38.8163 37.4422C39.2327 36.6045 39.8772 35.9014 40.6756 35.4139C41.222 35.0858 41.8367 34.8789 42.4264 34.643C42.487 34.6243 42.5402 34.5871 42.5786 34.5367C42.6169 34.4863 42.6386 34.4251 42.6405 34.3618C42.6228 33.4899 42.8262 32.6277 43.2317 31.8556C43.681 31.0281 44.3569 30.3459 45.1803 29.8891C45.316 29.8139 45.4644 29.7669 45.5114 29.602C45.5218 29.5656 45.526 29.5262 45.5331 29.489L45.6387 28.9398L45.9829 27.1486C46.177 26.1388 46.2873 25.0633 46.7587 24.1358C47.482 22.7125 48.8362 21.4742 50.3571 20.9556C50.725 20.8222 51.1154 20.7618 51.5065 20.7777L52.7581 20.8219L56.342 20.9484C56.629 20.9446 56.915 20.9592 57.2 20.992C58.135 21.1479 58.905 21.8793 59.46 22.6046C59.738 22.9696 59.98 23.3599 60.185 23.7705C60.317 24.036 60.475 24.2966 60.43 24.6071C60.403 24.782 60.326 24.9454 60.207 25.077C60.089 25.2085 59.935 25.3026 59.763 25.3475C59.582 25.3785 59.397 25.3856 59.214 25.3684L57.539 25.3396C57.233 25.3129 56.924 25.3485 56.632 25.4441C56.202 25.6077 55.85 25.9278 55.647 26.3403C55.424 26.8076 55.458 27.3274 55.446 27.8316L55.403 29.6259L55.394 29.9911H55.978C55.928 29.1607 55.644 28.3615 55.157 27.687C54.756 27.1212 54.196 26.5779 53.455 26.6237C52.8308 26.6624 52.1911 26.8693 51.8791 27.4558C51.5204 28.1302 51.616 28.9621 51.8588 29.6564C52.0084 30.0853 52.2019 30.4976 52.4363 30.8867C52.6221 31.2223 52.8695 31.5199 53.166 31.7638L53.021 31.5119C53.111 32.4862 53.142 33.465 53.115 34.443C53.081 36.5065 52.8615 38.5845 52.3061 40.5767C51.9831 41.7973 51.4824 42.9637 50.8201 44.0386L51.072 43.8942L40.5576 43.8941C40.1823 43.894 40.1817 44.4774 40.5576 44.4774Z" fill="black"/>
<path d="M51.3969 20.473L60.794 20.6165C62.337 20.6431 63.405 22.9224 62.819 24.3503C62.819 24.3503 62.584 25.602 61.014 26.5931C61.097 26.6757 61.593 25.3541 61.427 24.7759C60.717 25.6016 59.762 26.1801 58.702 26.4279C58.702 26.4279 59.096 25.7407 59.105 25.1344" fill="#FFC41F"/>
<path d="M51.3965 20.7649L53.303 20.794L57.198 20.8535L60.348 20.9016C60.552 20.8941 60.756 20.9007 60.959 20.9211C61.705 21.0373 62.241 21.7451 62.488 22.41C62.636 22.7919 62.703 23.2 62.686 23.6089C62.661 23.8535 62.606 24.0942 62.525 24.326C62.472 24.5238 62.392 24.7135 62.289 24.89C62.086 25.2477 61.827 25.5702 61.521 25.8452C61.318 26.0291 61.099 26.1952 60.867 26.3415C60.824 26.3679 60.788 26.4049 60.764 26.449C60.739 26.4931 60.726 26.5428 60.726 26.5933C60.726 26.6439 60.739 26.6935 60.764 26.7376C60.788 26.7817 60.824 26.8187 60.867 26.8452C61.273 27.1087 61.487 26.3561 61.564 26.1112C61.702 25.6729 61.827 25.1544 61.708 24.6986C61.694 24.6498 61.668 24.6055 61.632 24.57C61.595 24.5345 61.55 24.5091 61.501 24.4961C61.452 24.4832 61.4 24.4831 61.351 24.4961C61.302 24.509 61.257 24.5344 61.221 24.5699C60.561 25.3092 59.625 25.9767 58.624 26.1469L58.953 26.5753C59.213 26.1371 59.365 25.6432 59.397 25.1346C59.41 24.7591 58.826 24.7596 58.814 25.1346C58.784 25.54 58.66 25.9328 58.45 26.2809C58.422 26.3312 58.41 26.3883 58.414 26.4454C58.419 26.5025 58.44 26.557 58.475 26.6024C58.51 26.6478 58.557 26.682 58.611 26.701C58.665 26.72 58.723 26.7229 58.779 26.7093C59.114 26.6408 59.439 26.5303 59.747 26.3805C60.466 26.0509 61.109 25.5747 61.633 24.9823L61.146 24.8536C61.215 25.12 61.133 25.485 61.056 25.7712C61.015 25.9254 60.965 26.0772 60.907 26.2257C60.889 26.2721 60.885 26.2756 60.854 26.342C60.842 26.3591 60.832 26.3772 60.823 26.3963C60.848 26.3681 60.878 26.3454 60.911 26.3297C60.945 26.3139 60.982 26.3054 61.019 26.3047L61.166 26.3445L61.161 26.3415V26.8452C61.939 26.3472 62.615 25.6676 62.974 24.8056C63.202 24.2917 63.3 23.7293 63.258 23.1684C63.12 21.798 62.182 20.3462 60.685 20.3234L57.975 20.282L53.877 20.2194C53.064 20.207 52.2463 20.1654 51.4338 20.1821C51.4214 20.1824 51.4089 20.1817 51.3965 20.1815C51.021 20.1758 51.0209 20.7591 51.3965 20.7649Z" fill="black"/>
</svg>
